<mxfile host="app.diagrams.net" agent="Mozilla/5.0 (Windows NT 10.0; Win64; x64) AppleWebKit/537.36 (KHTML, like Gecko) Chrome/131.0.0.0 Safari/537.36" version="24.8.3">
  <diagram name="Page-1" id="5NcO812-3tEiioyyE9E0">
    <mxGraphModel dx="2097" dy="724" grid="1" gridSize="10" guides="1" tooltips="1" connect="1" arrows="1" fold="1" page="1" pageScale="1" pageWidth="850" pageHeight="1100" math="0" shadow="0">
      <root>
        <mxCell id="0" />
        <mxCell id="1" parent="0" />
        <mxCell id="sMOUUsySO7USkykY8Pia-102" value="" style="rounded=0;whiteSpace=wrap;html=1;fillColor=none;shadow=1;" vertex="1" parent="1">
          <mxGeometry x="-260" y="330" width="1250" height="920" as="geometry" />
        </mxCell>
        <mxCell id="sMOUUsySO7USkykY8Pia-10" value="" style="rounded=0;whiteSpace=wrap;html=1;fillColor=#dae8fc;strokeColor=#6c8ebf;movable=1;resizable=1;rotatable=1;deletable=1;editable=1;locked=0;connectable=1;" vertex="1" parent="1">
          <mxGeometry x="-70" y="830" width="1040" height="400" as="geometry" />
        </mxCell>
        <mxCell id="sMOUUsySO7USkykY8Pia-95" value="" style="rounded=0;whiteSpace=wrap;html=1;fillColor=#d0cee2;strokeColor=#56517e;" vertex="1" parent="1">
          <mxGeometry x="-30" y="836" width="330" height="384" as="geometry" />
        </mxCell>
        <mxCell id="D5S8QVMH5LgYy2v9Hye1-99" value="" style="rounded=0;whiteSpace=wrap;html=1;fillColor=#d5e8d4;strokeColor=#82b366;" parent="1" vertex="1">
          <mxGeometry x="-70" y="420" width="610" height="400" as="geometry" />
        </mxCell>
        <mxCell id="D5S8QVMH5LgYy2v9Hye1-70" style="edgeStyle=orthogonalEdgeStyle;rounded=0;orthogonalLoop=1;jettySize=auto;html=1;entryX=0;entryY=0.5;entryDx=0;entryDy=0;" parent="1" source="D5S8QVMH5LgYy2v9Hye1-63" edge="1">
          <mxGeometry relative="1" as="geometry">
            <Array as="points">
              <mxPoint x="1101" y="380" />
              <mxPoint x="958" y="380" />
            </Array>
            <mxPoint x="957.5" y="330.5" as="targetPoint" />
          </mxGeometry>
        </mxCell>
        <mxCell id="D5S8QVMH5LgYy2v9Hye1-102" style="edgeStyle=orthogonalEdgeStyle;rounded=0;orthogonalLoop=1;jettySize=auto;html=1;strokeWidth=2;fillColor=#60a917;strokeColor=#2D7600;entryX=0;entryY=0.5;entryDx=0;entryDy=0;entryPerimeter=0;" parent="1" source="D5S8QVMH5LgYy2v9Hye1-103" edge="1" target="sMOUUsySO7USkykY8Pia-148">
          <mxGeometry relative="1" as="geometry">
            <mxPoint x="350" y="572.2499999999999" as="targetPoint" />
            <Array as="points">
              <mxPoint x="260" y="474" />
              <mxPoint x="260" y="640" />
            </Array>
          </mxGeometry>
        </mxCell>
        <mxCell id="D5S8QVMH5LgYy2v9Hye1-103" value="AWS Greengrass" style="sketch=0;points=[[0,0,0],[0.25,0,0],[0.5,0,0],[0.75,0,0],[1,0,0],[0,1,0],[0.25,1,0],[0.5,1,0],[0.75,1,0],[1,1,0],[0,0.25,0],[0,0.5,0],[0,0.75,0],[1,0.25,0],[1,0.5,0],[1,0.75,0]];outlineConnect=0;fontColor=#232F3E;fillColor=#7AA116;strokeColor=#ffffff;dashed=0;verticalLabelPosition=bottom;verticalAlign=top;align=center;html=1;fontSize=12;fontStyle=0;aspect=fixed;shape=mxgraph.aws4.resourceIcon;resIcon=mxgraph.aws4.greengrass;" parent="1" vertex="1">
          <mxGeometry x="40" y="435" width="78" height="78" as="geometry" />
        </mxCell>
        <mxCell id="D5S8QVMH5LgYy2v9Hye1-130" value="Inference System&amp;nbsp;" style="text;html=1;align=center;verticalAlign=middle;resizable=0;points=[];autosize=1;strokeColor=none;fillColor=none;" parent="1" vertex="1">
          <mxGeometry x="420" y="790" width="120" height="30" as="geometry" />
        </mxCell>
        <mxCell id="D5S8QVMH5LgYy2v9Hye1-132" value="" style="rounded=0;whiteSpace=wrap;html=1;rotation=90;fillColor=#dae8fc;strokeColor=#6c8ebf;" parent="1" vertex="1">
          <mxGeometry x="-563.11" y="747.7" width="810" height="156.25" as="geometry" />
        </mxCell>
        <mxCell id="D5S8QVMH5LgYy2v9Hye1-133" value="" style="image;aspect=fixed;html=1;points=[];align=center;fontSize=12;image=img/lib/azure2/analytics/Azure_Databricks.svg;" parent="1" vertex="1">
          <mxGeometry x="-191.39999999999998" y="461" width="62.8" height="68" as="geometry" />
        </mxCell>
        <mxCell id="D5S8QVMH5LgYy2v9Hye1-134" style="edgeStyle=orthogonalEdgeStyle;rounded=0;orthogonalLoop=1;jettySize=auto;html=1;fillColor=#60a917;strokeColor=#2D7600;startArrow=classic;startFill=1;strokeWidth=2;" parent="1" source="D5S8QVMH5LgYy2v9Hye1-135" target="D5S8QVMH5LgYy2v9Hye1-133" edge="1">
          <mxGeometry relative="1" as="geometry" />
        </mxCell>
        <mxCell id="sMOUUsySO7USkykY8Pia-55" style="edgeStyle=orthogonalEdgeStyle;rounded=0;orthogonalLoop=1;jettySize=auto;html=1;fillColor=#60a917;strokeColor=#2D7600;strokeWidth=2;" edge="1" parent="1" source="D5S8QVMH5LgYy2v9Hye1-135" target="sMOUUsySO7USkykY8Pia-21">
          <mxGeometry relative="1" as="geometry">
            <Array as="points">
              <mxPoint x="-160" y="900" />
            </Array>
          </mxGeometry>
        </mxCell>
        <mxCell id="sMOUUsySO7USkykY8Pia-57" style="edgeStyle=orthogonalEdgeStyle;rounded=0;orthogonalLoop=1;jettySize=auto;html=1;fillColor=#60a917;strokeColor=#2D7600;strokeWidth=2;" edge="1" parent="1" source="D5S8QVMH5LgYy2v9Hye1-135" target="sMOUUsySO7USkykY8Pia-41">
          <mxGeometry relative="1" as="geometry">
            <Array as="points">
              <mxPoint x="-160" y="1171" />
            </Array>
          </mxGeometry>
        </mxCell>
        <mxCell id="D5S8QVMH5LgYy2v9Hye1-135" value="Github" style="dashed=0;outlineConnect=0;html=1;align=left;labelPosition=right;verticalLabelPosition=top;verticalAlign=bottom;shape=mxgraph.weblogos.github;spacingBottom=0;spacingLeft=-26;" parent="1" vertex="1">
          <mxGeometry x="-197.50000000000003" y="665.5" width="75" height="75" as="geometry" />
        </mxCell>
        <mxCell id="D5S8QVMH5LgYy2v9Hye1-136" style="edgeStyle=orthogonalEdgeStyle;rounded=0;orthogonalLoop=1;jettySize=auto;html=1;entryX=0;entryY=0.5;entryDx=0;entryDy=0;entryPerimeter=0;fillColor=#60a917;strokeColor=#2D7600;strokeWidth=2;" parent="1" source="D5S8QVMH5LgYy2v9Hye1-133" target="D5S8QVMH5LgYy2v9Hye1-103" edge="1">
          <mxGeometry relative="1" as="geometry">
            <Array as="points">
              <mxPoint x="-90" y="474" />
              <mxPoint x="-90" y="474" />
            </Array>
          </mxGeometry>
        </mxCell>
        <mxCell id="D5S8QVMH5LgYy2v9Hye1-137" value="Databricks" style="text;html=1;align=center;verticalAlign=middle;resizable=0;points=[];autosize=1;strokeColor=none;fillColor=none;" parent="1" vertex="1">
          <mxGeometry x="-198.12" y="435" width="80" height="30" as="geometry" />
        </mxCell>
        <mxCell id="D5S8QVMH5LgYy2v9Hye1-140" value="Development environment" style="text;html=1;align=center;verticalAlign=middle;resizable=0;points=[];autosize=1;strokeColor=none;fillColor=none;" parent="1" vertex="1">
          <mxGeometry x="-238.11" y="1200" width="160" height="30" as="geometry" />
        </mxCell>
        <mxCell id="D5S8QVMH5LgYy2v9Hye1-166" style="edgeStyle=orthogonalEdgeStyle;rounded=0;orthogonalLoop=1;jettySize=auto;html=1;entryX=0;entryY=0.5;entryDx=0;entryDy=0;" parent="1" edge="1">
          <mxGeometry relative="1" as="geometry">
            <Array as="points">
              <mxPoint x="1101" y="1200" />
              <mxPoint x="958" y="1200" />
            </Array>
            <mxPoint x="957.5" y="1150.5000000000005" as="targetPoint" />
          </mxGeometry>
        </mxCell>
        <mxCell id="D5S8QVMH5LgYy2v9Hye1-207" style="edgeStyle=orthogonalEdgeStyle;rounded=0;orthogonalLoop=1;jettySize=auto;html=1;exitX=0.014;exitY=0.486;exitDx=0;exitDy=0;exitPerimeter=0;strokeWidth=2;entryX=1;entryY=0.2;entryDx=0;entryDy=0;entryPerimeter=0;" parent="1" source="D5S8QVMH5LgYy2v9Hye1-128" edge="1" target="sMOUUsySO7USkykY8Pia-148">
          <mxGeometry relative="1" as="geometry">
            <mxPoint x="445" y="470" as="sourcePoint" />
            <mxPoint x="410" y="560" as="targetPoint" />
            <Array as="points">
              <mxPoint x="420" y="533" />
            </Array>
          </mxGeometry>
        </mxCell>
        <mxCell id="sMOUUsySO7USkykY8Pia-2" value="" style="rounded=0;whiteSpace=wrap;html=1;fillColor=#fad7ac;strokeColor=#b46504;" vertex="1" parent="1">
          <mxGeometry x="550" y="420" width="420" height="400" as="geometry" />
        </mxCell>
        <mxCell id="sMOUUsySO7USkykY8Pia-3" value="Alarm System" style="text;html=1;align=center;verticalAlign=middle;resizable=0;points=[];autosize=1;strokeColor=none;fillColor=none;" vertex="1" parent="1">
          <mxGeometry x="870" y="790" width="100" height="30" as="geometry" />
        </mxCell>
        <mxCell id="sMOUUsySO7USkykY8Pia-49" style="edgeStyle=orthogonalEdgeStyle;rounded=0;orthogonalLoop=1;jettySize=auto;html=1;fillColor=#6a00ff;strokeColor=#3700CC;strokeWidth=2;" edge="1" parent="1" source="sMOUUsySO7USkykY8Pia-4" target="sMOUUsySO7USkykY8Pia-6">
          <mxGeometry relative="1" as="geometry" />
        </mxCell>
        <mxCell id="sMOUUsySO7USkykY8Pia-4" value="Kenises Data&amp;nbsp;&lt;div&gt;Streams&lt;/div&gt;" style="sketch=0;points=[[0,0,0],[0.25,0,0],[0.5,0,0],[0.75,0,0],[1,0,0],[0,1,0],[0.25,1,0],[0.5,1,0],[0.75,1,0],[1,1,0],[0,0.25,0],[0,0.5,0],[0,0.75,0],[1,0.25,0],[1,0.5,0],[1,0.75,0]];outlineConnect=0;fontColor=#232F3E;fillColor=#8C4FFF;strokeColor=#ffffff;dashed=0;verticalLabelPosition=top;verticalAlign=bottom;align=center;html=1;fontSize=12;fontStyle=0;aspect=fixed;shape=mxgraph.aws4.resourceIcon;resIcon=mxgraph.aws4.kinesis_data_streams;labelPosition=center;" vertex="1" parent="1">
          <mxGeometry x="633" y="577.5" width="78" height="78" as="geometry" />
        </mxCell>
        <mxCell id="sMOUUsySO7USkykY8Pia-5" style="edgeStyle=orthogonalEdgeStyle;rounded=0;orthogonalLoop=1;jettySize=auto;html=1;entryX=0;entryY=0.5;entryDx=0;entryDy=0;entryPerimeter=0;fillColor=#6a00ff;strokeColor=#3700CC;strokeWidth=2;" edge="1" parent="1" source="sMOUUsySO7USkykY8Pia-148" target="sMOUUsySO7USkykY8Pia-4">
          <mxGeometry relative="1" as="geometry">
            <mxPoint x="475" y="616.2621812842076" as="sourcePoint" />
            <Array as="points">
              <mxPoint x="527" y="617" />
            </Array>
          </mxGeometry>
        </mxCell>
        <mxCell id="sMOUUsySO7USkykY8Pia-60" style="edgeStyle=orthogonalEdgeStyle;rounded=0;orthogonalLoop=1;jettySize=auto;html=1;startArrow=classic;startFill=1;fillColor=#6a00ff;strokeColor=#3700CC;strokeWidth=2;" edge="1" parent="1" source="sMOUUsySO7USkykY8Pia-6" target="sMOUUsySO7USkykY8Pia-21">
          <mxGeometry relative="1" as="geometry">
            <Array as="points">
              <mxPoint x="672" y="980" />
              <mxPoint x="160" y="980" />
              <mxPoint x="160" y="900" />
            </Array>
          </mxGeometry>
        </mxCell>
        <mxCell id="sMOUUsySO7USkykY8Pia-6" value="DynamoDB" style="sketch=0;points=[[0,0,0],[0.25,0,0],[0.5,0,0],[0.75,0,0],[1,0,0],[0,1,0],[0.25,1,0],[0.5,1,0],[0.75,1,0],[1,1,0],[0,0.25,0],[0,0.5,0],[0,0.75,0],[1,0.25,0],[1,0.5,0],[1,0.75,0]];outlineConnect=0;fontColor=#232F3E;fillColor=#C925D1;strokeColor=#ffffff;dashed=0;verticalLabelPosition=middle;verticalAlign=middle;align=left;html=1;fontSize=12;fontStyle=0;aspect=fixed;shape=mxgraph.aws4.resourceIcon;resIcon=mxgraph.aws4.dynamodb;labelPosition=right;" vertex="1" parent="1">
          <mxGeometry x="633" y="861" width="78" height="78" as="geometry" />
        </mxCell>
        <mxCell id="sMOUUsySO7USkykY8Pia-8" value="Lambda" style="sketch=0;points=[[0,0,0],[0.25,0,0],[0.5,0,0],[0.75,0,0],[1,0,0],[0,1,0],[0.25,1,0],[0.5,1,0],[0.75,1,0],[1,1,0],[0,0.25,0],[0,0.5,0],[0,0.75,0],[1,0.25,0],[1,0.5,0],[1,0.75,0]];outlineConnect=0;fontColor=#232F3E;fillColor=#ED7100;strokeColor=#ffffff;dashed=0;verticalLabelPosition=top;verticalAlign=bottom;align=center;html=1;fontSize=12;fontStyle=0;aspect=fixed;shape=mxgraph.aws4.resourceIcon;resIcon=mxgraph.aws4.lambda;labelPosition=center;" vertex="1" parent="1">
          <mxGeometry x="824.75" y="577.25" width="78" height="78" as="geometry" />
        </mxCell>
        <mxCell id="sMOUUsySO7USkykY8Pia-9" style="edgeStyle=orthogonalEdgeStyle;rounded=0;orthogonalLoop=1;jettySize=auto;html=1;entryX=0;entryY=0.5;entryDx=0;entryDy=0;entryPerimeter=0;fillColor=#6a00ff;strokeColor=#3700CC;strokeWidth=2;" edge="1" parent="1" source="sMOUUsySO7USkykY8Pia-4" target="sMOUUsySO7USkykY8Pia-8">
          <mxGeometry relative="1" as="geometry" />
        </mxCell>
        <mxCell id="sMOUUsySO7USkykY8Pia-61" style="edgeStyle=orthogonalEdgeStyle;rounded=0;orthogonalLoop=1;jettySize=auto;html=1;startArrow=classic;startFill=1;fillColor=#6a00ff;strokeColor=#3700CC;strokeWidth=2;" edge="1" parent="1" source="sMOUUsySO7USkykY8Pia-13" target="sMOUUsySO7USkykY8Pia-21">
          <mxGeometry relative="1" as="geometry" />
        </mxCell>
        <mxCell id="sMOUUsySO7USkykY8Pia-80" style="edgeStyle=orthogonalEdgeStyle;rounded=0;orthogonalLoop=1;jettySize=auto;html=1;fillColor=#6a00ff;strokeColor=#3700CC;strokeWidth=2;" edge="1" parent="1" source="sMOUUsySO7USkykY8Pia-13" target="sMOUUsySO7USkykY8Pia-16">
          <mxGeometry relative="1" as="geometry" />
        </mxCell>
        <mxCell id="sMOUUsySO7USkykY8Pia-13" value="S3" style="sketch=0;points=[[0,0,0],[0.25,0,0],[0.5,0,0],[0.75,0,0],[1,0,0],[0,1,0],[0.25,1,0],[0.5,1,0],[0.75,1,0],[1,1,0],[0,0.25,0],[0,0.5,0],[0,0.75,0],[1,0.25,0],[1,0.5,0],[1,0.75,0]];outlineConnect=0;fontColor=#232F3E;fillColor=#7AA116;strokeColor=#ffffff;dashed=0;verticalLabelPosition=top;verticalAlign=bottom;align=center;html=1;fontSize=12;fontStyle=0;aspect=fixed;shape=mxgraph.aws4.resourceIcon;resIcon=mxgraph.aws4.s3;labelPosition=center;" vertex="1" parent="1">
          <mxGeometry x="347" y="861" width="78" height="78" as="geometry" />
        </mxCell>
        <mxCell id="sMOUUsySO7USkykY8Pia-14" style="edgeStyle=orthogonalEdgeStyle;rounded=0;orthogonalLoop=1;jettySize=auto;html=1;fillColor=#6a00ff;strokeColor=#3700CC;strokeWidth=2;exitX=1;exitY=0.8;exitDx=0;exitDy=0;exitPerimeter=0;" edge="1" parent="1" source="sMOUUsySO7USkykY8Pia-148">
          <mxGeometry relative="1" as="geometry">
            <mxPoint x="383.7623427566616" y="707.5" as="sourcePoint" />
            <mxPoint x="420" y="860" as="targetPoint" />
            <Array as="points">
              <mxPoint x="420" y="720" />
              <mxPoint x="420" y="720" />
            </Array>
          </mxGeometry>
        </mxCell>
        <mxCell id="sMOUUsySO7USkykY8Pia-15" value="Send Gif" style="edgeLabel;html=1;align=center;verticalAlign=middle;resizable=0;points=[];rotation=-90;labelBackgroundColor=none;" vertex="1" connectable="0" parent="sMOUUsySO7USkykY8Pia-14">
          <mxGeometry x="0.0553" y="-1" relative="1" as="geometry">
            <mxPoint x="-12" y="-10" as="offset" />
          </mxGeometry>
        </mxCell>
        <mxCell id="sMOUUsySO7USkykY8Pia-106" style="edgeStyle=orthogonalEdgeStyle;rounded=0;orthogonalLoop=1;jettySize=auto;html=1;entryX=1;entryY=0.5;entryDx=0;entryDy=0;fillColor=#f0a30a;strokeColor=#BD7000;strokeWidth=2;" edge="1" parent="1" source="sMOUUsySO7USkykY8Pia-20" target="sMOUUsySO7USkykY8Pia-62">
          <mxGeometry relative="1" as="geometry">
            <Array as="points">
              <mxPoint x="575" y="1200" />
              <mxPoint x="320" y="1200" />
              <mxPoint x="320" y="1161" />
            </Array>
          </mxGeometry>
        </mxCell>
        <mxCell id="sMOUUsySO7USkykY8Pia-20" value="Route 53" style="outlineConnect=0;dashed=0;verticalLabelPosition=top;verticalAlign=bottom;align=left;html=1;shape=mxgraph.aws3.route_53;fillColor=#F58536;gradientColor=none;labelPosition=right;spacingLeft=-11;spacingBottom=-17;" vertex="1" parent="1">
          <mxGeometry x="540" y="1068" width="70.5" height="85.5" as="geometry" />
        </mxCell>
        <mxCell id="sMOUUsySO7USkykY8Pia-72" style="edgeStyle=orthogonalEdgeStyle;rounded=0;orthogonalLoop=1;jettySize=auto;html=1;startArrow=classic;startFill=1;fillColor=#0050ef;strokeColor=#001DBC;strokeWidth=2;entryX=0;entryY=0.8;entryDx=0;entryDy=0;entryPerimeter=0;" edge="1" parent="1" source="sMOUUsySO7USkykY8Pia-21" target="sMOUUsySO7USkykY8Pia-148">
          <mxGeometry relative="1" as="geometry">
            <mxPoint x="338.125" y="707.5" as="targetPoint" />
            <Array as="points">
              <mxPoint x="336" y="890" />
            </Array>
          </mxGeometry>
        </mxCell>
        <mxCell id="sMOUUsySO7USkykY8Pia-21" value="API" style="aspect=fixed;sketch=0;html=1;dashed=0;whitespace=wrap;verticalLabelPosition=top;verticalAlign=bottom;fillColor=#2875E2;strokeColor=#ffffff;points=[[0.005,0.63,0],[0.1,0.2,0],[0.9,0.2,0],[0.5,0,0],[0.995,0.63,0],[0.72,0.99,0],[0.5,1,0],[0.28,0.99,0]];shape=mxgraph.kubernetes.icon2;prIcon=api;labelPosition=center;align=center;" vertex="1" parent="1">
          <mxGeometry x="-16.91" y="860" width="83.33" height="80" as="geometry" />
        </mxCell>
        <mxCell id="sMOUUsySO7USkykY8Pia-35" value="" style="html=1;verticalLabelPosition=bottom;align=center;labelBackgroundColor=#ffffff;verticalAlign=top;strokeWidth=2;strokeColor=#0080F0;shadow=0;dashed=0;shape=mxgraph.ios7.icons.wifi;pointerEvents=1" vertex="1" parent="1">
          <mxGeometry x="282" y="590" width="29.7" height="21" as="geometry" />
        </mxCell>
        <mxCell id="sMOUUsySO7USkykY8Pia-74" style="edgeStyle=orthogonalEdgeStyle;rounded=0;orthogonalLoop=1;jettySize=auto;html=1;entryX=0;entryY=0.75;entryDx=0;entryDy=0;startArrow=classic;startFill=1;exitX=1.007;exitY=0.679;exitDx=0;exitDy=0;exitPerimeter=0;fillColor=#0050ef;strokeColor=#001DBC;strokeWidth=2;" edge="1" parent="1" source="sMOUUsySO7USkykY8Pia-41" target="sMOUUsySO7USkykY8Pia-62">
          <mxGeometry relative="1" as="geometry" />
        </mxCell>
        <mxCell id="sMOUUsySO7USkykY8Pia-156" style="edgeStyle=orthogonalEdgeStyle;rounded=0;orthogonalLoop=1;jettySize=auto;html=1;entryX=1;entryY=0.5;entryDx=0;entryDy=0;startArrow=classic;startFill=1;fillColor=#6a00ff;strokeColor=#3700CC;strokeWidth=2;" edge="1" parent="1" source="sMOUUsySO7USkykY8Pia-41" target="sMOUUsySO7USkykY8Pia-152">
          <mxGeometry relative="1" as="geometry">
            <Array as="points">
              <mxPoint x="-40" y="1160" />
              <mxPoint x="-40" y="1098" />
            </Array>
          </mxGeometry>
        </mxCell>
        <mxCell id="sMOUUsySO7USkykY8Pia-41" value="Site" style="dashed=0;outlineConnect=0;html=1;align=center;labelPosition=center;verticalLabelPosition=bottom;verticalAlign=top;shape=mxgraph.webicons.wordpress;fillColor=#35E2EE;gradientColor=#0E4D99;spacingTop=-5;" vertex="1" parent="1">
          <mxGeometry x="-5.24" y="1140" width="60" height="60" as="geometry" />
        </mxCell>
        <mxCell id="sMOUUsySO7USkykY8Pia-50" value="Management System" style="text;html=1;align=center;verticalAlign=middle;resizable=0;points=[];autosize=1;strokeColor=none;fillColor=none;" vertex="1" parent="1">
          <mxGeometry x="824.75" y="1190" width="140" height="30" as="geometry" />
        </mxCell>
        <mxCell id="sMOUUsySO7USkykY8Pia-56" style="edgeStyle=orthogonalEdgeStyle;rounded=0;orthogonalLoop=1;jettySize=auto;html=1;entryX=-0.02;entryY=0.571;entryDx=0;entryDy=0;entryPerimeter=0;fillColor=#60a917;strokeColor=#2D7600;strokeWidth=2;" edge="1" parent="1" source="D5S8QVMH5LgYy2v9Hye1-135" target="sMOUUsySO7USkykY8Pia-26">
          <mxGeometry relative="1" as="geometry">
            <Array as="points">
              <mxPoint x="-160" y="1037" />
            </Array>
          </mxGeometry>
        </mxCell>
        <mxCell id="sMOUUsySO7USkykY8Pia-58" style="edgeStyle=orthogonalEdgeStyle;rounded=0;orthogonalLoop=1;jettySize=auto;html=1;entryX=0.98;entryY=0.5;entryDx=0;entryDy=0;entryPerimeter=0;fillColor=#1ba1e2;strokeColor=#006EAF;strokeWidth=2;" edge="1" parent="1" source="sMOUUsySO7USkykY8Pia-8" target="sMOUUsySO7USkykY8Pia-26">
          <mxGeometry relative="1" as="geometry">
            <Array as="points">
              <mxPoint x="860" y="1030" />
            </Array>
          </mxGeometry>
        </mxCell>
        <mxCell id="sMOUUsySO7USkykY8Pia-59" value="" style="group" vertex="1" connectable="0" parent="1">
          <mxGeometry x="347" y="1050" width="97.5" height="108" as="geometry" />
        </mxCell>
        <mxCell id="sMOUUsySO7USkykY8Pia-16" value="CloudFront" style="outlineConnect=0;dashed=0;verticalLabelPosition=bottom;verticalAlign=top;align=center;html=1;shape=mxgraph.aws3.cloudfront;fillColor=#F58536;gradientColor=none;" vertex="1" parent="sMOUUsySO7USkykY8Pia-59">
          <mxGeometry y="15" width="76.5" height="93" as="geometry" />
        </mxCell>
        <mxCell id="sMOUUsySO7USkykY8Pia-25" value="SSL" style="sketch=0;outlineConnect=0;fontColor=#232F3E;gradientColor=none;fillColor=#232F3D;strokeColor=none;dashed=0;verticalLabelPosition=bottom;verticalAlign=top;align=center;html=1;fontSize=12;fontStyle=0;aspect=fixed;pointerEvents=1;shape=mxgraph.aws4.ssl_padlock;" vertex="1" parent="sMOUUsySO7USkykY8Pia-59">
          <mxGeometry x="66.20000000000005" width="31.3" height="30.5" as="geometry" />
        </mxCell>
        <mxCell id="sMOUUsySO7USkykY8Pia-62" value="Keycloak" style="shape=image;verticalLabelPosition=top;labelBackgroundColor=none;verticalAlign=bottom;aspect=fixed;imageAspect=0;image=data:image/png,iVBORw0KGgoAAAANSUhEUgAAAQAAAAEACAYAAABccqhmAAAACXBIWXMAAAsTAAALEwEAmpwYAAAAGXRFWHRTb2Z0d2FyZQBBZG9iZSBJbWFnZVJlYWR5ccllPAAAKJdJREFUeNrsXXuQXFWZPzP9mkf3vJNJZpLJZMjTgCQu+EREAavchSHUmnItlMQoLiIs+UfXRS1CsaUsWFTcXZRaQJIAIhVREtxSBBQELNeo5P0YzJuZTDIzmWdm+t17v07fsdPTj/v43XtPd3+/qqlInNzue+85v/M73+8731eRSCQEg8EoT1QwATAYTAAMBoMJgMFgMAEwGAwmAAaDwQTAYDCYABgMBhMAg8FgAmAwGEwADAaDCYDBYDABMBgMJgAGg8EEwGAwmAAYDAYTAIPBYAJgMBhMAAwGgwmAwWAwATAYDCYABoPBBMBgMJgAGAwGE4CN6O7uXqn8sUn5+Rg/jZLECeVnw44dO17gR8EEkDn5G5Q/jis/9fw0Sh6rFBLYxY9BiEp+BNPYwJO/bLCJHwErgPTVv1P54xgPh7LCFxQVsJkVAIOwmR9B2WFjatvHBFDmq/81goN+5YgFqW0fEwCv/owyxYbU9o8JoExX/w2plYBRnqCg78ZyfgBlGwRk24+Rho/v2LHjNVYA5YVNPPkZaWOBFUAZrf6U8fc2j3tGGsrSFixXBcCJIIwZY6IcbcGyIwDlJa8WbPsxZoK2gxuYAHj1Z5Qv7i03W7CsCEB5uRsF234MXiCmUTZBwBSz7xIc+WcURtnYguWkADby5GdoxGbeApTW6n+N8sdaHtcMjViQyhJlAiih1Z/B0DVmysEWLHkCUF7iOsG2H0M/yuKcQEkHAVMMToE/jvwzjGLhjh07jrMCKE7waT+GWWxmBVCcq3+n4DJfDAxuLtVKwqWsADjjj8FjqRwJIGX73cTjlgHCglQWKRMAMzajTLGhFG3BkiOAlO13OY9XBhj1pbiwlFQQkMt8MWxASXUVKjUFsJEnP4O3l2WoANj2Y9iIkikfVkoKYDOPS4ZdSrNUAoIlQQDc3YdhM0qmq1CpKABe/Rl2oyS6ChU9AXB3H4ZDKInTgkUdBCwG22+yyi9OtV4CuVZtaELM6z8i9TuZXPReEZuLWRi9Jw4L38nDsg/Doi4f5i5yApO6u8/hBZeLno73wq7nFQkxuOIjYuWrW6W83/1XrRG+VR8WNf4A5oJXKaS38xVR/8pPZB6DpAKu4S2A/as/dfeRtszXWG0TdPITwl2XilPLPiiG2pfIt/IHmsXRyz8ujogq6HXPX3mdCHUslXkofiyVfcoE4MDqLy32XXIF9Ho+n08If13yf7997a3S3e+u6y58p3A8IQbGJ6DXHrlhvfRjsVhtwaIkANm7+/Q3zxdD9a2w67niMRFauGL6v6cCTcpq+wlp7pcUyVDb4un/7lU2KyIagV0/Vt+sKIHrZR6SRdtVqFgVgOSr/5XQ61U0zRbC67vo73re/w8i4quW4n4zFUksIcSpYBT6GeMf7RbxqhqZX3tRdhUqOgKQvbsPBf6mfLWw63kScRFt75rx9xFvtei58gbn71chIlIkmTgbd4nY+XHY58QVshu77p94YSpnAkgxrLRSK+L2imNty6HXjLcpt+zKbtZQ0I2Cb47drzIpj+XZihypwCqUycs+LCKt82UeojelslKZACzCRiGx7be/6wqFBDyw6/kqFDk9qz3v76jBN0fu96o1SSWSU7ZH42JidAT6maOsAsqTAGTv7kNBP1TCj4rQosI2IgXf+rvsr38y1jIvaUkWwjGXsh2KhGGfG+5YKoJLVsk8VC8vpq5CxaQANsr85Wjvj0TS9qvWFkvYp6zEdmPfR7V9ZtIWDIahn10EKqBoTgsWBQHI3t2HVn6o7ZeIa1r9VVAQjoJxdoEUR7rtVwhkC8aDk7DPJ1uQXAGJUTTnBCqLYPI3yLyvosAfevWvaJyVM/CXU2pf/glbbEH6DL2Kg2zBk1gRkMwLiNW3yDx07y4GW7AYFMAGIXHg72j7crzt16E/1ZeCcftt2ApQAlI2269grEK4RWR8FPY9yBaUXAUQNjMBmFv9iUHvlfX70Uk/dL5/fJ7xQCIF5Sg4Z9n9Bprz2n6F8NdKbCIP2YJFcE7gGiYA45DaUiHbDwmvyyVizXNMXUNrcM4IktmHXuPbjEllL4C2BVkFlCgByN7dh4J+lPOPRHix+ViCVbYg5ftrsf00qQCwLTj53o/IPMek7iokswIoq3x/b21gRr6/mX06GoPtiyHXoYAg2hYcv6oozglsltEalLIi0MMPP/zfK1eu/OrixYul+D7nz5+/4Mun8NPjg+LrfzoOu36V2yWCS9+nO/KfCx+oTohn52MP43x/yKX84NaLj9R7RDBRAbvemtqwWOO/QCwjIyPC7XaL6upqYeX4npycFF6vV59iCYeT340VQA489thjC2688cY7ZJn8NIDSJ/9YJCbu330K+xmU3+7CDYrr/XH4c1juw06kPedj0OttO+8V/eGEiEajwu/3i6qqKukmv/rveAuQBx0dHS8qL69Clu8zNjZ28Up4oE+MR3CDN1DlE6HmubDrtXsSYn0jngA+qZAKKQuYbI/GhVtgv+eW81W2jAmjk59QW1vLBJALTz755FXt7e2XyfJ9QqHQRS/s3fMh8eQ7Z7D717ZF0Os91Bqz7Hk8NAd77bcnsNf7c9gjDkTc0k5+gsfjYQLIhWXLlr2YLredlv6x2MUD9GvAfT+hsbFxuswXau//wRrrZO88RV18Aagu6JxANIYlgacmq6Wd/CoopsQEkIHHH3/8W4r8b6ipkSOaOz4+ftHL/sPAuPi/gXHoZwy3LpR6hc6Gu5tjIgAcNfsmY8JTgSOtE1GX+GUQv4hMTExAJn9y0lVWMgFk4kMf+tB0xl9FhbMhAJL+mUT0tZ3YvqOBufNgth+BVmZaoa1GXeUFEkCBbMG+IDYW8PxklZgEOgyRSCTpKKAgUxxACgJ48cUXX2toaJjevJFV4iTi8YsH5I+UfX/vJO47+dwuMd6EC/wFwJOyECjIiHQFToZiogqoAmjy/3SyCjb5acVGOwrkVjABXJD+C97znvdcnbnXcgoU9U8P1JDtR5F/JCraFkJtv2/PjiVXZjvx7VlYwkHbgr9StgED8UopJ7/TY1wqAujs7Hw10/bLXIHtAr3oTOl//66TUNuvyV8jgg2zYNejlfjTdfY/Lwo2IvMNyBasAL/3RydqpJz8Mm0DHCWALVu2fGb58uUzjr8FAgFHvg8FetJxYGRSPH9iCPoZ52ZjA3/olVjfZ2Mn7J5J7L0cjLgN2YJWT36CLHagowSwZMmSR7P9PSraqlf6ZwZ60Bl/LS2zoLYfrcBW2n6FQEHHu5uxtuBEBEsCelWAHZNfhQx2oGMEoKz+/0m2X859so1OQDbp/+u+EajtV+12icEW3OlBCvyhV2Aj+EIj1hb8azAmfAI3+QbjlUlXQLbJn5x8EtiBjnwDCvxdccUVX5ElSJKZ7pvM91f2/ki4Z82F2n7rbbL9CoGCjxSERIFswRMhrAqgvIBCtqDdk1+WOIAjBNDa2rol3fbLBvLi7QDJsMwX8STY9qN8f6Tt157MyIsJWUBBSOQ5gd5QXFEBOHVDk3/r+WqpJr8Kp+1A2wmA8v0zbb9cstwO6Z+Zekz5/j8C5/tH53ZCbT/ad9dJdowLnYewdxK7vfldyJvMEpRp8tutdKUggPnz52/Wctqvudn6lleU7psJ9Gm/WfV1hopo5gKttE7YfoVAwch/rEPbglhS2ZpxTsDpyS/DNsBWAnj66ac3ZLP9nEC2dF/K90fbfgOzO6VeabHfLQ4NCO5RVIAXmCFItiApAVkmP8FpO9BWAli4cOH9en7fKicg20k/dfVHImn7VeMYnlZYJ22/QqCg5Nq6COx6ZAueC2PVDqUIj4ajUkx+FU7agbYRwLZt2x7v7Oz0m5XoKOmfmWtAZb6Qth+V+Rpsxa3+AXC03QpQItW6hphoc+Mm1uEpvC3460itkKkUnpN2oC2fTLbf+973vvV6/50VEdJs0t+KMl8esv2AgT+y/eokLeFKh7fouVJANVARF99sxh7mOhbEjoOXQlUKEbikeX5OxgFsGVJk+xkp82VF8cRs5wzI9kOX+RqfhUv6aU9m3Mm5+tOqTytY+ip2XU1MvL8KJ91PhxNwW/BnIbmqCDtlB1pOAGT7Kau/ocaedXV10O+SedKPQLYfeu+PLvMlQ8Zfrr0rrfrZ5PQ9YBWwC3xa8M2wTxyMylOeyyk70HIC6Orq2ibDA86W7ktAS/9GIi1wma9P+uUiAFr1acXKd2ZjuTcubvbjVjXqKhQBlw97JihPYQ6ntgGWEgDZfosWLTLV6wrlBGSe9COQ7fdyH7ZV1TB69Zcs8Jdv1Z+pAiIiUIkLtu2n8mHAgODJmFu8Ea6S4rk6ZQdaSgCXXXbZg2avce7cOcigzVbS6f5d2NW/qXUOvMzXe3xyRKu1rPoztnCVZAviVECyfFgIrwKQ5cPMjtOSIYDnn3/+54FAwDStmbVIsqX7Eijd9+Aobt9Ftt858Gk/WQJ/elb9TNzVGIHagieT5wSw5cNeClVL8ZydsAMt+UTq7qOs/jdRFN/soR6zZcIzT/ol/86CMl/o7j40+Z22/Yys+tnwH7OwAcG94MIhPw/VSGELOhEHsGSItbW1vaDafmZJwEyZ8MzGHirQ+f5U5qsYuvvYtepn4v1VWFsw2VUogX0+/zPlFzLAbjsQTgAPP/zw3yur/8r0vzNLAkYCgbnSfa3o7oMu82Vld59CmJqagqz6mXhgFvZ499tgW/BQ1COFLWi3HQgngA984APPZPt7MyRgpEx4tnRfguzdfZws80XPjN6TFWmy7e6EuBUYELSifNhjUwHHCcDubQCUAJS9/7fmz5+fs8yXURLQy4rZ0n0J6DJfBHR3HyeSftRVnzrqWgkKCCJtQSof5gafE3A6IGi3HQglAGX1v7fQ7xghAb1lwnP9PrrMF7q7z5drztte5svKVT8TZAsSCaBAtuC7IXxA0Glb0C47kD4HRgDbt29/rVCZL6MkoKdMeLZ0XwIF/mTv7nNHm33VkO1a9TNBeQHLvDiVQ+XDvAlgxqEy+X/u8DkBO+xAmvy0RYZ8Etl+y5cvv1rPv9FDAloDUrnSfcn2Q5f5sqq7D03MUlr1s+GbzRHo9faBHxltA/ZZ3GbcyTgAFUNR7XUIAXR0dLxq9LSfVhLQ4gRkS/dVpT+6zJdV3X2snJROrfqZWOUKiqs9QRyhReMiAbTP6OTh94adbVNvpR1Ic0kdZ6YJ4JFHHvmSmTJfWkmgUCAwW2MPghXdfQaa50Ovl97dhxSMFc1RnVz16bMppTsYDE4PbLgKCCZg5wSoIOnOkEu8OuWcCrDKDqS5lj4GTBPAypUrHzJ7DS0kkG9S5JL+ydVf8u4+2cp8IUuik9yjld/OVX9kZEQMDQ0l8zDo8+mzKY7jcrmmB1+7Oy7uqMPdZ7J8GEDlUYIRKQrCAyPOKSUrtgHJoF9GfMEUATz33HOP57P9kCSQzwnIlu5LQJf5sqK7T7bWWqjeiOqWyIrCKukEMzw8PJ02TP9Ng5dqORRybz7vDwk/0BY8EowLr8nCIekJRn3RSvHIqDNbAbQdSIoiWyzNMAGkAn9rkV8yHwnkKhOerbFHkhQsyPe3s7tPrniGnlXf7DkKrXLe7/cbShumnIBv1ONiAWQLngwaJ4Cwcj+kJNLx1IRXjMedsQVRdiCNh1yEYpgAZs+evUWr7WdFTECV/rkGebF39zE6edGrvhY5bwara8PiCh8u4NUbJltQ/1aAEooOTM0kD5r833VoK4CwA2nrnC+AbugTnnjiiav02n4IEsi8kVxVg0uhuw8xtp5gIGLVNyPnzeCrddhzArsNdBV6NxhLKohs2H7eIw6G7T+aiYgD0HvLR9SG7qqtre3HRmw/sySQPuFzpfsSSqW7j1YCMLrqI+W8GVypKICbanBqjcqHiZh2VeFTFENvgf4D3x32JZ+XXT0rpxceE3Yg7ftJqeVVGXov+tRTT21YsWLFfDtuPpME1IeR66QfoRi6+2gt80WTEbnqWy3nzYAcAWRAcJeiArTagnunCv/en8Me8etEfVKW08SiZ2nHMzNqB1L8QEsgUTcBLFu27Dt2Dox0ElBXuFwn/QjoMl9WdPfRU+Yr1zan0KrvlJw3HBNxx8WtfpwKIBGgyRaMx6Ztv0L44URNMiZAE4ueJT1XIgIrn6eRbUCuiL9pAiDbr7W11fbjUioJ0ODNJ/3J9kOX+XK6u0+mf5/ehENGOW8GZAu2uXCTqWcqvy1ICkFPF+LTsUrxTEaDUZqgpKjIirbiEA+RjZ56GET0emo5aCYAsv1WrVq13qnBoZJArodRqt190oOB6U04ZJbzxgkyIf61IQi95rGp3IRLCiHT9iuEp89Xib7YzJdIWag08ehdoLcHeoglPc1X07zS+otk+1kd+MsGuhla3Wig0yDP5Wk+fhjd3ccL7e4ztzImbkmcVVZp/U0pifxoZadnoE5wVRrKKOfN4NrqSNIW/FMIQ7z9kYTo8MVErPLiYBgpgyMGcgYmEhXiwbFasalxPK9sJxWmVqM2m4+hdbzQGCkU9JtBGFouTrbf9ddf/4adk55uJluSD7FrQ8PFyYfk91/7yiHsl+haAU353TonmKyNZwREgMTs9GNFco9sOBRxiU+fwdXo81ZWiMv8Fy8a/cFowch/PjzeNCau8Go7z0CLlpqubrTPRSGiV4/36oUmQdrZ2flzO148rXBnzpxJTv5cAZBsDPedfdiMv8a6AHTyX5ksimls8tOzoBdLKoDu3aqOyTJhmScGtQVJ5ofT7DSvBtuvEB4c014zgBQrvUNSBbRtM7I9yGcHGp38mgiAbL/Fixe3WPWyidkoWk1BFNrrFuoHmJkn/8fBCfFq/xj0Ow23LYZe74EW496x+uLViU+SkkjBbj/abnyjIQi1BSnLT7UF902Zv25P1C12TOlXYzS+6Z2Ojo7qeoe57EB1gTCKSg1feLUVEp8mPE18egi0tzd6+OG/DmMz/hrB3X1W+6PJgphGQEE/9bmkp4WWgxqggODqGqwt2BuKiUQsqtn2KwSyBY2CtgNqTgHNhUKqIJsapq2F2ZRv2w48q/t6umG6eRrYRic9EUeyGi8YvtZ2EZjXIbqqcaW5FngThp9X+vMhSy9zkKhqoFRjAy3D/UKcmoBdr7++SfS1zJXqHtV5QKqAiKCpqSlrnIB+h95/+higf2M5AShf6gXlj48Z/QDa1w8ODk5LezONPqZlS9pquPaSWWLnEMB/dblFRes8MaAo7iblGbtAfsdfIl4xEA+KWZX6Vh0Kdmp5VunJUahjxDKAHJ3H31EIALRa0/utWrhEjAMd0puqsdswdXugknpmJijt9dUxQQupkQWUVAMpS7o+bb81uQBvvfXWsJ5z/+q+3swqrweff+uIaRJo7FwkhusulPnq8lWIRh/ue3/UFxa312r/fvROsp0DIFKor6/PGy8gJYDqqOwkfvDOQPIHBf+8BWKiqQ12vbmuuPjlrGFLnwFNVhoH9M7pnRLJ01agUNAvc5Kri282J0GTC3Do0KEbtQxaNRtNzdazq8b5PZeafLHKnl+d/ISjoQRsn0h4I+QVB3UUmSTyLKR8cqkBUlzFHhvonYpAJz+932jTHOh3/HrA+tLdmSnHRO5q0E9N9aa/pzlHv0M/RBhqngjNQVIRNPFz2YiaCOCLX/zim3v37t2VbdLTYRSyNuiL0QDMVpfPCqRHRZfXV4vV843HBBovWTrz+hFsUcbnp7Q9F3pRufK/Czkk6bEBWgGKNSPwPw70Q6/XsOASEQS2wPg7b0R8vCps6zOhMUFjXlUFeiZ53u201l/s6+tbrUzyhLqvT/frEft6vciUyKQCAh4DHV79dWLYM3PCvRsR0MzCg1G3+F2ocHARtXqTs1KMaoC2cr85A/zOyvsdqa6Hfsf76ydsfSa0yJKqJgVIq7yZalGGCeC222478fbbb2/W6tdbjcyod50y+dd26U9XCCxcmvP/OxvOXSTCCJ6azN91hgi1UPFOvQdOik0NPHAQbOsuWAS93i01QeiBpUIxALVPRPrqTlsAFAno0kWf+cxn1it7jikZBkq2rcadS1tFmw4LLzCvU4xX5N6bj8RIBWC7zvwymHuC56pxkLlFKFU18NSxc+LwGO4wkK+lVQy7cPaovyIhbvfb072XEoUyx0P6pEeRgO6NUU9Pzz2yDBhiyEzcc5nGgKDLLSJNrQV/7XQ4rvvEWD78bKpKDMRnPnZ6mVo8XTPKS2Y1QNutR945i7sgneJs64R+x68okx/Z3DTXFpDkPk3wzPeUmQ6MIAHdBLB+/fpNx44d65dh0GRLj7xuTp24srlwEYWWhYs0BYbouPhIGBsQpK2AU5BVDTzyzoCYADov/rntIgQM/JHtd0tt0LL7p8WMxjMtArlUXjZ71ywJGHpCx48fXyPDoMlliz2wqsAx3upaMVij3TU4FcbaglReKt0WVHMm9ASFEFsoWdQA2X5PHz+Hu6DXB/X8CVYG/tTj7oXyN3IRgxkSMEQAt99++5t79ux53emBkyvzrb3GK27NExCk1V/3ngysAramVEC+rkZ6tj7FrAa+ubsXer2GrqXQ613jC2s++qsHNGlV+1wLEecbJ0ZJwLBGGhgYWDs6OhoVkoICgtlsweqmFjHo1i/Bz0SxtuDJmEv8KuhLBnv0Am27OqkGyPb70zlgYI1sPy+2rdbX67BJP6TgyM3RW72pULEPIyRgmADuuOOOEz09PVucnui5Vi+yBYkEMgND7vaFxidtEGsLUnJQokr/YLUiw9IpNfDNPdhaDoGFS6DXu90/BbP90lN0EU0/ECRg6lt87nOf+1Jvb++IkwSQzxajvIB0WzAwd15e268QKA1qPIyTgmQLbo8Yq3yDiAM4rQYo3bdvCvc8fbPblPeLI0ey/W6pwTxneqbpJd2MQOu/00MCpmno+PHj9zlJAIXk8AOr5k0HhhD54EdCCagt+HKkRgwm9GcwouIATqkB2k5tPQbs30C23xxsuwqS/mZtPzWLz2yxVr3vWysJmCYAsgWVrcARpwigkBx+f4tfXDunTrR0LBRTAnNKbjCEnXxPhPSnqpqpAqNHDWgpVmEElPGHtP0a53dCbb8l7qjoNnHcV5X7hVSqVhgpOa6FBCBP7NSpU9eq5wScQCF2pHMCemy/QjhN5wSAg/dwzCsOxby6J6ddCovUgNEONdlwaCwotr8L3DlW1150mhOz+hu/XzWLT2+F3rwT1WDMoBAJQAggFRD8nVMEUIgdyRa8swG7ap8NYQ0QIyrAym1AtoGEUgMPgE/7GbF18+FGZeU3YvvROMyVxWcWWtLE8727XNs5mGZas2bNNU7ZglrKYd1aF4GmcdI5geEwzhYcSrjEyxF9jgByVbZLDbx6Zhxq+1U1NhuydXOBAn9f0Znvr2bx0SptVZ8Gs6W/aI5kK0IK9SIOHDjwPScIQIscrlMm/z1N2DPcp0NYW/CFiF9MJip1vVQnYFQNUOAPfdbfM68Ler3P1eo77ac1i8+OMV4I9B0zSQBKAOvWrfs3p23BfLjZHxXLvDiGpurSY0BbcCpRIZ4NB2wdFHaqgaeOn4PafoF5C0zZuplI5vtrtP3UQztas/hkQSYJwLMRjhw5crsTN6Y1ow6tAqh82CRQBrwVrRYn49q9bDvjAGbUAOX7Q20/C8p8aTntp2bx5Tu0YwWQJJNOAnACuO22257bv3//LrsHotaXQR16qFY/EsjkIIIeFaBWZXISWtTAD8Cn/Zo7OsUUuMxXIdvP6iw+J5SAJXfS39+/2m5bUE+fgLsawtCAIJUPm4riAoJkC/4lVqXpd2UajLnUAOX7Q20/f50YqmmCfvevBybzTny18aYTch9ZAiyTBCwZPWQLHjhwYLus7EedetbWYVVAXygGvd6zIW0qILN2vIxq4BFkhV8FlNSFBNl+Sz3RrHIfkcVnFvn6ApqFZcvHZz/72ZvttgX1BKTIFmxzY21BZOEQsgW3h+Wa3EbUwAvKyo+0/ajMF9r2yyzxjc7iQ6zURUcAhH379n3NzgeVrZlGLpAtSFsBJNDlw34drdV0TkDWWn8xbxU26cflFt65HdDvSLZf+nbQiiw+s7CShCwlADonYKctmKuefi6QLXhlFU66U/mw88AiomQLalEBsgalnjkxDA38Bea2Y22/yth0kU8rs/gQaqooCYDQ09Nzo10Pysg5eStsQeQ5AbIFC50TkC0OkIyJTEXEo0ewtt84uMzXNzxnp0tvW5nFZ3rbY2HCl+UEYHf5ML2++HJvHG4LorsKGa0Z4CQePIwN/FF3HyTI9qN8fzM59qUAW7QjlQ+zyxY0kqdOKgBtC45FsLYgKYF8MHJc1CpQ0O+1s0DryoLuPvfWjiRXfT1xI6dg5ZbEFgIgW3Dv3r0/soXRDOyHKSCItgUHQlHsOYFw/nMCMslX9OpvRXefllgwZxdmVgAWgMqHKUrA8q5CuSoFF8KdDWGsLRivgGYIXjgtmNv+crpVm4odfWOiZzwEu54V3X0+X/E3gnKir6WucTQyUhoEQJCpq1A2PNASgl4PXT6MYgFGyofZBQp+PnhI7u4+X66ZEPXui311I5WZbVuhLXZ4bCUAu8qHGfXF6ZwA0hYkDIPLhz0bqpM2DvDoX4ekL/P1adfIjD21LOopG6wOUtpuIPf29q6zOiBoZj+MVgHvgsuHvR3z5bQFnYwDkO33zMlh3AW9PniZr7s8uW1JGQ5VlXQMQAXZglaXDzOzr6NzApQmDN3HwU8LZl+xnKwP8O192EIf6O4+H/PmL/Ml65l+q9WJIylkVncVMts4g+oHIm3Bs9EKaPmwU3F3VlvQioYhWkC235+HgfFdC7r73OkezDvJqRS6jLCamBwhADu6CpmpW0e2ILqI6GmwLfhjRQVkswWtahiSd/XffwZ6PXR3n/XeUUXZFd4eWXXslgkgC6zuKmTW312rbAOw5cOwtuBUjq5CdlcIonz/08AyX/5kmS9sd5/PVmkLjuo9S8IxAJOwsnwYIn8afU7Ajq5CdvraFNz84RFsdx90ma9/8Z4TtUL79svuSst5Sd4GNecoAVD5MKtsQURAjGzBa2uwNsxg0NquQnbGAcjzh5b56rxEBIFDcqUrKG7w6ZvQTsVRsiFbGe+SIgCC012FCqsA7Es4HbW+q5Ad24DD4yHxYt8YkLFrxVAttszXbVX680Go2KfThVZVWF1qXAoCsLKrECLDi2xBeFchi1WAHTIWmvGXWv2R+JR7QqxyGfP2ZTkfYEdehxSVJKzqKoR6gPCuQvEKMRJCnxOohcY/8uG3Zyegth919xny4AJwtRVx8aUq41WSZDkfYEcDWGlKyVjRVUhPpeB8sKKrUF84bllXIasTgqCn/Vxu4ZmHLfK5xjUq5laaW09ksATt6PwkDQEUQ1ch5DkBsvHGQmHo9dL7CVi1j6UqP1DbL1nmCxd4m6NM/FsSZ0z75+ViCUpVTM6K8mHIgpl3gWMBR5X5b1VXISviAJTv//QJbL4/2va72zecDOQh3rsTSVXpsCM9WSoCoHMC6K5CyNNUV/qi4gYfdlAgVQBBVQFWyEfy/KG23/xOqO23yhUSV7unpu/f7OlIO6LwrAAygO4qhJRyVJzhq/WhZHYZCr3RCjFpQVchdByA8v2hth919wHbfndXXaxOzDbudKr7sjrWypIAyBZ86aWXfnD06FHI9VCJHTSQKDpMraOpljwSp4PYcwL5KgcZJoBhrPKh1R+JT3nOi8WVM9WU2WCezMVCEKiQ9Rhkd3c3bQUul/XBvXLrv4upAG4FaxdhMacOU/3Xe/KwaHnmIej9Hl5wuejpeC/kWq76JhFbgDvu6wlPiWu3fkt4QlMyzzU6/LZZsu903C3xA9ug/PxW1i936ZvbxM5P/TPsemeiQjTFE8JbaX7fWd2Db87cMtKPIYBkmS+s7bfkj/8r++S/b8eOHRs5BqADygN7TflD2gajc47uFs1978CuF3V7Rf858xF21+iQqN35Mvx+m0fPJH/Mwt3YLGIeXIJL9fg50bX7NzJP/hOyTn6pCSBNBUiLS9/YBr3egNdv+pxAwy+sq76+suf3JvcmPhFt64J+p1WvbhU8hkuUABTmPE7ySdbvVzf4rph/6A/Qa54xoQJo7+9TfqxCTXBCdPUeMv79Zs3FqhJFgTX39sg8hF9XxvALTADmsEn5kTYUu+LNbckgFAqjVQFxbtKYy9D4iyctv98lJ3cLT9RAQpS/ToSbsQSw8hVe/UueABQGHZH5QVLwiYJQSJwKxXTbgoE3dyj7/0Hr7zcaTpKA06t/1+7fiprxIZmH7hZl7O5iAsCQwGaSU7J+PwpCUTAKhajLIwbGtfvXlQoJ1e58xb777T0o6s5r36q4mmaLMNAyJcW1ZOcvZB6yo8Ww+hcNAaSwUeYvhw5G9Qqv5vJhda/8RFQG7S1ldemRnRpnv1uI1nnYbdcb22S3/TamlCsTAFAFvCYuJFNICQpGIW3BJAkMFw59eM6eEjV73rL/fkfPiDlDpwpL/6ZZIubBpdRaEXgFg2y/TcUyr4pJAagqQNqAIDoodc5TU9AWrHv5J47d74qjfyow+30iPLcTqzze/KnsY3RdMU2ooiKAlC0oLbtSUGrJTmxA8ORI7mOtNXt/b6ntV/B+gxNiyck9uef/nPnQz5tzbE8x2H6vMQFYCyKAE7J+OQoIIm3BoLdaDGSxBSnwF3hjh/P323swqy3oItuvAdfbj57pCnDiVbmv/kVJAMVgC6IHal9wpi1I6b522H4F7zcaVrYCMwOClXM7oJ+zUCFWyW2/76cUKhOADSRA2VXS2oIUpKJgFQpRt0f0p50Pv5Dv/4o893vmyEXnBNwtrSJSHYBdvwjy/SkutbEY51JREkAKcp8TAAer+l0107YgJf3YbfsVwtITqeQgl1skZrVjr/3HX8hu+20oFtuvZAgglWUltS2ItqtOnhtN5vs7YfsVvF9FAdA5AZ+y+iNtPwr8SW777U4lqhUl3KK4QSpgtfJTL+OXW/nq1uTgHWxfjHlZsaho2v+GtC+DYgFVtbUienIv5Ho1Y0OyT37plWghSFsRSCu6u7tp73WvYDDsx3Zl9V9dzDdQWexvIFVs4QSPRQav/mVIACms47HIsBn3FaPtV5IEkMq+ep3HJMMmkOLcVAo3UllCL4VVAMMubCxW269kCSAlx77PY5NhMV4vZtuvlBVAkpmFxKcFGSUzxgQTgJwqYKTUXhBDKmwpttN+5aYARKoYw24eqwwwijbfv6wIIIUNPF4ZYGwqBdsvE0WfCZgL3d3ddGLwJh63DACozFdnKd5YZQm/NFYBDB5L5UoAsncVYhQNpO/uwwSQZ98m2BZk8OpfngQge/kwhvT4fjF092ECyE8CmwWfE2DoR0nafmVHACls5PHM0DtmSiXfPx9K1gbMRHd3NymBtTyuGRpQsrZfuSoAVQVwQJChBevK5UbLhgBk7yrEkAavl1q+PxPA3yB1VyEGr/5MANaqALYFGflwXynm+zMBXEwCUncVYjiG0XLcIlaW6ctmFcCYMSbKwfbLRNnYgJlgW5CRBurus7Icb7yyjF/6BsG2IKPMFWHZEgCXD2OksL2cbD8mgItJgG3B8saoKPN4UCWPAe4nUMbYVG62HxPATBVA8o9twfJDyXT3YQJgFcDQj43laPsxAWRXASQDuatQ+aCkuvswAYBWBMG2YDm9awYTwEUqgOTgNRwPKPl9/83lbPtlomwzARkMBhMAg8EEwGAwmAAYDAYTAIPBYAJgMBhMAAwGgwmAwWAwATAYDCYABoPBBMBgMJgAGAwGEwCDwWACYDAYTAAMBoMJgMFgMAEwGAwmAAaDwQTAYDCYABgMBhMAg8FgAmAwGEwADAaDCYDBYNiA/xdgAI48f6T4c9ZhAAAAAElFTkSuQmCC;labelPosition=center;align=center;" vertex="1" parent="1">
          <mxGeometry x="204" y="1122" width="78" height="78" as="geometry" />
        </mxCell>
        <mxCell id="sMOUUsySO7USkykY8Pia-63" style="edgeStyle=orthogonalEdgeStyle;rounded=0;orthogonalLoop=1;jettySize=auto;html=1;strokeWidth=2;" edge="1" parent="1" source="sMOUUsySO7USkykY8Pia-26" target="sMOUUsySO7USkykY8Pia-148">
          <mxGeometry relative="1" as="geometry">
            <Array as="points">
              <mxPoint x="110" y="1000" />
              <mxPoint x="110" y="616" />
            </Array>
          </mxGeometry>
        </mxCell>
        <mxCell id="sMOUUsySO7USkykY8Pia-70" style="edgeStyle=orthogonalEdgeStyle;rounded=0;orthogonalLoop=1;jettySize=auto;html=1;entryX=0.995;entryY=0.63;entryDx=0;entryDy=0;entryPerimeter=0;startArrow=classic;startFill=1;exitX=0;exitY=0.25;exitDx=0;exitDy=0;strokeWidth=2;fillColor=#0050ef;strokeColor=#001DBC;" edge="1" parent="1" source="sMOUUsySO7USkykY8Pia-62" target="sMOUUsySO7USkykY8Pia-21">
          <mxGeometry relative="1" as="geometry" />
        </mxCell>
        <mxCell id="sMOUUsySO7USkykY8Pia-71" style="edgeStyle=orthogonalEdgeStyle;rounded=0;orthogonalLoop=1;jettySize=auto;html=1;startArrow=classic;startFill=1;strokeWidth=2;fillColor=#0050ef;strokeColor=#001DBC;" edge="1" parent="1" source="sMOUUsySO7USkykY8Pia-26" target="sMOUUsySO7USkykY8Pia-62">
          <mxGeometry relative="1" as="geometry">
            <mxPoint x="200" y="1161" as="targetPoint" />
            <Array as="points">
              <mxPoint x="112" y="1060" />
              <mxPoint x="112" y="1160" />
            </Array>
          </mxGeometry>
        </mxCell>
        <mxCell id="sMOUUsySO7USkykY8Pia-89" value="&lt;span style=&quot;color: rgba(0, 0, 0, 0); font-family: monospace; font-size: 0px; text-align: start; background-color: rgb(251, 251, 251);&quot;&gt;%3CmxGraphModel%3E%3Croot%3E%3CmxCell%20id%3D%220%22%2F%3E%3CmxCell%20id%3D%221%22%20parent%3D%220%22%2F%3E%3CmxCell%20id%3D%222%22%20value%3D%22Auth%22%20style%3D%22edgeLabel%3Bhtml%3D1%3Balign%3Dcenter%3BverticalAlign%3Dmiddle%3Bresizable%3D0%3Bpoints%3D%5B%5D%3B%22%20vertex%3D%221%22%20connectable%3D%220%22%20parent%3D%221%22%3E%3CmxGeometry%20x%3D%22136.20689655172396%22%20y%3D%221010.3103469881603%22%20as%3D%22geometry%22%2F%3E%3C%2FmxCell%3E%3C%2Froot%3E%3C%2FmxGraphModel%&lt;/span&gt;" style="edgeLabel;html=1;align=center;verticalAlign=middle;resizable=0;points=[];" vertex="1" connectable="0" parent="sMOUUsySO7USkykY8Pia-71">
          <mxGeometry x="0.0854" relative="1" as="geometry">
            <mxPoint as="offset" />
          </mxGeometry>
        </mxCell>
        <mxCell id="sMOUUsySO7USkykY8Pia-82" style="edgeStyle=orthogonalEdgeStyle;rounded=0;orthogonalLoop=1;jettySize=auto;html=1;fillColor=#6a00ff;strokeColor=#3700CC;strokeWidth=2;" edge="1" parent="1" source="sMOUUsySO7USkykY8Pia-26" target="sMOUUsySO7USkykY8Pia-16">
          <mxGeometry relative="1" as="geometry">
            <Array as="points">
              <mxPoint x="197" y="1050" />
              <mxPoint x="197" y="1091" />
            </Array>
          </mxGeometry>
        </mxCell>
        <mxCell id="sMOUUsySO7USkykY8Pia-94" value="Get Gif" style="edgeLabel;html=1;align=center;verticalAlign=middle;resizable=0;points=[];labelBackgroundColor=none;" vertex="1" connectable="0" parent="sMOUUsySO7USkykY8Pia-82">
          <mxGeometry x="-0.0604" relative="1" as="geometry">
            <mxPoint x="29" y="21" as="offset" />
          </mxGeometry>
        </mxCell>
        <mxCell id="sMOUUsySO7USkykY8Pia-88" style="edgeStyle=orthogonalEdgeStyle;rounded=0;orthogonalLoop=1;jettySize=auto;html=1;startArrow=classic;startFill=1;fillColor=#6a00ff;strokeColor=#3700CC;strokeWidth=2;" edge="1" parent="1" source="sMOUUsySO7USkykY8Pia-21">
          <mxGeometry relative="1" as="geometry">
            <mxPoint x="24" y="980" as="targetPoint" />
          </mxGeometry>
        </mxCell>
        <mxCell id="sMOUUsySO7USkykY8Pia-96" value="ECR" style="sketch=0;points=[[0,0,0],[0.25,0,0],[0.5,0,0],[0.75,0,0],[1,0,0],[0,1,0],[0.25,1,0],[0.5,1,0],[0.75,1,0],[1,1,0],[0,0.25,0],[0,0.5,0],[0,0.75,0],[1,0.25,0],[1,0.5,0],[1,0.75,0]];outlineConnect=0;fontColor=#232F3E;fillColor=#ED7100;strokeColor=#ffffff;dashed=0;verticalLabelPosition=bottom;verticalAlign=top;align=center;html=1;fontSize=12;fontStyle=0;aspect=fixed;shape=mxgraph.aws4.resourceIcon;resIcon=mxgraph.aws4.ecr;spacing=-4;" vertex="1" parent="1">
          <mxGeometry x="226" y="843" width="18" height="18" as="geometry" />
        </mxCell>
        <mxCell id="sMOUUsySO7USkykY8Pia-97" value="&lt;div&gt;Forgate&lt;/div&gt;" style="sketch=0;points=[[0,0,0],[0.25,0,0],[0.5,0,0],[0.75,0,0],[1,0,0],[0,1,0],[0.25,1,0],[0.5,1,0],[0.75,1,0],[1,1,0],[0,0.25,0],[0,0.5,0],[0,0.75,0],[1,0.25,0],[1,0.5,0],[1,0.75,0]];outlineConnect=0;fontColor=#232F3E;fillColor=#ED7100;strokeColor=#ffffff;dashed=0;verticalLabelPosition=bottom;verticalAlign=top;align=center;html=1;fontSize=12;fontStyle=0;aspect=fixed;shape=mxgraph.aws4.resourceIcon;resIcon=mxgraph.aws4.fargate;spacing=-4;" vertex="1" parent="1">
          <mxGeometry x="264" y="843" width="18" height="18" as="geometry" />
        </mxCell>
        <mxCell id="sMOUUsySO7USkykY8Pia-103" value="" style="outlineConnect=0;dashed=0;verticalLabelPosition=bottom;verticalAlign=top;align=center;html=1;shape=mxgraph.aws3.cloud_2;fillColor=#F58534;gradientColor=none;" vertex="1" parent="1">
          <mxGeometry x="916" y="350" width="54" height="50" as="geometry" />
        </mxCell>
        <mxCell id="sMOUUsySO7USkykY8Pia-104" value="Terraform" style="shape=image;verticalLabelPosition=bottom;labelBackgroundColor=default;verticalAlign=top;aspect=fixed;imageAspect=0;image=data:image/png,iVBORw0KGgoAAAANSUhEUgAAAcQAAAIACAYAAAAczhwgAAAABGdBTUEAALGPC/xhBQAAACBjSFJNAAB6JgAAgIQAAPoAAACA6AAAdTAAAOpgAAA6mAAAF3CculE8AAAAB3RJTUUH5godDyckCZDUVQAAAAZiS0dEAAAAAAAA+UO7fwAAMyxJREFUeNrtnQmUXFWBv9OdpLOSBEjYAwFCqOoIFFuoevcqMKigghsgo4K++1pHGVREh2H+LG4oDG6A44oo4N+xqgIYR0BRFMQdRAZkFZHFd19V9mJLIGTh/3tJdf5xQ0g6le6+33fOd/ocz4zd6a53P++77943IrHpRxKbnR0fvHB7Z/zIEQAAACGiIH4isX6Ns+kjCuJJcnJs01H8ZgAAIMQgPtf2GQXxR4rjUfrPt47LTWaMAAAQZBD7bek/v8SZ7KDENCbFpVY3vykAAAgxiLkrnfX3JiY7w1UaszVznMBvCwAAQgxiv8sVw58ojrHcNY58D781AAAIMYj9LlIQL0+Mf00SZdtzGxUAAEINYr9/VBTPcyZ7aWKzyfwGAQAg1CDmrpC3yg9qtrhvX6Uxlt8kAACEGMR+n9Rs8Rp97dOMcRe2aQAAQKhB7Lchv6I4vtYdMn9KXGp18ZsFAIAQg9jvnc74C2KbHsppNwAAEHIQ164vOut/pjCerSjuxW8YAABCDWK/T8jv6L/fxeXm1vymAQAg1CD2+5D8RmKzV8alFk+jAgBAsEFcewyc/K2z6eec8fvzWwcAgFCDmLtm7TYN63+qKP5HbNMZ/PYBACDEIPa7Si6Q1ybGnxCXm5x2AwAAQQZxw9Nu/uisvywxjcPiUmsMfw0AAAgxiP23UZfJe12Ufbyv0tidvwgAAIQYxH5Xt7dp/Eozxr448tvwlwEAgBCDuOH6Yh7G7yeVxuFxqTWavxAAAIQYxPVhdDZdrNni1xKbcdoNAAAEG8T1a4zO+KZ8b2zTqS7KuuNykz8aAAAEF8T1urUHh2evURSnuDkLuuNSiz8eAACEF8T1Gj/XVRoHx8ZP0qyRPyAAAAQaxLWzxfRJ+Wln/B6K4jj+igAAEGQQ14fR+PsURqd/w25xuckTqQAAEGYQ///B4en3ncmOSWy2Y1xqjeSvCgAAIQZxg/cvZv/louwIzRyn8pcFAIBQg7j2xBtn04ed9WfL/WObbsVfGAAAQgxiv08piDfKUxLjC3G5ycHhAAAQZBD7XaQgfssZ/8+JzXbmrw0AAKEGsf981AflRUmUHdFXaUzhrw4AACEGsd+nNVu8RV/P0YzxoDjy7F8EAIAgg9hvS/5AcTw1qTT2iEutbj4FAAAQYhD7zZz134pt+ibJbVQAAIIYbBDbm/r9Pc74LyuKVvI0KgAAQQzap+WvNWM8P44ae8blJrdRAQAIYtDm64s/SYw/xR20aAqvmAIAIIih651Nr3PGv4JPCAAAQQzdfP/i79vriy/hkwIAQBBD9yl5l35P58Tl5jQ+MQAABDFk18ilzqY3JjY7IS61xvPJAQAgiM8Fvk1jvjN+rjR8egAACCJhtP5RZ/0FsU334lMEAEAQQ3e1vDeJsiQ+aPHExGZdfKIAAAhiyK7QbPEmBfFViuO4vkqDjf0AAAQxaB9LTHaponigM358HHnCCABAEIP2Yc0Yz1IU904qjTFxqcWtVAAAghi0P3VR9s+x8dNjm47i0wYAQBCD1dl0uaxptvhKRXGq5DYqAABBDDiMxi921p8nTVxpTIzLTT58AAAEMeQZo78/Mdn7Epv1xvsvHc0nEACAIIbuPM0aT5S78SkEACCIoa8vPqGvX1YUXx3blIPDAQAIYtin3TjrH9DX8xLjo7jcnMCnEgCAIIbs0/JGxfG0xGT7xKUW64sAAAQx6LNRF8qrXZT1sb4IAEAQeZuG9Q/LSzVjfHUc+cl8UgEACGLILpe3y08mUTaH26gAAASRQ8PXrS/+e2KzmXxqAQAIYujri015jWaLJ/VVGlP59AIAEMSQfVY+JL/hTGbjcrOHTzEAAEEM2WXy3sT48125uWdcanFoOAAAQQzalrPpbbFN3ycn8YkGACCIoa8vLnbGX68ovpx3LwIAEETWF61fpL/pFXGlsTufbgAAghi6K+TSxGanxaUWt1EBAAgiM0Zn0wed8W901nfFNuUDDwBAEIP2GQXx2wqiTYzvicvNLj75AAAEMWSXKIifclG2d2IaY+NSizACABDEYF3lbHpPYrJTXbm5W1+lwcZ+AACCGPbB4c74HyiMr3PWbxdHnq0aAEAQiUPQLlIQv6o4HpZE2TbcRgUAgoih+2Bi/DnOZAckNtuKKwMACCKGvn/xV/JkzRhnxjZlfREACCIG7RPO+m/J4zRj3DEuNzk4HAAIIgatlxcmxr/CHTJ/MuuLAEAQMXR/69auL/oDJE+jAgBBxLBPu5HX6vNyZMLbNACAICKmn5XjuHIAgCAiQSSIAEAQEQkiABBERIIIAAQRkSACAEFEJIgAQBARCSIAEEREgggABBGRIAIAQUQc4CAmxh/kjH+znMGVBwCDBVOoH22K1QsIInYuiDZ9uf47blYQ75Tvim26DZciAGwpbKG6vy3WrrC9tcW2WL2JIGKng3iLXLPu3YvpTQrjEXG5OYZLEwA6RWnGvImmt3a2QtiUK+VzCuLPCCJuiSBu+N+pOGaXufL82e6Q+T0KJFcrAAw4lWK92xRrY2xv3SmA96wPYb8EEQdBENeqEDbl2c76HWKb9kiuYADYZKLZc7ttsTY+KtYPVxC/r/g9/WchJIg42IK4PozW3+Zs+rbE+KlxuclrpgBgY2+LdkWF+njTWy8piJ9X9Bb9zRASRBysQVyv8d92UXZoYjMevAGAF4UCOFYx3EMzwve0b48+9w8liDhog7h2tpguURA/64wv9lUaW3GZA8DzhrBQHa0I7qQgvkmR+7Fc8YJiSBBxsAex7WoF8f7EZO911u8dR55DAQDgzygXqvkDM9sqhEfIrytwj7/gEBJEHEJB7PdpBfEGxfGtifG7x6XWSIYBgLDJ1wnLe185UUE7SCH8iL4+8KJDSBBxCAax36UK4uUK45GxTbdjSAAIE1Ooj5a9plg/RUH7yUaHkCDiEA5i7ipn099rxvgJhbGiMLK+CBAItlDtVrymm97aP2tWeOXf3UZBEDGQIPb7jKL4c/l+hXGfuNzsYbgAGL6UC9XJCuErFbAvtU+ZeW7AJIg4xIPYb0t+JzH+7UmU7cb6IsDwojRjXn7CzCGK4YcVr9sHNIQEEYdZEPt9RDPFS+XRcgrDCMDQp1Ks7xEV6qcqWj8csNujBBEDCGLuSvlbBfE8WY55dyPAkCSaPXeqLdberFnhNxWshXLNZoshQcRhGsR+H5c36Xue4aJsZlxuchsVYIjcHlUEj2yvE/7+rw7hJohIEDfa+c6mV+vrie6QBdvGpVYXQw7A4MT21g9SnM6Vt27W26MEEQMNYv9t1Adce/+iZLYIMJhCWKjuaIq1U9rHrS3d7LdHCSIGHMT1p93I3znrL4ht+hKGIYAtS7lQnWCLtWMVpHw/YSpXdTyEBBEDDeKG2zR+kxj/vrjUmsCwBNDxdcLRUaFeVoi+LP8gn9liISSIGHgQc9fIprPptYnNjmOIAugMplCfrlnhWYrQnfLJLR5CgogEcb3Pyked8Vf0VRoHMlwBbLZ1wimmWDvJrDt3dIlcPWhiSBCRIP7ZbDFfX7zfWX9uHPnpDF8AA7ZO2KMQWs0K57XfWr9yUIWQICJB/LthXCZvTaLszXGpxaZ+gI1fJ+wuz7pyd9tb/0x7RvjsoAwhQUSC+PwvJc439jubXhPb1DK0AbzodcJx8hTNDB94UW+tJ4hIEAf1jLHljP+CwjjTmWxkXG4y2gH87RnhCAWwxxaqR9ti7eeDbo2QICJBHNCDw09zUWOHJGqOikstRkCANra3PnbOXlfuanpr/z2kIkgQkSBukjckpnGMqzSmcuINhE6lWB+jWeF2CuLH2g/MPEcQkSCGE8TnnE2XO+svy9+mISfHNu1maISQiGbPHW2LtR2iYv1EBfGuLXrCDEFEgjgIwmh8qjB+VP+u/VyUTYjLTQ4Oh+G+TtgdFWtTTW/9KAXxuwrJ8iEfQoKIBHFAfye3K459ic1muoMX9bC+CMNynbBYmxIV6nM0I/yUArJg2ISQICJBHPDbqPn+xatc1Hi94riLZASF4RHCQnWcIjhbQfw3hePuYXF7lCAiQezIbdRF+voFZ72JIz+J4RSGKuVCdbRCuKdC+HZ5Q8ffT0gQkSAOlxmjvysx/nR5YFxqjWZ4haG1Tjh3O9Nby/cTfkOxWDysQ0gQkSB26MXExv9Qs8Y4sVmBoRYGO6ZQ38oU64fa3vr5isQ9QYSQICJB7OhpN4vltxTGY/sqjR0ZdmEQrhPm+wn306wwXyf8+aA/d5QgIkEc0q7SbPGP8iJn/RFxuTmeYRgGwTrhyKhYm64QOkUh30axNLgQEkQkiFvM5fLXCuOZSZSVWF+ELbRO2HXIrKum2N766xSDr8o/BhtCgogEcYu7RF7rbHpKbNMZDNHQwXXCkfKlpljLX8t0R5C3RwkiEsRBeBvV+j8566vO+OMVxq0ZrmFzEs2eO90Wa2e01wmfIoQEEQniYPNZea9+PxcnxlficnMMQzcM8C3Scaa3Fmvgv3ZYnjJDEJEgDjsfl79JbHZmUmnuGZdavE0DNv0J0t76qzXgX95eJ1xD/AgiEsSh5AJn/U35+ahyCkM6bFQIC9WZplj7dPu4taeJHkFEgjiU1xdTBfHq2KZHyrEM8fBCKBeqW9ti7QPtdcLHmRUSRCSIw8Vn5COJ8Re6SmNWXG7y7kX4e+uEY6NC7fUa3L/fflnvKkJHEJEgDkefdDa9O7HZv8UHLuFpVPjz26PF2hwN6vm5oynbKAgiEsQQXC2fcMbfIt9ABsAWqruY3to5GtDvl89we5QgIkEMMYyP5/sX48jvTRaCXCecaIq1t2ggv7X9wAwhJIhIEIMP49LE+PPiA5dMTmzWRSqGL6ZQH3HgHlePiQpzIw3g35ErCSFBRIKIf/FEqrPpAwriu53x4/sqDfYvDq/bol02f1lvoT5Ls8KL5GICRhCRIOI/eCJVQfxxX5Qd6azfiidSh/xt0RFRsTbaFmv5cWunynsJF0FEgogv8uBwBfGLLsr2SaJsYlxqcSt1qM0Ke+vdpre+vWaDrzO9tRsJFkFEgoib5gOJ8R9UGGfFG/k3g85SKdZzpyiEByiK3+AAboKIBBEHzhXOpj/VjPGtzvhdFMYesjM4iWbPHW+Ltd6oWDtbQZxPpAgiEkTcPC5WFC9XHF+lMG4Xl5s8eDNIKM2YN0oB3MP01p2CeBtxIohIELEz/lGen9is4irzJ7G+uIXXCou1nU2xfrSC+C0NyisIE0FEgoid9xeaKX5A7ie5jdr5rRT5OuFhCuJFGozns5+QICJBxC1/cPj/OOvfHNt0huQ26ubfSjF27bmjxdp/yLvbm+uJEUFEgoiDxEcVxUsT4492lcbWcblJuTbLOmF9Tw2877TrtlEsI0IEEQkiQRy83umMPy+x2UvjUmsMGRsYTCHfT1g/QYPuFbJJfAgiEkSCOHRuo97souz0vkpjL3K2SeuEk0xv7eXywvbbKHg/IUFEgkgQh+JpN4nxc531b48jvx15e1HrhD2mWNvfFmsf1UD7a26PEkQkiARxeLxNI9+m8bV8fZHbqP9wnXBkpTB3Nw2u75bfk0sIDUFEgkgQh9lpN/J2zRY/me9fJH1/c51wkjxOM8OqBteHeXqUICJBJIjD1zXyMfmzfP9ibNOdyeDa49ZGm976QbZY+y8Nqve131pPXAgiEkSCGMK7F2Vz/f7FcnNioLdHu+bMunIH01v7sAbT/Li1x4kKQUSCSBDDvY36sPx6EmU2LrWCOe3G9tZHyXe19xMuIiYEEQkiQcTcZfIeZ9MLYpsO+20alWL9paZYu7a9n5BtFAQRCSJBxL9aX3zcGf9L+Q6FcZthuJViB1usfUED5yPyWQJCEBEJIv6j9cWW/s7XKYz/FJebQ36bRmnGvAmaEb6nvbF+OeEY5kHsi7K3ciEjQcQBdGU+Y0xs9nlXnr9XXGoNyUPDNSM8RgPlL+QTvI0ilBlipTHKRdmBzqQ3tG99cEEjQcQBCaOz6SLNFk+Xk2KbjsgdxLdF8wjmR671mt7a5e2N9auJRUBB7Ecf1DH68B6bGH+nPsjPcjEjQcSB0ll/q8aY4xXGCXG52T3IbouOMMW5IyvF6s7t49YaBCLwIK4ftIyfJs/V4OXbj1ZzQSNBxIHR+KvyO1KJzcYPkhNmRpVnXbmdKdZP1KB4B2EgiH9Ffs/flRv76n/NfV0f4oXMGJEg4sDNFtOWgvifGl927qs0xm2R9cFCdaRmg5MVwiM0GObbKFYQBYL4vB+auNwcpw/ta/Qh/qFc3H6KjIuaIBJE3OSDwzW23N8XZYmzfpc48j0dWifsjoq1rdpvrf+sBsKUGOALCmI/+l9xOyVR9gF9iG9d9/QYD98QRIKIA/P+RQXxesXxtYnxO8al1mZbX7S99TGmt5Y/MPN+DYB3EgHcqCBuMKDtu25A9HfJ5VzMBJEg4gDZUhAvcVFmBnpjf6VYHxUV67to0DtO/kA+TQBwk4PYXl/s0Yf2FfoAf0M+xIM3BJEg4kBt7Hc2vV8zxrM0Y9xPYZywiW+i6Da99am2WHulKda+qkGvxcCPAxrE9WGM/Lb68L5NH+Jr5IJk3ctEuagJIkHEgbiNenP+Ng3NGqduVAzXrhVWixrozpUPMuDjZg3i+kEu8kV5lj7EN7O+SBAJIg6gv1AQD92o7RTF6lh5NgM9djSI7duoYzTYWflJfYjvbh/dxAVNEAkiboq35J+ZjXuApjpOfpaBHjsexA22aUxyJj1OH+TLZcZskSASRCSIGGQQNzgGbnpifJ/8dr4ewIVNEAkiEkQMMogbrC/OVhTPbK8vcoETRIKIBBHDDGJcao1wBy4et2590efri49ykRNEfodIEDG4IG6wttgVR9nUtW/TsP5r7adRueAJIiJBxLCCuMHa4ihFcffEeKcP+w9YXySIiAQRgwziBq+YGiv3k6frQ38PFz5BRCSIGGQQ2+uLXa7SmOKMP9RZf3F7mwaDAEFEJIgYVhA3OAJulDPp9potHi2v1kXwFAMBQUQkiBhcEDd4xVRPEmU76QJI5G8SXkpMEJEgEkQMMYgbDJrjXJQVnfEf1QXxJwYFgogEkSBikEFsb9PoVhDHO5tGMn/N1GMMDgQRCSJBxOCCuME2jW4FcUwS+dfpwvhd/r40BgmCiASRIGJwQdzgCLiueP+lW+niOFkXSYMwEkQkiAQRgwziX9xO3dGZ9Au6WBbzmimCiASRIGKwQdzgdurBifHf00XTkqsZPAgiEkSCiEEGsX3iTbd8py6aO3jwhiAiQSSIGGwQ+0+8iQ9euL2L1m7TuF8uYyAhiEgQCSIGF8QN1hZHuijb19n0Cl1ID7GxnyAiQWSgxyCDuMGJN1v1RdlxifHX8EQqQUSCiBhsEDcYfPNj4D6gi+rHcgmDC0FEgogYZBDb64sjXaWxjzP+fF1ct3FwOEFEgogYZBA3eKPGRLduMP6K/APriwQRCSJikEHc4MSbneXbE+Pntt+/yP5FgogEETG8ILZvo45SEHt1oZ2qC+5GbqMSRCSIiEEGcYNtGuOcSa2z/hO68O7iNipBRIKIBDFoYptuqxnjq+XndQHOl2sYiAgiEkQkiMGSRH66oniiLsKqfIbBiCAiQUSCGO5ssdQarQtw78Rk73LrzkdltkgQkSAiQQw4jPn6ok3LzvpzNGtcxMBEEJEgIkEMfX1xGwXxn3RhXq4LczkDFEFEgogEMdy1xXWvmNo1ibJjnfE/Y5AiiEgQkSCGvLY4wh0yf4yCWJCnOZv+niASRCSISBDDDWPku5xJJ2jGWEpMdqG+LiWIBBEJIhLEYOmrNLqTKNtKF+th8lpduE8TRIKIBBEJYrjrizbNX0q8nTM+1sV7B0EkiEgQkSCGvEVjhKLYHdt0d2fTj+oifnh4HxpOEJEgIkGEF3bizf66iPO3abTkKoJIEJEgIkEM+anUsYnxr9UFfbN8YnjNGAkiEkQkiPDib6du40z6wfb64lPD4yg4gogEEQkibGwY156P6i/WBf6AXEEQGeyRICJBDHt90fijdIF/Rxf6n4bubJEgIkFEgggDs7443kXe6WK/SS4liIgEEQli6OuL05xNz9NFf5tcThARCSISxGDJT7yRJjH+K7r475crCSIiQUSCGO7aogIj36wB4L/b64sEEZEgIkEMdm2xy5WbOzrj36OB4HtyMUFEgkgQkSCGG8bI9ziT7uts+qF2PJYTRCSIBBEJYri3USM/WR7Z3r943+BZXySISBCRIELnb6OOTKJsZw0Kb1IY8/XFhQQRCSJBRIIY8haNHmd8wdn0FA0SP24fA0cQkSASRCSIgYbRphM1UzxInqnB4u4t8zYNgogEEQkiDJ71xW3kERowFCffJIhIEAkiEsSw1xeN3ykx2TFu3TaN5QQRCSJBRIIY8vriaGfTmTJWIDtwG5UgIkFEggiDe31xvIKYv2bqIxpEFhFEJIgEEQli2OuLxk92lUbJGT+XICJBZKBHghj6+mK3gri1PMbZ9DaCiAQRkSCGG8XI547SjHFqX5S9V1+bBBEJIiJBDJa+SmOEgjhSA0t+4s2X5RMaaNYQRCSIiAQx5CdSe1yUWWf8dzXYPC1XE0QkiIgEMeQnUrfOt2nIX7b3L64hiEgQkSBCuE+kRn7XxKTnaeB56IVv7CeISBCRIMLwfCJ1dBJlczT4XCYzuYIgIkFEggghry9OdMYfp0HoOrng779/kSAiQUSCCGGsL+6cGP9+DUY/l4//9foiQUSCiAQRQlpfNP5ADUYXalC6o/1EKkFEgogEEYJdXxzjIn+UBqbL5cPrDg4niEgQkSBCuOuLk51N36EB6ruJSc+WYwkiEkQkiBAsfZXG3knk58hRBBEJIhJEgI1dlySISBCRIAIQRCSISBABCCISRCSIAAQRCSISRACCiAQRCSIAQUSCiAQRgCAiQUSCCEAQkSAiQQT4e0E0/mXtQ8MZ7JEg4qDSFKtzGaWhk0Ec76w/VF/ntt+kwaCPBBG3dAjny3PlrozS0FFim45WELeVx2uwu23dgeEM/kgQsdO3SGvL9Bm5vLJ3fU6lUJsUFaoM0LCFZouRH+0Omb+Ti/yZGvjmM/gjQcSOzQp7a7+OirWjNSvces5eV3aXZsxjUIYtPFsstUa4PIyVxu7OplUNgMuJABJE3IwhfMQUa6faYnV7BXFkmVkhDOLbqQcnxv+q/ULiNQSBIBJEHABX2WJtqUL42ajAOiEMvYdvYg2ED2pAfIYoEESCiBvpavmknBsVauXSjHmjGV1haM4WD1gyxRn/OQ2KTcJIEAkibkQIbzHFalwuVCcyosLQj2Lku2PjD3I2zbdpNORKIkEQCSL+HdfIZfJehfCjtlDdhVEUhh19lca4vig7LjH+xxokF8nVxIIgEkTcwBXyQVusfc0Ua3MYNWH4ry3adJr8D3mrBsvHCAZBJIg8MCOb8rtRsfba0ox5YxkpIZzbqOVmj4uyA5zxF2rAvFcuIxwEkSAGeXv0MXmTLVZPi2bP3ZHREcINo00nO5serUHzcvmQfJaAEESCGIRPy9tNsXp+pVifzWgI0H8bNfI7yXckxn9XA+hCIkIQCeKw9gFbrH1Jf9sjGf0A/tZssdQapSDO1gB6lvylfJKYEESCOKzM1wmv0azwxNKMeeMY9QD+8frieGfSQ531n9FgerdcQVQIIg5p8/2EN9pi9f22UJ1lOWoN4EWvL07VjPEN8qsaVDO2aRBEHJLbKG4zxdonokI1kqMY2QA2bX1xN0XxnfIankYliDhkfFQh/KL+fq8+ZNbcKaUZ87oYzWA4BmpXZ/w+msFN6uD64mgX+f0VxQ9qgL2d9y8SRBy0LpVXmd7a26NibXq5UB3JqAnDN4gmfZkGuUuc9Rc6k83J9xR2dH3Rpofre5+rODaJDUHEQeOztli7WSF8j2aGs22hOobREoZ/EDW4rRvk/BPrngbNTnOV+btqFtfd4fXFV+n7X6Wfh/cvEkTcwtso1q0T1ioRh3BDoEHsH/C8ZmzXO+PfIid2+GfZOzFZ/n1/TngIInbcxbZYvUwxPLJSqG9XmjGvmxESQg/ic+01vYcUpm9q9nao7Mg7yzQrHREfvHCMvm9Jnu5s+nsCRBBx858yY4rVHyqGb9LXXcs8PQoE8W8Ofvntywf0f3OxqzRmxOVmR54siyPfFRs/OTG+rBnjRfq6hBARRNwsb62/RzPC9ymEe9pClUO4gSA+TxD7fUKztd8mNjtZs7iO3UbtqzRGJpXG9kmUvU4/5zXyaYJEEHFAXKIIXlzZu76PgrgVIyHACw/ic+2N9Euc8T+Sr+7Uz5ffRtXstEffczf5Dv0MvyVKBBE34RDuYvV/TG/9MAWR/YQAGxnEflfKBc76r8U2LXUsjOVml4uyMZqpFuXH9TM8SpwIIr5gVyuA90TF+vEK4uRo9lz2EwIMQBA3DKNPjP8/msVN6FgYbdqlIPYkkT8kMem3ORuVIOI/sFhr6ff+YQVxQqVY54EZgM0QxH6fVaDuTGx2ojN+dF+l0ZFbMEn+4M0BS8YryMe036aRB3oNwSKIuG5GmG+uVwS/USlU99TvnVujAB0I4vonUhXEa/ui7GXO+nGdeiK1fTt1G2fSD+hnuL89YySMBDHkEC6zxeoNtlA90nLUGsAWCWK/+frip1yUzUqibFxcanUujDadpRnj5/Uz/CmfuRIvghiYT2lGeGdUqP4rJ8wADI4g9ntXYrKTFcYZClVHz0FUFI/Uv+v7eZx5zRRBDOLJ0d5aqt/tBeW963twwgzA4Ati7gpn0x9qxnisM34HhbFjC/qamY53ke/Tz/Br+Ri3UQnisDyAu7fmTW+tFhVrtswB3ACDOoj9Pq4oflVxPExh3CYuNzt3cHi5OU3f9z/1M/yvfIagEcRhsk64QCG83hRrb7WF6taMZABDJ4j9/j4x/uzEZge48vwJHV5ffIm+9zfzM1rbT6QSN4I4FH3cFmu3KIRnRIXqdEYwgKEbxH5vdCZ7t2aLBTmqg//WkfIkOU8/Q4O4EcQhtk54r2aFF1cK9UNKM+aNZvQCGB5BzM3PJa0riMdr9rZLvuG+Q2uLXW7Ogmn6vh/U979JLiVyBHFQH8DdW3tEfsMWq68vF6oTGLUAhl8Q+20467+QGP/yuNzs2CHDceRHx8bv2z4G7pZ2oAkeQRwsrskP4JbfN8Xqv9hCdQdGK4DhH8R+b9Os7azEZgdrFtfTqX9/X6UxIYmyVyjIX1m7xsn6IkHc8j5ji7VfmGLtLP2+DmCUAggviLnL5PUuyt6jUO3esdliqdWdVBo763dxor5/VWaEjyBuoduj98nPalZ4RGnGvB5GKIBwg/hce7/gfM3YrnDWvymO/LYdC2O5OVoxLuj7nqqf4QbZIoAEsROa3toieaktVt8YzZ67LSMTAEH8y7dp3Cc/v3Z9sYO3UWObTnQ2naPv/aG1J+5Yv4oQEsTN9CaK/OnR66NC7V8qxfpujEgABPF5Dw2Xv9Ks7SP5/sWO/m4iP1Uxfs3aKFufEkOCOMD+Jt9PqN/JgdweBSCIL9T8PNIl+W1MZ/y7NYPr2BN3mpmOVBSnyxP0vfP3Lz5OEAniJvqQZoYXmmL1sEqhOqlcqDIQARDEF+2q9pssaorT6+Nys3MvJi43e5xJ8/XFdyuOvwr4xcQEcRM212tGWLPF6tG2UN1Jcgg3AEHcZPMzSR9I8v2L0dptGh07tSNfX1QQ95Mf1+8uC/DQcIK4cd6kGPZFhdpeUaHKKTMABHHAfUIztv91Nv2wQtXRBxIUxGmK8Us1U/1aYIeGE8QX5wOmt3am6a3uW9m7PqE0Yx5vrgcgiJt1fXGpwnSjfIvCOLljs8VSa6SL/A7OZK9UlH9FEAniBi6SX7TFmomKtcllbo8CEMQOb9NYqH/PVQpjJV/z61gYy81RCuLOMtHMsUkQgw7iCkXwx6ZYe63cxhaqoxhlAAjiljJ/2GVRYrNPukMW7JafQtORKNo0d4yCuLt+p5fIpwhicEG8V7PBd5Vnzd1JMWQbBQBBHDxh1Ezx/nybhhzbwd9nVxJlE1ylcbC+7/UEMYggLrbF6mcqxepulUK9h3VCAII4GM2fAF3lrL9Zs7ejNHsbGZebm32w0qx0hDtkflcc+UnOpG9yNr2jvdZJEIdPEPO3USwzxep3bKG6r4I4kv2EAARx6Gj8FXGl0ZvYbExHf8eR30nf+2PyUf0czxLEoR9CW6zdpn/LWxhBAAjikJ0xara2QEH8kDN+al+l0bkHb0qt0UmUHajfd75NozmEwxhyEPNzRx/WrPDM0ox5vKgXgCAOC1cpiHf0RdlbnPXb5S8L7lgYy80JLsqO0c9wXfttGqsI4qB3pUxtsXpJNHvuTEYNAII4HF2mIM5THF+h2du2nXoidW0YbZrfRv2AfoZb8wMGhtCJNyEFcbVcoBnhDZVi/WWMFgAEMQSbitN/auZ2YCc39q/9/Ue+NzHpxfoZ7m2/2YMgDg6X2GLtl/p5//XAPa6ezEgBQBBDcqWz6e80YzxNM8aiwjiuY7PFUivfv3i4foZvykcG+fricA/iE/IuzQrPrRSqe3DCDABBDNnliuL18kSFcff8FJqOhbHcnOxM+nb9DNfIxYP0NupwDeKq/NxRW6x+0RaqL5NjGB0ACCKuc5GieFlislclUXNah9cXZ2jG+CH9DD/P1zkJ4mY3tcXa/5hC7S1RocrtUQCCSAT/jndppvhxmb/ZYmJH/zbGR/Iieccgmi0OpyAulTfK91UK9d1KM+aNZEQAIIgE8fnN1/RuVhDz9cV98jNLOzZbLLXGusjn2zS+LjOCOEAHcPfWbpcfj3prB5YLVc4dBQCC+CJdKufpd/YOF2W7xOVm526jlpvbOJuerNniNe1tGgRx49YJ/2iKtUtMsfpqy+1RACCIm+yjbu0bLbJj3JyFkzWL68hhzn2VRrfcV1H8D/0Mv26/2YMgvjAXKoR1+Ta5C1c+ABDEgX3N1O3OZJ9yxhvZ3cG/2Vh5hMJ4nn6G+wni87pM/sT01k6pFGrF0ox5vJ8QAAjiZjJ/7+FPnfX/Fkd+547dQtWs1JWb2yrEb9T3z89HbRDEPz9uTTPB+xXCj9litVIuVMdytQMAQeyM8+V3NGt7m2LVuU39kR/lTLq7vneSrHv/4pOBB3GNLdYW6vtcaorVV1SK9Wlc5QBAELfM+xf/4Na+0SI7qqN/x8iPT6LsAEXxDP1Nb9uMp90M5iA+q1nhd02h/gZ9n925ugGAIG55n5Z3OuM/1VdpzO7gbdRuRXGbZN2eyU/qZ3g4mCAWq7eb3vo7NSsssE4IAARx8M0WH8tPm3HWnxqXm1M6FsZyc5SLsu31fY9RHK/Wz/D4cA2iApi/jeKTCuI+0ey5vKMQAAjiYH73olyw9nzSKDsm32jfsTDaND80fLp8e/s26sphE8Ri/vRo9ZuVQv3wqFCdJrmYAYAgDqFtGvn+xcsUqoM6+jeO/Lik0thb3/8MmQ71IGpGeJM81vRWdzp45lWjSjPmcSEDAEEcgrdR8/XFB53xH1EYO7pNQzPFCS7K9nMmf+hno0+72WJBNL21RzUzPN0WqzMqhWpPmVkhABDEYRPGXylSJ8TlZscODc+Pm1MQJ7h1G/tvb9/SHdxBLNaWm2LtS5oV9urrGFuodnHlAgBBHH5hzLdHXJVEzTnxAUt6NHPsTBht2q0g5muMJ+szMP9FvE2jk0FcI6+LCrVDD5555fiIEAIAQRz+asa2zFl/sYK4p2I1WnZs8I9LrUku8he03724agsHMY/gs/K3UW/txHKhOpGrFAAIYpBh9HfL98idXaUxOi43O3UrtSuuNGYpzNe1t2ms3gJBzF/L9CdTrJ5vC1UO4AYAgojS+BtclB2dmGyaO2jRSM3iOvJ56Ks0xvRF2Qn6/r9pP3izpgNBzGeEDVusfcsUa4dwVQIAQcS/vI2aHxx+mWaKkUI1ucOfi23lh+Vd7QPMN0cQ8/cTLpE/rBRqbyzNmMcB3ABAEPF5wmj8/CTKznDW7x1HvnMHh5daIxXjXn3/r+jneKT9ZOxABDFfJ3xS3mqL1dPLherWXIkAQBDxBT+RqiDe6vJTZ4yfmceqY2G06STNVt8gr9TP8W19Zg7bhCCerxDea4rVz1WK9X25AgGAIOLGn3hj/NUuyl6lUO3U0c9K5HeSL5czN+b/3xRrPfL1iuIxXHkAQBBxgGaLaUMzxs9oxvgyhXEyn2QAAIIYsisVxd/J0+VBcbnJQykAAAQxaPOnQG9IjH9nEmWz4lKL9wECABDEoJ2vKP5fZ/zxcjs+3QAABDH09y/eqyB+Wh6ePyHKpxwAgCCGfhv1l/r7fkizxv3icrOHTzsAAEEM2cXyB4nN3p1UmtPjUqubTz0AAEEM2Yed8d+Ub5Rb8ckHACCIIfuMvMdZf1Fs00hyGxUAgCAG7WPy9sT4c9ycBdPiUosX7wIAEMSgXehs+qPEZu+QrC0CAEEkiMFv02g44+f1VRqGKwIACCJh4NBw6//orP+vOPJ7cGUAAEHEoA8Nl8vyjf2J8SfHpdYErhAAIIgYehgfdza9Obbpa7hKAIAgYuiuli1nfFVhLHC1AABBRLTe67Nyjqs0duirNHgiFQAIIgau8d9TEPfhygEAgoihe0v+meHKAQCCiASRIAIAQUQkiABAEBEJIgAQRESCCAAEEZEgAgBBRCSIAEAQEQkiABBERIIIAAQRkSACAEFEJIgAQBARCSIAEEREgggABBGRIAIAQWSwR4IIAASRICJBBACCSBCRIAIAQSSISBABAAgiEkQAAIKIBBEAgCAiQQQAIIhIEAEACCISRAAAgogEEQCAICJBBAAgiEgQAQAIIhJEAACCiAQRAIAgIkEEACCISBABAAgiEkQAAIKIBBEAgCAiQQQAIIhIEAEACCISRAAAgogEEQCAICJBBAAgiEgQAQAIIhJEAACCiAQRAIAgIkEEACCISBABAAgiEkQAAIKIBBEAgCAiQQQAIIhIEAEACCISRAAAgogEEQCAICJBBAAgiEgQAQAIIhJEAACCiAQRAIAgIkEEACCISBABAAgiEkQAAIKIBBEAgCAiQQQAIIhIEAEACCISRAAAgogEEQCAICJBBAAgiEgQAQAIIhJEAACCiAQRAIAgIkEEACCISBABAAgiEkQAAIKIBBEAgCAiQQQAIIhIEAEACCISRAAAgogEEQCAICJBBAAgiEgQAQAIIhJEAACCiAQRAIAgIkEEACCISBABAAgiEkQAgKEcxMM0yP2SgR4JIgCEHUTjd5FnyLs12K1gwEeCCADhRjHy2ydR9joNdpdosEv1dTUDPxJEAAiSuNQapVniHvJEZ/x1GvieYvBHgggA4Yax3BzrTLqfs/40xfF2DYAriQASRAAIN4w2nawgzpHnagBcqIFwDTFAgggAwZJEfloSZS93xn+LtUUkiAAQ9myx1BrpIj/dmewNzqZ3EAWCyFUBAGGHsdzsURD3cta/LzF+AXEgiAAA4UbRpiMUxfEK4kvklzQ4LiMSBBEAIFgUw66k0pjsKo3DnfE3EQqCCAAQ7myx1Brhys1uBXGaM2mfZo73EwyCCAAQbhgjP0JB7OqrNHZJouzjmj02NXCuIh4EEQAg5Fljj6JoNGhWNXguJowEEQAg7DCWm1s544/XAJqvLz7JHkaCCAAQdhhtOj0x/hwNpHfKZZx4QxABAIImiXxJA+mlGlAf5DVTBBEAIOzZYqk1VrPFozSozpMZ64sEEQAg7DCWm1s7k75bg+uP5GPcRiWIAABhh9GmMzVjvECD7G3yGWJDEAEAgkZRPFyD7CUabO8jOAQRACDs2WKpNc5F/oT2+uJ8wkMQAQDCjWLku+QMZ9MPaNZ4gwbfpwgQQQQACJa+SmNUX5QdpCh+TAPw7fJZQkQQAQCCRQPvBHm0BuEvtvcvEiSCCAAQJnG5OdJF2XRn/EkajK+SvJiYIAIABBxGm451Nu3VgHxKYvxP2sfAESiCCAAQJknkt0qirKIofoRtGgQRACDs2WKp1a0gTpNHOuMv5TYqQQQACDuM5eYoBXFXZ9MTFMfvsU2DIAIAhB1Gm45TEPeU79dgfR+HhhNEAICgURAnJZXGfi7yn9TAvZh4EUQAgHBni6VWt4I4xUXZIc6m3+XQcIIIABB2GPP9izbdWr5GM8f7eMUUQQQACDuMNh2pIG6lQfxj8nGCRhABAIJGg3i3O3jhjs74/9agvpIZI0EEAAh7xhj5kbHxL3U2vVGD+3K5msgRRACAcGeMkZ8k35sYf3f7GDhmjAQRACDQ2WKpNdJVGjM1wF8gH+SJVIIIABB2GMvNMS7yhzqTztWA3+D9iwQRACDsMNp0G2f82xLjf6iBfyHriwQRACBoksjvlpj0rHWDv3+MCBJEAIBwZ4ul1mjNFA9UAC6U97O+SBABAMIOY7k50dn0WIUg37/4Jw4OJ4gAAGGH0aY7asZ4soJwnVwS8DYNgggAAGvfqLGvPFth+LVcQRABACDc2WKp1eOMf4XicLH8fWBPoxJEAAD4izBGfqqz6fGaMV4W0PsXCSIAAPxt+iqN3ZMo+1fF4gb5NEEEAIBwZ4ulVo9CMUezxTMVjd8SRAAACDeK5WZXXGlMdsYf4az/nOLxMEEEAIBww2jTkXJnZ9PXacZ45TDb1E8QAQDgxZFEfrTcW1H8F4XkZoIIAADhzhZLra6k0pigKJac8ecoKH8giAAAEG4Yy81uF/mtnU1f1t6m8QRBBACAcMNo01GaKU5TFI9VWG4agu9eJIgAADBwKIg9rtLYxUXZKe3TbggiAAAEOlsstbpcJcuPget1Nv1i+9BwgggAAIGGMfJdCuKovkrDaub4A0VnOUEEAIDgUXBOkne0j4FbQxABACDcWWOpNdEZ/yEFKB1kG/sJIgAAbIEw2nR/Z9N8m8Z8uZIgAgBA0CSRf21i/I0K0iKCCAAA4c4US60R7qBFWytG71OU7pKPE0QAAAg3jOVmd1zJZjmTXqQ43bsFnkgliAAAMIjCaNOxzqb/lBh/hSL1oFxFEAEAIFiSyE9RFE9SqL4nmwQRAADCnS2WWiNduTHTGX+GgvWzzXxwOEEEAIBBHsZyc4yiWHE2/bTClW/sX0EQAQAg3DDaNL+Neozila8v/mmA1xcJIgAADC0Urj0UxncoYt+RLYIIAADhzhZLrVEuykrO+H9XzH4xANs0CCIAAAzhMEZ+K2fTl2rG+Gm5Kds0CCIAAAx9ksjvlETZ6xW2yxW2xRvxNg2CCAAAw2S2WGqNUtRmaqZ4ojNr9y+uJIgAABBuGMvNsQpir7P+g+3bqAQRAAACDqNNJyuIB8vPKnbLCCIAAARLEvnc7ZIoO0rBqxNEAAAId6aYv2JqzoLRminu4ow/ydn0XoIIAADhhrHc7HJRlr9NY5az/hwFcjFBBACAcMNo0y7NFMcpiAcohN9UCJ8miAAAECwKYpebs2Ciq2SvcvnGfoIIHeT/AfDGlalLBsQzAAAAJXRFWHRkYXRlOmNyZWF0ZQAyMDIyLTEwLTI5VDE1OjM5OjM2KzAwOjAwRmQnWgAAACV0RVh0ZGF0ZTptb2RpZnkAMjAyMi0xMC0yOVQxNTozOTozNiswMDowMDc5n+YAAAAASUVORK5CYII=;" vertex="1" parent="1">
          <mxGeometry x="841.17" y="340" width="45.16" height="51.16" as="geometry" />
        </mxCell>
        <mxCell id="sMOUUsySO7USkykY8Pia-105" style="edgeStyle=orthogonalEdgeStyle;rounded=0;orthogonalLoop=1;jettySize=auto;html=1;entryX=1;entryY=0.5;entryDx=0;entryDy=0;entryPerimeter=0;fillColor=#fad7ac;strokeColor=#b46504;strokeWidth=2;" edge="1" parent="1" source="sMOUUsySO7USkykY8Pia-20" target="sMOUUsySO7USkykY8Pia-16">
          <mxGeometry relative="1" as="geometry" />
        </mxCell>
        <mxCell id="sMOUUsySO7USkykY8Pia-107" style="edgeStyle=orthogonalEdgeStyle;rounded=0;orthogonalLoop=1;jettySize=auto;html=1;fillColor=#fad7ac;strokeColor=#b46504;strokeWidth=2;" edge="1" parent="1" source="sMOUUsySO7USkykY8Pia-20" target="sMOUUsySO7USkykY8Pia-41">
          <mxGeometry relative="1" as="geometry">
            <mxPoint x="60" y="1150" as="targetPoint" />
            <Array as="points">
              <mxPoint x="575" y="1200" />
              <mxPoint x="90" y="1200" />
              <mxPoint x="90" y="1150" />
            </Array>
          </mxGeometry>
        </mxCell>
        <mxCell id="sMOUUsySO7USkykY8Pia-108" style="edgeStyle=orthogonalEdgeStyle;rounded=0;orthogonalLoop=1;jettySize=auto;html=1;entryX=0.72;entryY=0.99;entryDx=0;entryDy=0;entryPerimeter=0;fillColor=#fad7ac;strokeColor=#b46504;strokeWidth=2;" edge="1" parent="1" source="sMOUUsySO7USkykY8Pia-20" target="sMOUUsySO7USkykY8Pia-21">
          <mxGeometry relative="1" as="geometry">
            <Array as="points">
              <mxPoint x="575" y="1200" />
              <mxPoint x="320" y="1200" />
              <mxPoint x="320" y="939" />
            </Array>
          </mxGeometry>
        </mxCell>
        <mxCell id="sMOUUsySO7USkykY8Pia-109" value="Auto&amp;nbsp;&lt;div&gt;Scaling&lt;/div&gt;" style="sketch=0;outlineConnect=0;fontColor=#232F3E;gradientColor=none;fillColor=#ED7100;strokeColor=none;dashed=0;verticalLabelPosition=bottom;verticalAlign=top;align=center;html=1;fontSize=12;fontStyle=0;aspect=fixed;pointerEvents=1;shape=mxgraph.aws4.auto_scaling2;spacing=-6;" vertex="1" parent="1">
          <mxGeometry x="190" y="843" width="20" height="20" as="geometry" />
        </mxCell>
        <mxCell id="sMOUUsySO7USkykY8Pia-110" value="Load&lt;div&gt;Balancer&lt;/div&gt;" style="outlineConnect=0;dashed=0;verticalLabelPosition=bottom;verticalAlign=top;align=center;html=1;shape=mxgraph.aws3.application_load_balancer;fillColor=#F58534;gradientColor=none;spacing=-10;" vertex="1" parent="1">
          <mxGeometry x="140" y="840.25" width="20.7" height="25.5" as="geometry" />
        </mxCell>
        <mxCell id="sMOUUsySO7USkykY8Pia-114" value="&lt;b&gt;&lt;font style=&quot;font-size: 17px;&quot;&gt;Legends&lt;/font&gt;&lt;/b&gt;" style="swimlane;fontStyle=0;childLayout=stackLayout;horizontal=1;startSize=30;horizontalStack=0;resizeParent=1;resizeParentMax=0;resizeLast=0;collapsible=1;marginBottom=0;whiteSpace=wrap;html=1;" vertex="1" parent="1">
          <mxGeometry x="-260" y="1270" width="150" height="240" as="geometry">
            <mxRectangle x="-260" y="1470" width="50" height="40" as="alternateBounds" />
          </mxGeometry>
        </mxCell>
        <mxCell id="sMOUUsySO7USkykY8Pia-115" value="DNS" style="text;fillColor=none;align=left;verticalAlign=middle;spacingLeft=4;spacingRight=4;overflow=hidden;points=[[0,0.5],[1,0.5]];portConstraint=eastwest;rotatable=0;whiteSpace=wrap;html=1;perimeterSpacing=0;strokeColor=default;" vertex="1" parent="sMOUUsySO7USkykY8Pia-114">
          <mxGeometry y="30" width="150" height="30" as="geometry" />
        </mxCell>
        <mxCell id="sMOUUsySO7USkykY8Pia-112" value="" style="endArrow=classic;html=1;rounded=0;fillColor=#fad7ac;strokeColor=#b46504;strokeWidth=3;" edge="1" parent="sMOUUsySO7USkykY8Pia-114">
          <mxGeometry width="50" height="50" relative="1" as="geometry">
            <mxPoint x="90" y="44.700000000000045" as="sourcePoint" />
            <mxPoint x="130" y="44.700000000000045" as="targetPoint" />
          </mxGeometry>
        </mxCell>
        <mxCell id="sMOUUsySO7USkykY8Pia-116" value="Deploy" style="text;strokeColor=default;fillColor=none;align=left;verticalAlign=middle;spacingLeft=4;spacingRight=4;overflow=hidden;points=[[0,0.5],[1,0.5]];portConstraint=eastwest;rotatable=0;whiteSpace=wrap;html=1;rounded=0;glass=0;strokeWidth=1;" vertex="1" parent="sMOUUsySO7USkykY8Pia-114">
          <mxGeometry y="60" width="150" height="30" as="geometry" />
        </mxCell>
        <mxCell id="sMOUUsySO7USkykY8Pia-120" value="" style="endArrow=classic;html=1;rounded=0;fillColor=#60a917;strokeColor=#2D7600;strokeWidth=3;" edge="1" parent="sMOUUsySO7USkykY8Pia-114">
          <mxGeometry width="50" height="50" relative="1" as="geometry">
            <mxPoint x="90" y="74.6400000000001" as="sourcePoint" />
            <mxPoint x="130" y="74.6400000000001" as="targetPoint" />
          </mxGeometry>
        </mxCell>
        <mxCell id="sMOUUsySO7USkykY8Pia-121" value="" style="endArrow=classic;html=1;rounded=0;fillColor=#0050ef;strokeColor=#001DBC;strokeWidth=3;" edge="1" parent="sMOUUsySO7USkykY8Pia-114">
          <mxGeometry width="50" height="50" relative="1" as="geometry">
            <mxPoint x="90" y="104.6400000000001" as="sourcePoint" />
            <mxPoint x="130" y="104.6400000000001" as="targetPoint" />
          </mxGeometry>
        </mxCell>
        <mxCell id="sMOUUsySO7USkykY8Pia-117" value="Auth" style="text;strokeColor=default;fillColor=none;align=left;verticalAlign=middle;spacingLeft=4;spacingRight=4;overflow=hidden;points=[[0,0.5],[1,0.5]];portConstraint=eastwest;rotatable=0;whiteSpace=wrap;html=1;" vertex="1" parent="sMOUUsySO7USkykY8Pia-114">
          <mxGeometry y="90" width="150" height="30" as="geometry" />
        </mxCell>
        <mxCell id="sMOUUsySO7USkykY8Pia-123" value="" style="endArrow=classic;html=1;rounded=0;fillColor=#6a00ff;strokeColor=#3700CC;strokeWidth=3;" edge="1" parent="sMOUUsySO7USkykY8Pia-114">
          <mxGeometry width="50" height="50" relative="1" as="geometry">
            <mxPoint x="90" y="134.80000000000018" as="sourcePoint" />
            <mxPoint x="130" y="134.80000000000018" as="targetPoint" />
          </mxGeometry>
        </mxCell>
        <mxCell id="sMOUUsySO7USkykY8Pia-119" value="Data" style="text;strokeColor=default;fillColor=none;align=left;verticalAlign=middle;spacingLeft=4;spacingRight=4;overflow=hidden;points=[[0,0.5],[1,0.5]];portConstraint=eastwest;rotatable=0;whiteSpace=wrap;html=1;" vertex="1" parent="sMOUUsySO7USkykY8Pia-114">
          <mxGeometry y="120" width="150" height="30" as="geometry" />
        </mxCell>
        <mxCell id="sMOUUsySO7USkykY8Pia-125" value="" style="endArrow=classic;html=1;rounded=0;fillColor=#1ba1e2;strokeColor=#006EAF;strokeWidth=3;" edge="1" parent="sMOUUsySO7USkykY8Pia-114">
          <mxGeometry width="50" height="50" relative="1" as="geometry">
            <mxPoint x="90" y="164.71000000000004" as="sourcePoint" />
            <mxPoint x="130" y="164.71000000000004" as="targetPoint" />
          </mxGeometry>
        </mxCell>
        <mxCell id="sMOUUsySO7USkykY8Pia-122" value="Notification" style="text;strokeColor=default;fillColor=none;align=left;verticalAlign=middle;spacingLeft=4;spacingRight=4;overflow=hidden;points=[[0,0.5],[1,0.5]];portConstraint=eastwest;rotatable=0;whiteSpace=wrap;html=1;" vertex="1" parent="sMOUUsySO7USkykY8Pia-114">
          <mxGeometry y="150" width="150" height="30" as="geometry" />
        </mxCell>
        <mxCell id="sMOUUsySO7USkykY8Pia-124" value="Settings" style="text;strokeColor=default;fillColor=none;align=left;verticalAlign=middle;spacingLeft=4;spacingRight=4;overflow=hidden;points=[[0,0.5],[1,0.5]];portConstraint=eastwest;rotatable=0;whiteSpace=wrap;html=1;" vertex="1" parent="sMOUUsySO7USkykY8Pia-114">
          <mxGeometry y="180" width="150" height="30" as="geometry" />
        </mxCell>
        <mxCell id="sMOUUsySO7USkykY8Pia-127" value="" style="endArrow=classic;html=1;rounded=0;strokeWidth=3;" edge="1" parent="sMOUUsySO7USkykY8Pia-114">
          <mxGeometry width="50" height="50" relative="1" as="geometry">
            <mxPoint x="90" y="194.71000000000004" as="sourcePoint" />
            <mxPoint x="130" y="194.71000000000004" as="targetPoint" />
          </mxGeometry>
        </mxCell>
        <mxCell id="sMOUUsySO7USkykY8Pia-141" value="Access" style="text;strokeColor=none;fillColor=none;align=left;verticalAlign=middle;spacingLeft=4;spacingRight=4;overflow=hidden;points=[[0,0.5],[1,0.5]];portConstraint=eastwest;rotatable=0;whiteSpace=wrap;html=1;" vertex="1" parent="sMOUUsySO7USkykY8Pia-114">
          <mxGeometry y="210" width="150" height="30" as="geometry" />
        </mxCell>
        <mxCell id="sMOUUsySO7USkykY8Pia-142" value="" style="endArrow=classic;html=1;rounded=0;strokeWidth=3;fillColor=#bac8d3;strokeColor=#23445d;" edge="1" parent="sMOUUsySO7USkykY8Pia-114">
          <mxGeometry width="50" height="50" relative="1" as="geometry">
            <mxPoint x="90" y="224.68000000000006" as="sourcePoint" />
            <mxPoint x="130" y="224.68000000000006" as="targetPoint" />
          </mxGeometry>
        </mxCell>
        <mxCell id="sMOUUsySO7USkykY8Pia-40" value="" style="html=1;verticalLabelPosition=bottom;align=center;labelBackgroundColor=#ffffff;verticalAlign=top;strokeWidth=2;strokeColor=#0080F0;shadow=0;dashed=0;shape=mxgraph.ios7.icons.settings;" vertex="1" parent="1">
          <mxGeometry x="100" y="730" width="30" height="30" as="geometry" />
        </mxCell>
        <mxCell id="sMOUUsySO7USkykY8Pia-129" value="" style="outlineConnect=0;dashed=0;verticalLabelPosition=bottom;verticalAlign=top;align=center;html=1;shape=mxgraph.aws3.mqtt_protocol;fillColor=#5294CF;gradientColor=none;" vertex="1" parent="1">
          <mxGeometry x="199" y="465" width="27" height="30" as="geometry" />
        </mxCell>
        <mxCell id="sMOUUsySO7USkykY8Pia-133" value="" style="outlineConnect=0;dashed=0;verticalLabelPosition=bottom;verticalAlign=top;align=center;html=1;shape=mxgraph.aws3.mqtt_protocol;fillColor=#5294CF;gradientColor=none;" vertex="1" parent="1">
          <mxGeometry x="490" y="601.25" width="27" height="30" as="geometry" />
        </mxCell>
        <mxCell id="sMOUUsySO7USkykY8Pia-137" style="edgeStyle=orthogonalEdgeStyle;rounded=0;orthogonalLoop=1;jettySize=auto;html=1;strokeWidth=2;fillColor=#bac8d3;strokeColor=#23445d;" edge="1" parent="1" source="sMOUUsySO7USkykY8Pia-136" target="sMOUUsySO7USkykY8Pia-20">
          <mxGeometry relative="1" as="geometry" />
        </mxCell>
        <mxCell id="sMOUUsySO7USkykY8Pia-136" value="User" style="verticalLabelPosition=bottom;html=1;verticalAlign=top;align=center;strokeColor=none;fillColor=#00BEF2;shape=mxgraph.azure.user;" vertex="1" parent="1">
          <mxGeometry x="1020" y="1075.75" width="62.75" height="70" as="geometry" />
        </mxCell>
        <mxCell id="sMOUUsySO7USkykY8Pia-138" style="edgeStyle=orthogonalEdgeStyle;rounded=0;orthogonalLoop=1;jettySize=auto;html=1;entryX=0.992;entryY=0.343;entryDx=0;entryDy=0;entryPerimeter=0;strokeWidth=2;fillColor=#bac8d3;strokeColor=#23445d;" edge="1" parent="1" source="sMOUUsySO7USkykY8Pia-136" target="sMOUUsySO7USkykY8Pia-26">
          <mxGeometry relative="1" as="geometry">
            <Array as="points">
              <mxPoint x="761" y="1015" />
            </Array>
          </mxGeometry>
        </mxCell>
        <mxCell id="sMOUUsySO7USkykY8Pia-139" value="Autor: Jhonat Souza" style="text;html=1;align=center;verticalAlign=middle;resizable=0;points=[];autosize=1;strokeColor=none;fillColor=none;fontStyle=1;fontSize=31;" vertex="1" parent="1">
          <mxGeometry x="690" y="1270" width="300" height="50" as="geometry" />
        </mxCell>
        <mxCell id="sMOUUsySO7USkykY8Pia-140" value="Architecture Template" style="text;html=1;align=center;verticalAlign=middle;resizable=0;points=[];autosize=1;strokeColor=none;fillColor=none;fontSize=43;fontStyle=1" vertex="1" parent="1">
          <mxGeometry x="155" y="340" width="420" height="70" as="geometry" />
        </mxCell>
        <mxCell id="sMOUUsySO7USkykY8Pia-148" value="Agent" style="outlineConnect=0;dashed=0;verticalLabelPosition=bottom;verticalAlign=top;align=center;html=1;shape=mxgraph.aws3.hardware_board;fillColor=#5294CF;gradientColor=none;" vertex="1" parent="1">
          <mxGeometry x="336" y="590" width="84" height="100.5" as="geometry" />
        </mxCell>
        <mxCell id="sMOUUsySO7USkykY8Pia-149" style="edgeStyle=orthogonalEdgeStyle;rounded=0;orthogonalLoop=1;jettySize=auto;html=1;entryX=0;entryY=0.2;entryDx=0;entryDy=0;entryPerimeter=0;exitX=0.5;exitY=0;exitDx=0;exitDy=0;strokeWidth=2;" edge="1" parent="1" source="D5S8QVMH5LgYy2v9Hye1-127" target="sMOUUsySO7USkykY8Pia-148">
          <mxGeometry relative="1" as="geometry">
            <mxPoint x="350" y="533" as="sourcePoint" />
            <Array as="points">
              <mxPoint x="336" y="533" />
            </Array>
          </mxGeometry>
        </mxCell>
        <mxCell id="sMOUUsySO7USkykY8Pia-152" value="Pagar.me" style="shape=image;verticalLabelPosition=bottom;labelBackgroundColor=default;verticalAlign=top;aspect=fixed;imageAspect=0;image=data:image/png,iVBORw0KGgoAAAANSUhEUgAAAOEAAADhCAMAAAAJbSJIAAAAjVBMVEVlowD///9cnwBhoQBtpyJ3rDZangBeoABXnAD///34+/PF2rG405ewzovs8+G10ZHl79iawWrj7tOixnLW5cJqpg7H3K73+vLA2KOItkzd6s14ri2ry4OOulhspwrP4biBskGgxHl9sTWHtlCOuVvx9+mFtUfU5L9yqx3N4LOYwWWdwm5zqix5rjzd6dJVyG30AAAFQElEQVR4nO2da3vaOBBGLQ2VgAXCPTb3XKDOpf3/P692yW43gYxkO9ga+p7v4dGJRjPSWIYoAgAAAAAAAAAAAAAAAAAAAAAAAAAAAAAA/g7ojabHcTnWSXLY3S9bs8gaba/PlFrqje5gvIgnD69k7FVZ/jH8T3Taf9y09dVYnhgeNce9xJjrkDxvmNPZjugaZvJzw1xyOpqJn0nWMGM/T7RtepCVcBlmDFdWNz3MCngYKnXbi+QGq5dhRjyTmnV8DVUnTmXGqrdhViR7kcScU8AwW4+jtrxQLWSo1PjeND3iohQ0VKon7fRR2FANElnTWNwwm0ZRx6syhmq4EVQ4Shkq9SwnUksaqlhMwilrqBYbIYqlDdV+KWOHU95QdRIR+aaCoVIvEhQrGaqVgJRazVDdtJsWcFLRUPWDV6xqqG5CD9TKhmoVerpp7Qf7biXFSeiKUTRLX38kk3g6KKmYhF/688eHVmtLh3jaKaF4L2QDl0G6bR/jfVHDfSpHMYMMree3xRTHogyjXHJ2NyykOA+9ZpxA1ibTIooitqgfoPb9ooDiUlqg5lB77R+rA4mGebCuvHcDsbileES3vJfjOvzCfxYyI89NwD6SGahRZDdjP0V5JeNfyMZ+igepkxhFZuJlOBA7iVnCOXgtxuDPigw29dmPd6W0ic9Bqc/xUW6yiTwVO4KOiqeQT6BuBa/ETHHmsYUTPYmR3bkz6vfgG6gseuSeRFkdjRNMz2koOp1maOepuCO5JmZQ5Mw2PdHpNMs2a5fhvukhVsXMXYqjUMKUrDHtI0b7X62gjauZOg0hTMlqOvSeFvu8wN0Ot/HzRvtekbUvDsNO83030sv+SU4cxonn2wfGlU/7DXdsLI0+GeKgP/MpZrRzGA4bDVNqvzBnhNs48hid2ToUm9zXmHtHk7d7574HTBuH4U1jYerVUxq3nONzVYxhU9tvm3p16Tsj12qkpeMjGtq56QffFn3PpagdnfC7RsLUu3md8eQIM3Ls3Z6aOGD4nO3+sHUMkfimzW0Dc+jeMb9nzlcN3Wf/urOrfSHSsugliz6r6Pq8BhZi8csyD+w0GP5xTe0L0X3kOaXLToPlw3RQ8xza5+KCjmxDKf/vqXnjRoUvAf1mzY2yzcc9H+NfjSPxfcqQCzXNB/6k1jC1ZS6r5YyYYRIf+XGdJ6iyU+iYRP6AsajVsOAttf+RMKvJsgtxWOM6dIQTC/coid99d2f1GTpP5Nw4mZnQfIe/VeMklisVR5iC4YiN+h6zuQ46PMwG3NGQYovpl+LYXjkYfH5QpFe2CNVXEJ3dTR5mJmZs+NfYNC17Bf8Id9BjP7m2kk9p+WqYwxz0iO1r/VOb4bdKglzr0/wMw/BHNUMm2P4CQzaHiTFkCqJht21iDK9/Dpl7B6Gsw8vlUh1GtYguVw+j128MrboEL7mnIY76BC+3Lw2Fi50tguFi58OAqJJq6jvHVsA8lRfkn12EQpVe25OIII10+VYU1y8NiAv1vENCX+K5RVCUfvYkYxXmOG5OfIaQVZhjH8sINnIppixf/xw/OErEqbA3QovfpxH3tqRNignW+pT6ayh2r03Idu09ukBCnQs4Fp5B73zvlwr4Grbz2NTruwO6zjvC4ULkfrtOLVJZhfADeueYxu5E7lfoH6H2M1P8uz0regKPkHlenC//g77P+yQSILNcLT7k1c4wfhD9OxYfIKvTw2o7nS7G48Vi+r23fr2KH5V5B5E1+o0i7x8CAAAAAAAAAAAAAAAAAAAAAAAAAAAAAAAAAAAAAAAAAHz4BcYASPxYOpk3AAAAAElFTkSuQmCC;" vertex="1" parent="1">
          <mxGeometry x="-370" y="1068" width="60" height="60" as="geometry" />
        </mxCell>
        <mxCell id="sMOUUsySO7USkykY8Pia-155" style="edgeStyle=orthogonalEdgeStyle;rounded=0;orthogonalLoop=1;jettySize=auto;html=1;entryX=1;entryY=0.5;entryDx=0;entryDy=0;fillColor=#6a00ff;strokeColor=#3700CC;strokeWidth=2;startArrow=classic;startFill=1;" edge="1" parent="1" source="sMOUUsySO7USkykY8Pia-26" target="sMOUUsySO7USkykY8Pia-152">
          <mxGeometry relative="1" as="geometry">
            <Array as="points">
              <mxPoint x="-40" y="1050" />
              <mxPoint x="-40" y="1098" />
            </Array>
          </mxGeometry>
        </mxCell>
        <mxCell id="sMOUUsySO7USkykY8Pia-157" value="" style="group" vertex="1" connectable="0" parent="1">
          <mxGeometry x="343" y="474.99999999999994" width="70" height="90.00000000000006" as="geometry" />
        </mxCell>
        <mxCell id="D5S8QVMH5LgYy2v9Hye1-113" value="5v" style="text;html=1;align=center;verticalAlign=middle;resizable=0;points=[];autosize=1;strokeColor=none;fillColor=none;" parent="sMOUUsySO7USkykY8Pia-157" vertex="1">
          <mxGeometry x="18" width="40" height="30" as="geometry" />
        </mxCell>
        <mxCell id="sMOUUsySO7USkykY8Pia-143" value="" style="group" vertex="1" connectable="0" parent="sMOUUsySO7USkykY8Pia-157">
          <mxGeometry y="25" width="70" height="65.00000000000006" as="geometry" />
        </mxCell>
        <mxCell id="D5S8QVMH5LgYy2v9Hye1-127" value="" style="ellipse;whiteSpace=wrap;html=1;aspect=fixed;fillColor=none;direction=north;flipV=1;flipH=1;" parent="sMOUUsySO7USkykY8Pia-143" vertex="1">
          <mxGeometry x="5" width="65" height="65" as="geometry" />
        </mxCell>
        <mxCell id="D5S8QVMH5LgYy2v9Hye1-128" value="+" style="text;html=1;align=center;verticalAlign=middle;resizable=0;points=[];autosize=1;strokeColor=none;fillColor=none;fontSize=25;flipV=1;flipH=1;" parent="sMOUUsySO7USkykY8Pia-143" vertex="1">
          <mxGeometry x="30" y="12.5" width="40" height="40" as="geometry" />
        </mxCell>
        <mxCell id="D5S8QVMH5LgYy2v9Hye1-129" value="-" style="text;html=1;align=center;verticalAlign=middle;resizable=0;points=[];autosize=1;strokeColor=none;fillColor=none;fontSize=25;flipV=1;flipH=1;rotation=90;" parent="sMOUUsySO7USkykY8Pia-143" vertex="1">
          <mxGeometry x="5" y="12.499999999999979" width="30" height="40" as="geometry" />
        </mxCell>
        <mxCell id="sMOUUsySO7USkykY8Pia-160" value="" style="shape=image;verticalLabelPosition=bottom;labelBackgroundColor=default;verticalAlign=top;aspect=fixed;imageAspect=0;image=data:image/png,iVBORw0KGgoAAAANSUhEUgAAAgAAAAIACAYAAAD0eNT6AAAABGdBTUEAALGPC/xhBQAAACBjSFJNAAB6JgAAgIQAAPoAAACA6AAAdTAAAOpgAAA6mAAAF3CculE8AAAAB3RJTUUH5godDwUN7JAKGQAAAAZiS0dEAAAAAAAA+UO7fwAAThRJREFUeNrtnQd8FGX6xxcE7P0U9W/hzhaTWRVBWkgjCUWKDTVmBwiQvml0ARXs3Z0JpGxLQgdFFLCioiJ4KiIK0kROUQQp0nvJ/N9Z0NNTNGEn2d3Z7+/z+X48zzuEzb7v852ZZ57XYiGEBEVSIhwNbVHqKTareoYsqf8QNJUlpZnNqvxLtqrXCSLFf3eDTVJ79LIW99ERf/+QYOwxpon//QLBp3+KVdktfg3trxD/ro3H/f/7UF/+zb/voV9+H72i1GTx91bf79GqXK3/vo/93i/W/yz6n0n/s+l/Rn7ShBBCwi6iWFpka/GFoiCKAqkXdKWtIF4UzdtE8ZQFQwSPCyaJfz5T/LOvxD/7Vvz9/r8r3kHCEfH73eT7fR/9vc/x/VmO/pn0P5sspKCb+GdxgpuPfgbqpeJzuUD/bAghhBAzXNGfJYraNaLAdRDFrqcofLmiAD4oqBK8LHhPsEwQSgXeCHYK/iNYfOwzeEFQKRglhKFI/6z0z0z/7PTPkG8SIYSQYC7254ur+mhRuNJskjL6WJGfLfhQsFzwvWDH0SvksCn0taVasOfYZ7X82Genf4YeIQVDxGcrCym4Sf+s+cYRQgip96RGORqkRik32iS1lyhMzx67zb1C8INgi2A3hd5QDh+7a7BZsFawSjBffPbF4mfQT/9Z6D8TvpmEEEL8SlozR4PeUerJ4orzPFFkLhcFXhR7JUMUHbfN10ynHjh2tUpxDp47B/vEz+pdm1V9UkjBneI/W30/O/Ez1H+W+s+UbzYhhJA/JCXCcbItSr3MZlVaiMLRQxSOomO3nr8QArCXIhtqiJ+Z72en/wxVva/gdvGzbav/jIUMNOIbTwgh4VvwG9x7nXKhuKKPFoUhTVw5PiYKxYuiYCwSbKeAmo49voZLSX1B8ID4uafostfrWuUsIQQsCEIIMXtSreqlYuO/QxSAx0RBeFPwpWDTsefMFMrw4KDgR8FCwSz9uyC+E7f2shY3ZYUQQoiZin6U42px1ZcrS8osseF/LfhJwG19+IW9x74Tq3zfEUkdLL4z17ByCCEkRJLWzDdJ7yw5SvmX2MRvEVd1DtmqrDl2dU/THtSmqfCg+P4s1b9DNqsarzcU6t8t/TvGSiOEkCDI0fG5yj9sR6fK3S1Qjg3XoZCBUewXIrnE992S1LuEDLTQv3OMNSaEkAAkNcpxrrg6SxSFv1Bs0N5jz/L3U6ygHh4XfKZ/53zfPUltr38XWZGEEFK3V/uNxZWXVRT+YWIDnnFsWtxOihIEcKTxEv27KL6TA8V38zr9O8pKJYQQg5LWzHGaLUrtJq64Xjs2Q34nk/YguA5A8o15XiNLygviu9pV/86ycgkhpLa39/WjY63KpbKkHzGreI69pkfBh1ASAv1ExFK9gVD/LqdGOU5hZRNCyJ/f3m8krpz+T2yWcWLTfFS2+kbu8kwfzNBA+Kn4Xg/yfbfFd1z/rrPiCSFc7VvVhqLgNxdXS3axWU49dtgLV/tgxrsCa33fcf27LjkkAW8REELC8or/DP3Md3FV9LzYFPWr/a0UCQgT9O/6R+K7/5wcpbZJa+Zowo5ACDF9xFWP/ny/pz6C9djxudzmhzB+POC7KzDTJindUqMcp7JDEELMdKXfUGxuZ/eKVCLFFf9DovhvOHY7lMl8AP+dPHhErJM1Nkkdoq8Vfc0waIgQEpIRVzMNxCZ2kaCzKPrFslX5gaIPUBMZUH7Q14y+dmTJcamgATsKISQ0ir9VFZuWYhOb2fhjtzjZ2AFqzy9NgzYhAZxUSAgJzuiHpMjXqVeIK5d8sWnpA3vWs4EDGMJ637RBScmyRakXs9sQQoImva9WzpMl9UHZqujz+LfxGh9AnbxG+LMQ7I9tkprV+yrlHHYeQkggrvYb9IpUT+0VqVwlCv8wUfjXU/QB6lMGxJoTa09fg/pa1NckOxMhpK6v9k8WG0+Lo4VfXSo4zIYMEBAO+9agvhbFmtTXJjsUIaQurvobyVHqDbKkjBSbzkLBQTZggKDgoG9N6mtTrFF9rbJjEUKMKPwn9YpUI8TmMkpsMguOnYfOpgsQfOz1rVFdBCT1cnYvQsgJR2wi+u3+IbJV0W/17+I9foCQGCq002ZVPtGbBW1RKmOGCSE1LfqORuIK4h9i8+gtNpGVNPcBhG6PgL6GxVruI/7aVF/b7HCEkD8kJcLRwBalXCiK/92CGWLz2M0GCmAKDshW5W19betrXF/r7HiEkF+K/+niCqGbLKmVYrPYzIYJYEo262tcrPVkTiAkJMxzrLO/pbg6UMXmsJoNEiAsWC5LytNCBiLZBQkJw8hWxzniSmDQsXf597EpAoTdGwNfiD0gV5YcZ7IjEmL+K/4GwvrPskUpncQVwBKG+ADQKCj2go/FntBR3xuYKEiIOa/4TxMLva1Y5Prt/v1sfADwG/aLvaFYjlJibVHqGeyYhJggx7r7/yVbleFikS8WHGKzA4DjHDi0QojAA/qewdsChIT6lb+k3ikW9Vx9OAgbHADUALFXKK+LveMWdlBCQrLwOy63ScozYjGvY0MDgBO4G7BW7CFPpkY5mrKjEhL8Rb+BHOk4T5YU27Hufqb4AYC/IrBIjlLvPrq38FiAkKCL/k6/zarcKFuVMm73A0AdPBYo0/cYThskJJiu/K0OfYRvhlik89moAKAOmX90r3FcyM5LSGCv+k+So5RWwswZ4QsA9TdSWN9zxN6j70HsxITU//P+xsLE7xULcfnRwz7YmACgXg8YWmzzHR7maMyOTEg9JDXK0UiOUP5psypu3ukHgABSre9BYi9yCRFoqu9N7NCE1NlVv3qWWGi3CT6kwx8AguVNAbEnzRN01/codmpCDMyxaX5XisU1Wiy279hwACAIXxdcre9RvSKVyzhTgBCjrvytjnayVXmN1/sAIAReF5yp71ns3IT4EWHRp9isvtf7VnHLHwBC6G7AKn3v0vcwdnJCapFUq+Mkm+S4xiYpTrGQdrChAEAIskPfw8RedrVs5XVBQv42wpr1iX4dZavyNl3+ABDiHDr6+FJJ1Pc2dnhCjt/sd7rt6ES/pWwcAGAilup7W1ozRxN2ekL+2Oh3ubDkp8RC2cRmAQAmZJMsKQ/LkuMidnxCfin+kiqJxfGSYDebBACYGH2Pe1Hf89j5SXg/7490nCZHKXeKBfE1Xf4AEEZvCSwRe9+t+h5IJSDheMv/PJtVGSAWwjY2BAAIQ7bpe2AqJwuSMLvlf5X48j/NYB8ACHN2CQlQ9D2RykBMHd/xvZJyk/jST+J5PwDAr30Bk4QI0BdATFv8G8iRSmubpCwQX/Z9LHoAgF/ZJwRgvtgjW3GOADFVUq2OU0Xh7ylbla3y0SM0WfAAAL+nWkjAOrFX3ilLzAsg5nje/w/xpR4qij/NfgAAf4t+oaT0FxdO51JBSMhGFP5m4gv9pOBnFjUAQI3ZIvbPR/U9lEpCQipjsmY3lCOVK8WXt1zmMB8AgBNhh28PFXspfQEkJKJpWoOywa9F9m9V8g6d/gAA/r0hYJOUOb2uVS6jupBgLvwW98i3Gz+R9Uq7wuSKxbnx7up+N5do8vUsYgAAv5oDJeWTXtcpV6ZGOThRkARf8X8q++XT779r8m0Fyd6VeR081QItN86t6RLQCwkAAPBLAmSrskyIQLKQAN4QIEFV/M8Zeuv4/qL4LxOF/4he/H/hFwlgAQMA+HuGgLJQcJts5QwBEgRxPfD2acNun5BbkORd+9vC/wcJaIkEAAD4LwHqSptVSUu1Ok6mApFAXv03HNFzUv/8JO/G4xV/JAAAwHA2CAlIoQqRgNz2dxTMPlMU//T8RM+uvyv+f3gcQE8AAIC/7JQlNUOIwBlUJVJfxb/BI2kvXjS467gH8xO9P9e0+P+vBNAYCADgN9uPDQz6B9WJ1PmV/9O5My8Z1G3c0ydS/GkMBAAwnM1CAB5BAkidxjP63XNF8X/Wn+JPTwAAQJ1IwKM8DiB1dfXfZHB3X/Hf6W/xRwIAAOrmcQDVihj6zN/z0Lvn6sU/L9Gzz6jiT2MgAIDh7ONOADGs+D9XMPv/jL7ypzEQAIDGQGLyhj8aAwEAaAwkIZQxA18/c2iPCaPro/jTEwAAYLwEyJL6oOB0KhqpzdV/w6NDfuqv+CMBAACGs9VmVVKpaqRGt/3LRr51mm+8by0m/NEYCAAQtOzQxwZzdgD5y+J/f+qUswb3GJ8jrvw3Bqr40xgIAFAnZwf0liXHKVQ78ofi/1T2y6cP7jFOP9jnu0AXfxoDAQAM5ytZUrqlRjmaUPXIr3kqY0bj4XdMvLUg2bssWIo/PQEAAIZyRLYqC22SkiwkoBGVj/gyutcLrQqSvCtFwT0SbAKABAAAGCoBy2ySow2VL8wzZdT8hsV5s64tTK5YLAptdTAWfxoDAQAMpdpmVZb3ula5LK2ZowGVMDyf+zd4rPdLkYUdK94L9uJPYyAAgMESIClz5EjlSqphGBb/R/pOv3bgLVWV+YmePaFQ/GkMBAAwlN2CUllSL6MqhlHH/xMZL188qOs4tS7n+9MTAAAQ9GwTPJRqdZxLdQyDPN7/pTOG9hg/ShT/baFY/JEAAABD2SJblf6yxOuBps5sdf5JD9w9JS0/0bMjlIs/jYEAAEaibLVJyp00BZo0lUPea/Rw6rQEUfy3m6H40xgIAGAcNquyTo5UWgsJOImKabKmv5E9p7QpTK74JFQ6/mkMBACo9zcDFsiSchNV00RNf/ffM/Wqos6VU/ISPfvNVvzpCQAAMIx9gmmypEZQPU2QUbZJFw68pdKRn+jZbdbijwQAABjGXsEzstVxHhU0hPNI7xfOGNytanggj/alMRAAIOTYaZOUIluk41QqaYg+9x/WfUJqnsma/mgMBACoF9bLUUoPqmkIPvcfedekFgVJ3jXhVvxpDAQAMIwltqjia6mqIZTRtslXFXWqmB2sp/vREwAAEBIcEUyWJcdFVNYQyPMDXjtnYJdKJS/EZvwjAQAAwXpmgPJESoTjdCpsEN/2n/zchycP6T4+Lz/Ru4XiT2MgAIBBbLJJSqbNqjSm2gZhHIWzGw+/c1L3wo4VKyn6NAYCABjMKiEAXVKtTAoMvvf9751qLepU8QHFnsZAAIA6OjPgbZvkuIaKG0SZMmr+GQO7VFWJIneIQk9PAABAHXHIJilOqm4Qve8/pNu4vHAa9oMEAAAEjB2ypKZQfQOchzOmNxxxx8SE/CTvNxR2HgcAANQTy2TJ0ZzjgwPY9T/8rkkRBcneOeH+vj+NgQAA9T0fQJnZK1K5jGocgNx/99RzB3SufIxb/9wJAAAIxHkBsqSOtkUVn01Frs9b/31eajy4+/i785O8P1DE6QkAAAgQ39kk9bbUKEcjKnM9ZcStk64pTK74mOKNBAAABBKbpHwoRyj/pDLXQ57NeqXJgE6V43nujwQAAARFP4CkemSrowkVug6jpM9sNKTbuDTe96cxEAAgmOYDyFalf1ozpgTWWdf/kK7j2uUnehj1S2MgAECwTQn8qlekaqVa10FG9px0SWFyxURRoA5QpHkcAAAQZOwVjJUlx3lUbGNH/TYZfMs4u7j6/5nijAQAAAQp622S0jutGW8FGJJxj89tMPyOSa0KO1Z8QlFGAgAAgphqwXxZUm+UJaYE+p1H5BcvHNClspJiTGMgAECI9AOUyZE8CvC78e++Wyem5zHtj8ZAAIBQmhIYpcpUcT8y6p6pVxUkV6ygAPM4AAAgxFiaGuVoSiU/sav/kwZ0rlIZ+IMEAACE4oAgm6Q8STWvZR7v+0LDQbeMS81P9K6n6CIBAAAhyjpZUnumRNAQWPPn/reNv7YgyfsBxZbGQACAEGeuLUr5F9W9Bhl+x/gzCjt6H+CYXxoDAQBM0RAoKUNlyXEKFf4vMrr75IYDOlXG5Cd5l1BgeRwAAGASPrNZleZU+b/IoE5VZxcmV5Rx2A8SAABgIg4JHLKknkWlP86z/8Fdq7qLgrKfoooEAACYbDjQNluUkkS1/5Pcd8fE8wuSvMsopjQGAgCYEkn5WJYcZ1Lxf//sv3FRp8rhvPNPYyAAgIk5bLMquVT93z777zyubX6idzkFFAkAADA5S/TDgqj8+tX/vZPPKkz2lojCsY/iSU8AAIDJ2SdbFTUlwnF6WBf/cU/NazCwy7jb85O8/6FoIgEAAGHCaptV7Ra2EwL1rv8HU6ddUtSpchLFksZAAIDwaghUK21RyoVhKQCP9Z7eeHDXcXJ+ovdnCmWY9AQgAQAAv7BZlpS7ZcnRKOwE4IG7Jzct6ljxKgWSxkAAgDB9LXCG4B9hJwADulRm5Cd69lAc6QkAAAhTdstW5a6wKv6O/Nmn5Sd5V1MUkQAAgHDGZlVWpFodTcLjtL/EcScVJleMZOgPjwNoDAQAUA8LAchOa+Y4yfQCUJhUGZWf6GHkLxJAYyAAwNFzAj7rFalGmH3kb5OCJO8jogDspggCjYEAAD52yZIyOq2Zid8IGNSpqmV+ovcTsflXUwCBngAAAB/Vgo9MOyL44bumnVqUXDGKkb+ABAAA/IG9sqSM7H21crKpiv8zvWY0GNipqnVBoncxBQ9oDAQA+FMWypLaMq2ZiUYED+s64bSijpUPiI3+EMUOaAwEAPhTDgoBuK9XpHqqaQRgaNfxEeLqfwVFDmgMBAD4S77qFalcZZ6pfx0rR/HeP9ATAADw93MB9LsAZmn+a5qf6PmJwgZIAABAjaYDrg756YDP9JpxUlHHyse4+gcaAwEAaswRIQBZIS0AI+6YcLW4+v+KYgY0BgIA1OouwMdCAi4OyeKvaVqDos4VA/MSPdspZEBjIABArdgmJKAgNDv/e4z/Z36S9y2m/gE9AQAAtX8MIHgr1er4V0gV/+cKZzco6ljRJz/Rs5HiBUgAAMAJsUGWFDk1KoQGAw3sWnWJuPqfTNECGgMBAPxivE1SLgqJ4j+k26SGhckVXcXV/zoKFtAYCADgF9/bJLVzSoSjYdALgLjyP0cU/zIKFdAYCABgAJL6rC1KPTPoBaAo0WsVAvAjRQroCQAAMALlO0GzoBeAvATPE3T+AxIAAGAY1TarMiSoi39h54ozhQDQ+Q80BgIAGDkYSFLWyJLjjOAVgE4VqYz9BRoDAQCMnwtgsyo9g7X7/6z8JO/rFCOgMRAAwPjHAILZKRFBeBegILmys9iEaf4DegIAAOqGdbKkJgZV8a96+N1GBckVxWID3k8RAiQAAKBO2G+zKg7ZGkQzAQZ2rGiVn+hZRPEBGgMBAOqUT2SrcmNQFP/R905uXJDsLRSbLqf+AY2BAAB1y2ZBelqzILgLMOiWyssLkrwvUXCAxkAAgHqZDFglRxY3DWjx1zTNUtixokN+ope5/0BPAABA/bDKJintAtv5n+Q6Mz/R/RTv/gMSAABQbxwWAjAgNcpxSgAH/1RelpfoWUyBARoDAQDqlXmypF4SuIN/OlXcIjbWAxQXoDEQAKDeXwnsGMijf8dTVIDGQACAAJwPYFW9ASn+wxPHnZ6X6NlCQQF6AgAAAsKmlAjH+fUuALlxHpljfwEJAAAI3PkAtqjie+u3+Md7GtsT3G9QRIDGQACAAD4GkJTXUiIcjetNAOwJ3uZi8/yWAgI0BgIABJQ1qZHqdfUoAJ4RYuPcRfEAGgMBAALKNpuk5tVL8c9p7z5PCMDLPP8HegIAAALOEcGUlAjH6XUuAHkdvPFis/yKggFIAABAULDIFlV8c50W/yHdJp0kNskB3P4HGgMBAIKGnTZJKUyJqMMTAgd2HndhfqK3iiIBSAAAQBAhqd7USPUfdXf4T7K3dX4it/+BxkAAgCATgC9tktqqToq/kj7zpAGdKlOZ/V//FCZXaM/lz9aqHnvfcB7u/SKfcS17Ah7p86JWet+bJ4w64DXfzzTYNpARd07Sxg55w68/m5kZO/QN7f67p/j1GefEurRncmfyeQYJj/d/SevfqtQ8ZwNISu+UCEcjwwVgQJeKcwqSvaUUhfpnUNdx2vzZK7S9uw8YzidzVvs2NT7nmkvAvJeXa3t2HThhNny3TXs+f1bQbSDTlAXatk27/fqzmZkdP+/VXi7/xK/P+MGUqdqKz9bxeQYJn779jVaQ5DXRUCDVZYsqPtf42/9J3ivzEj0rKQiBEYBP5nyt1UUOHTysTR/7b62wYwWfdQ17Aj5+07+fxfbNezR1wKtBt3nMKP1Y27/3oEb+PAcPHNZerfjMr894tG2a9u3yjXyYQZIv538XlHfj/GCZzapeYbwAJHp6UAjMJwB6tm7cpT3W7yU+6xpKAAKAACAACEDwonSog+l/7hKKgDkFQI/+KKCoE3cBaiIBC99ejQAgAAgAAhCsPFUXAvAdBcC8AqD3A1Q++h6fdw1YNHcNAoAAIAAIQHD2AViVL4we/xshNr7DbP7mFYDqas23MfFWQA0E4D0EAAFAABCAoOVgSoTjEuOO/41zFzL739wCoOfQwSPah7NWaEN7jOdzRwAIAoAAhCbVNqk425DiLz4jiz3e/Robv/kFQM+WDTs170Pv+hYFnz0CQBAABCAUHwOoLxhz9Z/gukJseqvZ+MNDAPSsWLjOt1Hx2SMABAFAAEKSr2Wr4zIjmv/uEZveJjb+8BEAfaN7ffzn2oDOlXz+CABBABCA0GOjLKl3+lX8M9s5G+QluJ8Um95eNv7wEQA9u7bt057KfJnPHwEgCAACEIpjga3K8ykRjgYnLABZ7Z0X5SV43mLTDz8B0PPNkg3akO40BCIABAFAAEKQN++NdFx44s//492xYsNbyqYfngKgb3gzyj7RCpK9/BwQAAQAAUAAQosvU61K9AkLgLj67yc2vC1s+uEpAHrWf7tVcxTO5ueAACAACAACEFpssEmKfIJX/55TxGb3BAOAwlsADh86oi14baU27LYJ/CwQgL/Nnp37tR++3mJKvl22UZv49Dy/j1zWz5II9j+rv9+D6iPV2k9rtwf9n/PdF5Zo4kLXrAJwUJbUB9KancDxwHnJrmZ5iZ6X2fDDWwB+aQjUNz5ODEQA/i6fvr3at6GaEXu8W0tvU+bXZ9yn+RgtJ8YZ9H/Wrxev9+t7sG/PQe1JvYk4yP+cWdFOrfcNxWYVAJ2JstVxUa0FoDC5olV+ovdLNnwEQM/3qzZrT+e8ouUn8vNAAI6fBbNXmnkzDRuWf/qDfwKw+4A28u7JfJaB5zNZUlvUqviP7j65QWFSxW1CAHZQgBGAXzJ/9gpt4C1VCAACgAAgAAhAaLBZCECnWgnAwC5VpxQkeQdTfBGA3z3f3bVfc94/BwFAABAABAABCB3ssuRoUmMBEFf+5+clesdTfM0hAHoj36Z1O7SdW/f6LQE/rN6iDb11AgKAACAACAACEBp4ZUk9rxan/7musMe7v6L4mkMA9MX49pQvjxauav8EQD8x8M2Ji7X8JC8CcILZsWWPNnbw6wgAIABQ90jql4LLazH/33MThddcjwA+eGWZ5nrgbW3rxt1+3wXYtmm35hn1jpaf6EUATkQAft4rfhZztH43l2i9rkcAAAGAOuemmt8BiHVnU3jNJwD6rftln/ygVVf7dxtAf8dXH6DxYOpUBOAEBUAXqNw4d1BJAAIACIA5sUlqRm0EoIrCay4B+HTOam1w9/HapGfmaQf2H/L7LsBescBfcX4alm8FGCUA+q/1iwQgAIAAQB0+BiipRQ+AexGF11wCoF+x6wtSvwuwbs3PhrwVoDcWPpc/K+xmAxgpAD4JiBcS0LIEAQAEAOpKAObWqPjntHc3EJvSAQqv+QTg/run+H69ykff893G9zf6kwR98tvgbuMQAD8E4Nc7AQGWAAQAEADTsi81qgZHA+fEuFqIDamawmsuAfhu5SbtmZxXjv56t1SJwv2N370Av2SqYz4C4KcA/PZxQKB6AhAAQABMS3Wq5LixBocAufpTdM0tAHr3fvHA17QtG3YaIgA/b9ilPSS/gAD4KQCBlgAEABAAEzcCWpV7ayAAbpWia24B0NF7Ad6ZtkQ7dPCw3wJw5PDREwOHdB+PAPgpAIFsDEQAAAEwdR/AE39/CmAH97sUXfMLgN6491TWy9qapT8Zchdg+5Y9WuWjcxEAAwQgUI2BCAAgAGZGeftvrv49F4rNZyVF13wCsO6bn7XnC2b/7tctSPZqU56br+3c5v+IYL2pcOWiH7XH+r2EABggAIFoDEQAAAEwNStSIhzn/8UZAO54sfGso+iaTwC2b97tmwT4v792UedK7eM3v/bdxvc3+pkD+mOFIT3GIwAGCEB99wQgAIAAmJofZKsS/Re3/70ZYtPZStENHwHQebj3i9qG77YZ8ihg66bdWtmIt7QCE58VUJ8CUJ8SgAAAAmBqtsiS2vcv7gB4HhEbzh6KbngJgM6Epz7QDh06YogE6I8Cht85CQEwSADqqzEQAQAEwNTsEgIw8vh3ABI9+gjgIxTd8BMA/bb9kgVrDRGAI4ertVnuhQiAgQJQH42BCAAgAKbmsH408PEaAM8Rm8yrFNzwFAB9NoCjcLa2+ccdhkjAjp/3aI+nz0AADBSAum4MRAAAATA9s1MiHGf9QQCy45zX2Tt4FlBww1MAfA2BnSq1acoC30E//o8JrhabyDpTPgoIpADUZU8AAgAIgOmZJ0vKVX8QAHu8pyOvAIa3AOiMtk3Tvpj3rSFvBezesU+bPvbfvjcNEADjBKCuJAABAATA9Cy1RRXH/tkEwHvyEngFMNwFQKd02JvalvXGjAn+/ust2nN5sxAAgwWgLhoDEQBAAEzP97Kk9vyTI4CdefYE904KLgIwQFyxvz7uc+3QAf/HBOuzAT54Zbl23+0TEQCDBcDoxkAEABAA07PDZlVyf1f801uVWcRm8iCnACIAvzCi5yTtx/9sNeQuwO4d+30FzyyzAYJJAIxsDEQAAAEwPUcED8qS478CkNGmrKm4khhPsUUAfotS9Kq2d9cBQyRg4w/bTXNiYLAJwK93AvzsCUAAAAEIC8YJAbjwv28AxDj/ZU9wz6LYIgD/Oyb4rclfGHJioJ55ryzXCpIrEIA6EAAjGgMRAEAAwoJXZKvS7L/P/2NdN9jj3R9RbBGA/+XRvtO11V9uMEQA9LsJ5SPfQgDqSAD8bQxEAAABCAvekyU16lcByIl1txcC8DXFFgH442yACm3i0/O0nVsNODGw+uiJgfrGgAC8U2e/vxNtDEQAAAEIC5YJAWj7mzcAXB3sCe7vKbYIwPHGBC94baUhswH0AvNa1ee+oUMIQN39Hk+kMRABAAQgLPhOCEC8r/iLn5V+CNDtYtM4QLFFAI7H4/1naN+t2CSu4v1/FLBp3Q6tfOQcLT9E3woIBQE4kcZABAAQgLBgv2xVbvMJwP09pzUsSPL2ptAiAH/H5Oc+NGRMsJ7P3/+Pdv89UxCAupaAWjQGIgCAAIQNckqEo6GloGPFqfmJ3vsotAhATX4fC9/9xhAB2Lfn4NExwSH4KCCUBOC/ElCKAAACAEeRlCG2KMcploGdKs4qSPI+Q6FFAGrCE+kzfAXMiGzduEt7NG06AlAfElCDxkAEABCAcEF5QrY6zrDkxXsuyEvwvEChRQBqQmHHCu3lsk8M6QXQ89ncNb6jiBGAeroT8BcSgAAAAhA2TJIl9R+WvETvRXkdvG9QaBGAmjLyrsnap3NWa0cO+28B+pAh/QjiUJKAUBWAv2sMRAAAAQijYUCS2lR/BfCf9ng3xwAjALVCHfiatuG7bYbcBdBPDHys30sIQL32BPxRAhAAQADChs9tVvVyS06s80ohAcwAQABq/Xt6rWqRIW8FHNx/WPvg5WXa0FsnIAABbAxEAAABCJcmQPVrm6T8U78DcJ093s0MAASg1oxKneab7FdtQEPAzz/t0ryj3w2JEwPNIAB/1hiIAAACEDbsEUToxwBHUmQRgBNBf25fPOh1bY8BJwbqEvHVx99ro0PgxECzCMD/NgYiAIAAhBWRFrEB3ECRRQD84d0XlmjVR4x5LWDO5C+0gV2qEIAANAbOKPsEAQAEIHweA9xgyWxXditFFgHwh+F3TPSNCTYi+qFDjsLZCEAA7gTM8ixEAAABCBNsktLDkhPn7E+RRQD8QX9urxe03Tv2GSIBqxb/qA27bSICUM/oTZ0H9h1CAAABCI9pgGmWnHhXOkUWAfCX+26fqM17Zbl22IATA/XZAC+VfowA1DOvIwCAAISXAGRFux6lyCIA/jcEerRn7bMMexSw/tut2vP5sxEABAAQAKiLRwBWZZjeBOiiyCIARjH+ifcNOSvgyJFq34mB+tRBBAABAAQADG8CLLHY4z0IAAJg8O9VHxPs/6OAXdv3aVOVBVpR50oEIEQEYNWiH7WxQ94wDSN7TkYAEADzCkBOrGsGRRYBMBL9xMCN32835FHA2pWbtaeyXvE9YkAAgl8AzBa9MRIBQABMyjRLTpzrU4osAmA0k5/70JANWH8UMHf6V9qgW6oQAAQAAUAAwLg7AB9ZcuNdiymyCIDR6HP9l/m5ifwS/d300vveRAAQAAQAAQDjBOBTBAABqLu3AvJmaZt/3GHIRrzlx53a/XdPRgAQAAQAAQCjBCCvgxsBQADqBH2krz5edt+eg35vxPp8gbenfBkUY4IRAAQAAUAATCEAhR0rEAAEoM7QD/dZ8tFaQ04M3LZpt+a8fw4CgAAgAAgAIAAIQLALQH6SV3OOnKNt2bDT/4bAw9Xal/O/00bZpiEACAACgACAAQLwBUUWAahLijpVau++uNQ34tff7Nt90DcmeEAAZwMgAAgAAoAAmEAAFloosAhAfTCgS5X27XJjxgRv3bhbKx70upaf6EUAEAAEAAGAE0LZjQAgAPWG/ihg764DhmzMi+au0YbdPhEBQAAQAAQAThAEAAGo10cB703/ypATAw8fOqK9UPwRAoAAIAAIACAACECwC0Be4tExwUadGLhl/c6ANAQiAAgAAoAAIACAANSSwo4V2qRn5ml7du73/62AI9Xav19fVe8NgQgAAoAAIAAIACAAJ8CQHuO1eTOX+27j+xv9xMApjvlaQbIXAUAAEAAEABAABCCYBUDn6exXtLWrNmsGzAfS1iz9SXs8fQYCEAQCsHPrXu3rL9YfZfF6bcXCddryEKbykbkIAAKAAAACYOijgOQKXxPf/r3+X3Ee3H9Ie2faEt8BRAhAYAXAN6gpdZqPB1KmasPEz0R/RBOqZLV3IgAIAAIACEBdPAr4/P3/GDYbQD8xUJ88iAAETgA+fXv1737N3Hi31q9lCZstAgDBKAD5id4tFFkEIFDot+715/j+Rj9rYNXnP2rDbpuAAASRAPgkIA4JQAAgCCcB/sdSmOzlLAAEIGAU6I8C1I+0gwcOG3In4I3xi+v8LgACUDsB+PVOwM2lWq/r2XgRAAieUcAJHgQAAQgo998zRfti3rda9RH/OwL11wufyZ2JAASZAPx6J+DmEiQAAYBgOQwoN96FACAAAUWf6V8y7E1t4w/bDXkUsGTBWm1Ez0kIQJAJwG8lgA0YAQAEABCAX/+Mb036Qtu/96AhdwFeKvnYN3QIAQguAaAxEAEABAAQgD8w2jZNW/3lBt9VvH93ATTfuOFn7TMRgCAUABoDEQAIFgGIc31OkUUAgoWxQ97wDZMxInoxGtFzMgIQhALw38ZAegIQAAiYAGS1cy6iyCIAwcT7Ly0zRAD0RwHjn3jf8EcBCIAxAkBjIAIAARaAnPauVymyCEAw8WDqVO2H1VsMkYAf1/ysPdTrBQQgSAWAxkAEAAImAK9Y7PEeF0UWAQiqtwKSvJp39Lva7h37DZGA92Z8hQAEsQDQGIgAQEAEoAQBQACCkvtun6gteHWlMY8Cdu3XSu97CwEIYgGgMRABgAAIQG685wmKLAIQjDyZ9bL2zZKf/H4rQDv2VoD+lgECELwCQGMgAgD1h82qDLPkxLvSKbIIQDCijwme/NyHhrwVsF8UtjmTv/B9lghA8AoAjYEIANTXHQAlDQFAAIIa/XCfhe9+ox05fMRvCdi0bodWPmKO32cFIAB1KwA0BiIAUE8CUNSx4haKLAIQzDyV/Yq2ddNu/8cEH6n2Fe8HUqYgAEEuAPQEIABQ1ygxloIk7/UUWQQg2N8KmKosMKQhUC9w09QFWlGnSgQgyAUACUAAoE6JtIhFFimoptAiAMHMwFuqtJWfrfO/IVBk17Z92uP9X0IAQkAAaAxEAKBOOOITgNw41zX2ePcWCi0CENR3ARI9mqPwVW3z+p2G3AnQjx8+0YZABKB+BYDGQAQADGezzaperQvAP4UArKTQIgCh8DnM9n6m7dvj/4mBhw8d0SY9Mw8BCBEBoDEQAQBDZwAsEzTTzwL4Z06MawWFFgEIBfR3+b/6+Hv/bwFUa9raVZu1x9NnIAAhIgD0BCAAYLAAiOJ/iVhUcym0CECoNARWPPyutnWj/28FHDxw2HfwUG0fBSAAgRMAJAABAEME4G3BxZbMdmUX5MS6plFoEYBQ6gd4a9IXvgJuREPgxKfnaQXJXgQgRASAxkAEAPxmshCAf1iy2pedmRvveopCiwCEEiN6TvKN9zUiKxf9qD3adzoCEEICQGMgAgB+zQB4QrY6zrD0a1l8Sk6scyiFFgEINdwPvq3t32tAQ+DhI9qbExf7XjVEAEJHAGgMRADghKcADrFFOU6xpEQ4GubGu2UKLQIQirMB5s1cbshdAL0oKwNeRQBCTADoCUAA4ISQ9dpv0ZMb57rdHu8+QLFFAEKNJzNf1n5YvcUQCdBPHqzJXQAEILgEAAlAAKBW7LRJajfLLxECkGBPcK+l2CIAoYbevDf+ife1PTv3GzIb4OXyT7TC5Iq//HcufGc1AhBkAkBjIAIANeZbWVLjfhUAcfXfOi/Bs5RiiwCEIvfdMVH7cNYK7dBB/98K2LJhp+Yo+utHAfobCAhA8AkAjYEIANSIL2xW9eb/3gGIdVvtCZ55FFsEIFR5Jnem9v3XWzR/jwrQ7wJ8NneNdv89xz8xcEbZxwhAkAoAjYEIAPwt+gyAiF8FIDvWeYU9wf0SxRYBCNlHAUleUZg/0fb7WcB8swG279OmOuZrRZ0qEIAQFAB6AhAA+EumypLyf78KQEabsgtz491VFFsEIJQZ0n28tmLhD34LQPWxMcFPZryMAISoACABCAAcl0pZclzwqwCktyqz2BPcozgWGAEIdR7u/aIosHsMOSvgo9dWaUN7TEAAQlQA6AlAAOAPVAtGCQGw/C7Z7Z0D7PHuvRRcBCC03wqo0GZ5FmoH9/vfEHjowGHfuQMIQOgKABKAAMDv2GOzqkWW/01We1eqEID1FFwEINTRG/iW/tuAEwNF1n+71Td2+Le/ftVj7yEAISQANAYiAPAr38uS2vMPApDepqxTbrx7FQUXATDDbIDykXO0Teu2+y0AR45Ua3Mmf/G7hkCl6FUEIMQEgJ4ABAB8LLVFFcf+QQAy25RE2BPc8ym4CIAZGNx9nDZ3+lKDZgPs0spGvPXrr/109isIQAgKABKAAIA6T5aUq/4gAPde5zjLHu+eTcFFAMzCqNRpvpP+qv0dDiCib4gP3jvV9+sO6FKFAISoANATgACEObNTIhxnWf4sOTEub16C5zBFFwEwC/qV+/Yt/r8VsHfXAW1G6cei+FdqAzpX+hoEEYDQFAAkAAEIUw4LvJbjJTvGNdye4NlF0UUAzEJhpwrfowAjoh86pE8cLBICsOmH7QhACAsAjYEIQDgeAiRL6tDjCkBGm/I0IQBbKLoIgKkeBdimaT+t3WZIQ+Dc6V9pw26boH2/ajMCEOICQE8AAhBmbBYC0Ou4ApDZvryVWBTfU3QRADORn+TVKh+dqx084H9D4F6xsT2fP9uvDRIBQAIQAAgAa2VJaXFcAbg3UjnfnsCrgAiA+dCv2j94ebl25PARvyXgu5WbtEXvrUEATCIA9AQgAGHCqpQIx/mWv0pOrGuB6a8IE73akB7jtdHyC77RsU9lv+L764Op03wd3giAeU8M/G7FJkPeCuAtAHMJABKAAIQB8y1/l+wYV5mZi8DoXi9oE576QFwNLtO++vh732ti67752ffXL+d/p82Z/KVv0tufzYBHAEKbok6V2jRlgbZz2z4EAAGgMRABCC8kdczfCkB6dFmWOTf/Cl9h1wu9ftzrX2Xn1r3aZ++u0cYMfl0r7FiBAJiI4XdM0hZ/8K125HA1AoAA0BOAAIQNNqk4728FIK3FmOZmOxVw6K0TtJnuhdrWjbtq1fG9Ye02beIz8wIuAQiAsTyXN0vbFcC7AAgAEoAAQH2fApgapdz0twLQ+4biBjmxrv1m2ezvu2Oi9v6MZSfcAa7fDZjqmK8NvKUKATBND4hHe0FdoB0+dAQBQADoCUAAwoF9qVGOBpaaJDvG9YEZFrA+te2l0o+13Tv2+/Vl1q8Wxz/5vlaQ5EUATNQP4O8mhwD8MV8vXu87iMkslN73pqYUvuq7a/Rn9LlxDAKAAITC8/+5lpomO7r8WbN0feubrRHRB8nobw0gAOZ5E2Ts0De0LRt2IgAGCkC4Jb1NGQKAAIQCT9VYADLblvU0wyb/yZzVhi72tyZ9gQCY6cTAbuO018Z9rh3cfxgBQAAQAATAxA2Ayp01FoCs6HJrblxo9wHoJ7fpB7gYmY0/bPcNlEEATEKixzf/YdknPyAACAACgACYs/hb1X02SbXW/A5Am/Irstu7loTy5j7xqXmGN3npQuEd/S4CYDIJqHj43Vq9IYIAEAQAAQghAfi34NIaC0D/m0vPy27vrAzljX3B7BVa9RFj3/XWbxW/Mf5zBMCEJwa+M22JIWcFIAAIAAKAAAQZXllSz6uxAPSW1JOzo8uL7Amhu6kvfOcbw0e+Hjp4WJv74lIEwIQ8kDLVrxP+EAAEAAFAAILzDQClqFek4+QaC0BaM0eDrOjyO3LjXHtDdUP//P3/IAAIQK3QHwXoP2MEgNQ0ubEuBAABCGb2iKv/2/WabqlNhAC0EwKwIlQ3849eW2n4I4BDBw5r70z9EgEwKfqwp08NfnMEATB3BnapMuXEQATANCy3WdW2ltqmf7vSK3LiXTNCdTPXX9k7YrAA6JvjTNenCICJeaTPi3X+KAABME/0V0l/PUDoegQAAQg6Xky1Oi6rtQCkRDhOzo1zPSI2hkOhuJGXDH3T8LcA9ImAT2fPRADM3BCYXOE7LXLPzv0IAKmRAJhxbDACYAoOypL6QFozRyPLiSQnxplqT3CvD80hL+MNn/K2ZulPvo5xBMDcjLxrsvbvN1Zphw4eQQBIjQTAbEcJIwCm4EchACmWE01m25Kb7fHuRaG6kU8f829DF3sgZgAgAIHh+fzZ2vpvtyIApMYCYKZTBBEAU/CZLCktTlgA+knq2Tmxrtl5Ifo64P13T9FWf7nBkIW+ZMF3f1jsCICJHwV0rNBmeRZq++ugICIA5hUAs0gAAmAKZve+1nH2CQtAWjOHJatd+ZP2BHdovg6Y6NGezn5F+27FphN+I+Dw4SO+UbGBOggIAQjsWQHL6uDEQATA3ALwu8cB1yMAEBD2ypL6mF7D/Ur/lqU9hQBsDNVNvCDZq5UNf0v7z1cba90UeHD/IW3pR2u1JzJmBPTPgAAEjifSZ2g7t+1FAEitBCDUGwMRgJBnvRCAzhZ/I1sdl+XEur42w9HAn7692vfFrEn0TX/u9KXaY/1eCoqz6ysfmesbV3uivFrxWVD8WUJOIJO82sSn5/n12f/hZ1G5SHu8f/D9LMYOeUN7a+IXhv5ZzY6+Nv/qMw3VxsCKh+dqr4nv6YnyivNT35HbFOKAsUqWHE0tRiSzbdmrphj3es8UbfJzH/qu6rdv3vOnt/s3r9+pffbuGs314Nva0FsnUAQBwC/M0hgIoTT+V51tMSppLcYOE1/karM0d+nNgfoVmPP+OdqU5+drU5UFvqu84kGva4/2na6N6DlJ2CsbFwAgARByVAsBGGKYANgk5ZqcWNchsy1K/RaVfotXJ1+QR9EHgLqUAJNNDISg5FBqlOMai5HJjC5fziIGAPBfAnohAVBH2CT1K4vR6d+6rJgFDABg0J0AihXUhQBYVcVwAchoU5qQG+86wAIGAKAnAIKSA7JVSTBcADKjy6/IjnEtY/ECACABEJRX/0sFlxsuAGmtxpydGVPOYwAAABoDISgFQFFSrY6zjBeAZo6G2dHOu3Lj3ftYuAAANAZCULFbltSeeq221EWy2jlbii/rYhYtAACNgRBUfGyT1BstdZW+N5VckBPrqmDBAgDQEwBBNf3Pmxqp/qPOBCAlwtEwu315kT3evYsFCwCABEBQsFMIQKFeoy11mbQWJTE5ca4lLFYAABoDIShYIgQgxlLXSY1ynJvV3jnDnmCOswEAAGgMhBDmiOBFvTZb6iPprUsH2xPcO1ioAAA0BkJA2Sau/vMt9ZXe1xdH5sa61rBIAQDoCYCAsiY1Ur2u3gQgJcLROLNt2UssUAAAJAAC2v3/ol6TLfWZvi2Le9gTPEdYoAAANAZCYJ7/p1od3Sz1nbRmjtOy2pdvZnECANAYCAFhg16LLYFIRtsyJwsTAIDGQDDJ0b+1eBsgITeOI4IBAOgJAFMc/VvT9G9demlmtHMRixIAAAmAer36Xyi4NGACYLMqp2S2Kx9kT3DTDAgAQGMg1FPzn01SB6VGOU6xBDIZ7cric2JdP7AgAQBoDIR64XshAPGWQKdP87GXZrd3TstLYDECANAYCPXAVFtUAG///2YoUKOs9uX59nj3NhYjAAA9AVCnbLVZ1Ty99lqCIRltxrYQArCQhQgAgARAnfKRLCmSJViSfnNxw8zococ9wb2fhQgAQGMg1An7bZL6vCw5GlqCKemtnO3s8e61LEIAABoDoU5Ya4ssbmMJtqQ1czTJinbOEl/AahYhAACNgWAo1YKZeq21BGP6tiy5KzeemQAAAPQEgPHv/ivdLMEaWXKckRXt/JbFBwCABIChx/7+JzXKcaolmNOvVcmwvAQeAwAA0BgIRt3+t1mVoZZgT/8WJVFZ7cs3sPAAAGgMBEPm/v8gR6pRQS8A8o3F56S3KXPaE9wsPAAAGgPB/9v/xbYo9eygF4CUCEfD/q3LunA+AAAAPQFgyNz/znpttYRCet9YfGlWdPk07gIAACAB4N/cf1lSLrWESmTJ0SC9VamcG+eiFwAAgMcBcGKslyXVptdUSyil9w1q05wY58t5CR7mAgAA0BgItXzvXzBDFP+mllBMRpvSXHuCeyuLDQCAOwFQy1P/JCXbEqpJa1l8SXas81MWGgAAPQFQi1f/JPXjVKvjYksoJz26LFd8yXgMAACABEANb/+nWpUsS6in73XquTkxzp9YZAAASADUaPDPBnH138RihmS0KRthT+CQIAAAGgPhbzgsS+p9FrMk4+bSq3NinMtYYAAANAbCX/KVHKleZRoB6H9TyalZ7cqH2+Pdh1hgAAA8DoA/5aB+9d8rUj3VNAKQ1szRoG/LkpbZMc7PWFwAAEgA/CkLhQC01GumxUzpc616ckabsvtz41z7WFwAAEgA/I59Nkkd2ftq5WSLGdP7xjHNs2OcH4kvVjWLCwCAxkDwUS34SFz932gxa9KaORqlty59wJ7g3snCAgCgMRB87LBZ1WF6jbSYOWnNx16eFV3OdEAAAB4HwH+n/l1iCYf0uWlMDnMBAACQAPBN/cu2hEvkG9QmGW3LvmZBAQAgAWF+9b/KNFP/ajwi+OaxfcUX6SALCgCAxsBwfe/fZlXSLOEW8eW5KLNd+QcsJgAAGgPDEkl92yapTcNOAHrfoDbOaFMm58a5trCYAAB4HBBmbBECcLcsmbzz//hvBIy5JCvaOdme4GYxAQAgAeF09V9pi1IutIRrUqMcDTLblnfOjXevYCEBACABYcJyIQDJKREmG/l7AsOBmmS3dz5jT/DsZSEBANAYaHL22iT1ab32WYjFkt7aGZUT51rCIgIAoDHQ7Af+2KKKI6n8v5WANqV2e4L7MIsIAAAJMCmHZUnJoOL/8a2AM7NjXIwIBgCgJ8CcQ3+s6sey5DiTiv8n6d+qtKP44uxnAQEAIAEmY78tSulIpT+eALQsPTurXXkJ5wQAANAYaCIOyZJaLDiLSn/8NwIa9L+5JC47xrmSxQMAYKKegPCWgC/kKKWtXuOo9H99UNCZme3KHrTHu3exeAAAaAwMcXYKRshWx2lU+JocFNRi7JXZMc438hI8PAoAAKAnIGSP+rVZ1ddtUcqVVPYaRp+OlNHG2c2e4P6ehQMAgASEKGttUcW3hP3EvxNJVrvyp7kLAABAY2AoXv3LkvoklfyEZwMUN82NdS1m0QAA0BgYYnyeGuVoSiX3I5mty1NoCAQAoDEwhNglrv57UMH9nQ1w09jzsqLLy/MSWDAAAPQEhARlNkk5mwru/4jgBv1ald6cHeNaxIIBAEACgpz54ur/Rlmi8c+oAUGNMtuUZebGubawYAAAaAwMUrbYJDVTr1lUbmPvBDTNii6vsie4D7BgAABoDAwyDggqZavjQip23QwIapUT6/qCxQIAQGNgEFEtrvwXy5Laikpdd48CTurfquQee4L7EIsFAICegGA57McmKXfrNYpKXbePAhpntinzii8KA4IAAJCAYBj4o8iSozEVuj5mA7Qtvyi7vXM+EgAAQGNggIv/hwIG/tTjhMBGQgJ65Ma717BQAABoDAwQ39gktXtqFF3/9Zr01s6zs2NcD9sTmBIIAEBjYACO+ZXU0baoYgb+BORRQKvSy3NinbM5MAgAgJ6Aej7md1avSPUyKnHg3gpokNF6bHRunOtrFgkAABJQT6yUrUo7vQZRiQM9H6BlaZY93r2TRQIAQGNgHbNDllQblTd47gScktmu3M18AAAAGgPr8n1/Ufxdes2h8gbVXYAxV+fEOl/n1EAAABoD64jXbJJyNRU32N4KuLn4pMw2pUk5sa5lLBAAAHoCDOYrQaJsZdpfUKZ/y5JGmW19pwZuZoEAACABBrFJltQMAe/7B3k/QJOsdmWP2OPdu1kgAAA0BvrJbpukPqzXFipsSEwKVC/OjnFOz2NUMAAAjYH+jPq1qpNlyXERlTWUHgfcXHp9bhz9AAAANAaeMEtsUcXXUlFDcVJg2/LbxZdiO4sDAICegFqyTY5Sb6OShuqrgc3HnpbZrmxQbryL8wIAAJCAmrLLJikDbZHKaVTSEI58g3phZrtylaZAAAAaA2tU/K2qI9XquJAKaoY3A1qUXJXV3jnFnuDZz+IAAKAx8DjsE4y3RRVfQeU006CgNuXW7BjnAvHFqGZxAADQGPg/VAvmi6t/iYppRgloWdo6O9a1noUBAEBPwG+xSeqPvSLVVlRK8w4JapDeurRnbpxrGwsDAAAJ8BV/q7rVJil3cryv+YcENclsW5Zuj3dvYWEAAIR9Y+AW2ar0lyUm/YVF+rQac15W+/LH7AnunSwMAICwbQzcIa7+H021Os6lMoZXU+A/c2Jd7rwED68HAgCEX2PgblH8nYJ/UhHDMJmtSq/KiXG+y5sBAABhJQHV6a1K3pEj1SuphGHcFJjRvOQyIQGfIQEAAGFBdWGyd3HZoNcix2TNbkglDPc7ATeXXpkT51qex+mBAABm5khBkndVyYBXb9Q0jY5/or8ZUNwoo01px9w412dIAACAORFX/kseuGtKD/fItxtT+chvJaBJVnTZHfZ41yoWCgCAuRBX/muH3TYhrWTwG6eKq3+KHvl9MlqPOT0juqxfbrx7AwsGAMAc5Cd5Nw67fULuU9kvn0PxJ8dNn1ZjTu7XtiTVHu/mCGEAgFAv/omeXSN6TurveuDt0yj+pEbp16p0QG6cewcLCAAgVIu/d7Mo/umi8NPtT2rRE3DT2DPS25Q9bk9gZDAAQAgW/58Hdxt/X/HgN86gopFaJ71N+QVZ7V2PIQEAAKFV/Ad1Hff0w31evIjb/sQ/CYh2PmFP8PA4AAAg+Iv/TlH8n306Z+YlvOtPjJCAMzLaOR/PS/DsY4EBAAQpiZ59g7uNe9Yz6p1zufInxr4mKCSAOwEAAMF55a8Xf1H4OdaX1M2dgMxo5xO5ce7NLDgAgKB65u+78qdSkbp8O+CC/q3LHs2JcyEBAABB0vB37Jk/RYrUvQSkty4dlRvn3soCBAAIXPEf0n38aBr+SL0mrcXY0/u1KZFzYl07WYgAAAGZ8JeuFL16Jlf+JCDp02LMvTkxrg15CSxIAIB6uvLfqI/3ZcIfCWjkG9ST+7Uq6ZMT61omJICjhAEA6rL4J3m/G9R9XM7Y4W+eRgUige8JuEE9JaNtaffsGOdn9gQ3EgAAYDxHCpO9S4bcOr7P/alTzuK2PwkiCShu0u/msclZ7cuXiy9qNYsVAMAwqgsSvatG3DGxe8ngN06l+JOgS2qUo1Gf5sVtsto7VyIBAADGFP/CJO/i5zJnSE9lzGhM8SdBnfQbSy7Lbu98x57g2c3iBQA44U7/PYXJFe8V5828lspCQiJpzRwN+rcovTI7xlVuT3BvYyEDANR+tO/ALlWVj/V+KXLKqPl0+5PQSmbb8suz2pc/Yo/nOGEAgFpO93vmoV4vXMOAHxKy6dNqzHmZbcvSc+Nc3AkAAPi74t/Bs/2+2yfkP5M780KKPzHBGwJqk36tSu7MjnWtpzkQAODPm/3Elf+GEXdM7OUonEWnPzFXX0B6i9I22dHOf9sTPPtY7AAAv7K/IMn78ai7psa+8OhHPO8nppSAk/rdVHJTVnT5C7lx7r0segAIexI9u4s6Vk4Zcefkm7jlT8wvAi3GXpfRtuzZ3DjXLjYAAAjj5/27izpXloy8c+pVFH8STn0B56e3Li3KiXH9xEYAAGHIjkFdxw0fdvv4i3neT8JPAqzqqRmtSm/NjnF+xUFCABBGM/1X3Ndj4j0Py9PPoBKQMH8kUBqRFe2cYo93MzkQAMx8y39PUefK6Q/eO83KLX9C/vtI4OKs6PInGRoEACYd67tlUJeqpx/rN/1ybvkT8j9JiXCcnh1dnp0b516dl8CGAQDmoLBjxcoh3cblzVbnn85OT8hxkt6mvHFG27Ku2TH6YULuQ2weABDCHBrQqeLt+++e3HWqY/7J7PCE/F1PQMvik/q2HHNtRpsylz3evZNNBABC8Jb/TlH8qx5MmRzluv+tRtz2J6SW6d+yJDU7xrXcnuDmLQEACIku/4Ik7+oh3Sf0V9JncsufEH/S96Yx+vTAWblx3A0AgKDu8t9VmFzx+og7JiZwxU+IEY8Emjka9L1h7OUZbcoeyol1rbXTIAgAwXfV/21Rp8rHRt897V9TRs3nFT9CDBWB5mPP7t+q9Las6PIF+oJj0wGAoBjsk+T996Cu4+4ccdeUc7nyJ6SOkhrlaNT/xrH/Sm9d6s2N4y0BAAhwl3/nyvIH75nyfyNTpjRmhyakHtL7BrVJv5Zj07PbO5flJXg4WRAA6pMD+YneJYNvqer1ZPpLTdiRCan/3oCT0luUXi8koCQ33r1eLMpqNiYAqOPX+34u7FgxcVDXce2e6TWjETsxIYG9G3BeVrvyPrnxro+YIAgAdTjR75NBnavsI3tOuoRn/YQEz92ARtnR5frrguW5ce5dbFYAYCC7B3SprBx+x6RWlUPe45Y/IUF4J6BBv5vGnpfRqrRXdnvnVwwPAgC/X+9L9i4Z2XNyypOZM84f9/hcXu8jJNgjS47L01uXPpcT61onRICNDABqVfjzE70/DOxc6Xgs/cXLuN1PSAimT4uxd2VFl8/1TRGkPwAAajDNryDJO2dIjwm3i8J/ErsoISGalAhHg943jLkyvXXZsKz2zkWcMAgAx3unX1z1Ly1M9j44tNu4a0bfO7khOygh5ugPOKVfq5Lm6W3LlJxY53Y2OwD4DfsLkyvKBnSsjBl66/gzuOVPiBlFoPmYs/q2LEnKbFf+iT3BfZiNDyCsOVyQXLFocNeqboM6VZ09ujtX/YSEwx2BM9Nbl9hzYl1LhQjsYyMECCv2FSR5Px/UpTJv1L1TzuGKn5AwTFqLkuaZ7cqKc+Pc3/C2AID5EYV/VVHHSsfQWyfdIAo/r/UREs5JiXCcnt6mvEdWe2dVbpxrC5skgBlH+Hq3FnWqnDSk+4SulUPeO5WdjxDyiwQ0SGs+tmlGm7J7sqOdr9jj3XvYNAFMwcHC5Ir3B3cdJz+QOu2ScU/N46qfEPLH9L5BbZTequyC/jeX3J3RtmwV0wQBQnqYzzcDulRm3nf7xIsf6z29Mc/6CSE1inyD2qTPTWNyMqPLF9nj3bs5bRAg6NHX6E5R+BcWda4sGDPkdW71E0JOLPqRw72vL74uvXXpQ9kxzo9y41y8MQAQpJ39go8Lk7wj77tjIuN7CSGGiUCj3jeOaZ7Rpux+IQKf5cYzURAgWCb4FSR6FxcmVYwqSKpoMTxxXGN2LEKI4elzrXpy3xZjW2a2LR+eE+NcRo8AQABP6kv0rihKrnxgYKeq1g/fNY3b/YSQOr8b0KD/TSWnZtxcenVGm7IRQgQ26JsRGzJAPTX3dfBsHNCxctTQW8ZHDOs64bRnes2gs58QUv/pH13aJD26LDc71vmpPcG9PS+BZkEA4zv6Pdvyk7wLB3WrKnyp9N+nsfMQQoLnzkDL4ksy2pYWZrd3zsmNc/3EZEEAIwb4eH4qSPLOGtC5omC0POVypvcRQoI28g3qlemtSntlRTvH58S6fkAEAE6o8K/LT/ROL0zy9hl+2/hLKPyEkJBIapSjQe8bx1zUv3VZl4y2Zc9ltS9fy6MBgL9/jz+/g2e9KP5lhckVXQs7VVxe2LmCE/oIIaGXlAhHw143Fp+Z0ba0Wb9WJUOzop3f5sb73hxABgD+O7xHf8b/XV6S+/6iDl5rfpL3nCHdJlH4CSEmejwgOc7o27LkLiECrwoRWGdPcO+nAECYon/3vxe8Wtip8o7Bt46nsY8QEhZ3Bs7o17IkKTO6XLHHu/W3B7bkJVAUICzYnp/o/aQgyasM7FgZM7r75JPZEQghYZf0m4sbZrQpaZ7V3pmRHeMalxPrWs1wITDpwTzrRNF/qSDZWzioS+WNz+a8chI7ACEk7JPWzNEwrXlJ08y25dGZ7coHZkY7FwkZOMBdAQj1o3gFnxd0rBhWmFzRYdAtlZePvncyo3oJIeTPYrMqp/RvXXpp/1YlHdPblFZmtS/fbOcNAgitoT0bC5O9pQM7VyQXdqy8bFD3cadyOA8hhNQyKRGO89Oaj7Vltil/IzfWtUafNiiEgMcEEFRH8Ar+k5/gniGK/x3DE8edzsolhBDjRKBx7+uLIzNalxVkt3dOzY1zL7LHu3dRgCBA7BZ8JWT0ZcHQvASvNbOdk9v7hBBSxzJwet8Wpa2y25cX5cS6KnLjXEtz490HKEpQpyR69uQneT/LT/RWib8fkNfBG5/T3n0eK5IQQupfBBr2vankgqx25a0z25X3zox2erJjXCuEEFCswLBGvvxEz/KCZG/pgE6VKUWdKm8a2HnchUO6TaKLnxBCgkQGGqW1KD1XiMAV6a1LOmS0KXs6K7p8SU6s6xCTB6GWz/QP5SV4VtgT3CVFnbxJhZ0qmg3oUnGOkj6Tok8IIaGSe69TLunbsiRXiMF0IQNfi019o4BXDOEX9gk2ClbZ492vie/IiJz27ghWDiGEmCiy1XFZ/5alPTPblSnZMa43c+PdS3Qh8F3xUQjDBf1nvUF/P18fwyuK/lP2BE9Pe6L7YlYIIYSYPCkRjgayVWma3qYkJjvG2dse535QiMBkUQw+F2yxc3fAbOzVr/AFM/ITvaPyEz22/ER360FJ3nOGJ45jQRBCSLgmrZmjUVb78kuEDLTMiXV3zol15QmqBEtz49wU0BAj/+hBOwvzEr3jC5K8gwsSvXeK/xwtCv8Vo7sziY8QQshxkt6qrElm27LzsqLLr8hu77wps215Vk6My5kb55on2E9TYdA17e23x7vnib8+n9fBfY/46/WCy8TV/vkDu1SdIop+A77VhBBC/ErvG4obpLUY0zwzxtkrN9b9TE6s6117gnuFKDjr8hI8Pwv26ONgKcyGcVigD3z6+djxuavE571AiFhZTpwrW4hZi5z2bgo8IYSQ+s+9kcr52THOWFGM0oUUPGyPc1eJK9LZ9gTPfMEywTpRtHZy5+Cvr+TFZ7TXJ1IdPCsFC8QV/Kv5Sd6KguSKEXkdvH0LOla0zk3wXMA3jhBCSPBKwXXKWdmxzmvF1Wl8Tqz7HnHFmieK2oP2eNd4UehmCSmYJyRhpeB732uJYTRCV/x51+YleJYK5or//EJuvFufrDdKfEYDxOdzjz3e09HewX3dkG6TzuEQHUIIISGfrLZjG2S1K2maHeP8V26s25oT44oWRa9DbrzrdiECsvjrMFEQnxZyME0Ux1cFS8R/v0awN2Sexyd4fj4mNivFFfz74u9fKEj0PCP+2X3i73uJv+8u/swJ4p+3tsd5IrPjXJdltCm7ML1VGV8QQggh4Zde149pmN6u9NTsOOeZojBeIK6CLxIycIUQhX/Z49wRooBGCjG4MSfOdXtOvCtdXCGn5yW5HxD/O5eOKKwzRFFdKCRi8W8pSPIuLuxY8UX+0Vfh/rp7PtG7Rf/fCvT/z+K8Du5ff52cWNfnOe1dr/7y78uKdj2q/z58xDg7iX+3Vf895iW4rxEF/p864t/9f3nxngsGdPSelZfoOVVc0TfkJ01IcOT/ATK8Q60zIWnNAAAAJXRFWHRkYXRlOmNyZWF0ZQAyMDIyLTEwLTI5VDE1OjA1OjEzKzAwOjAw1aeJDwAAACV0RVh0ZGF0ZTptb2RpZnkAMjAyMi0xMC0yOVQxNTowNToxMyswMDowMKT6MbMAAAAASUVORK5CYII=;" vertex="1" parent="1">
          <mxGeometry x="-16.91" y="860" width="32" height="32" as="geometry" />
        </mxCell>
        <mxCell id="sMOUUsySO7USkykY8Pia-162" value="" style="shape=image;verticalLabelPosition=bottom;labelBackgroundColor=default;verticalAlign=top;aspect=fixed;imageAspect=0;image=data:image/png,iVBORw0KGgoAAAANSUhEUgAABAAAAAQACAYAAAB/HSuDAAAABGdBTUEAALGPC/xhBQAAACBjSFJNAAB6JgAAgIQAAPoAAACA6AAAdTAAAOpgAAA6mAAAF3CculE8AAAAB3RJTUUH5QYCAR4JA0vw9gAAAAZiS0dEAAAAAAAA+UO7fwAA6iJJREFUeNrs3QfMHtd95/tIsbOWIRu7Mi5gIwEcwxdxAGGxixjIGggQZIG7FzAM3IsscIPNtbHekJJIsahRhRIlSlQX1SyrW4UqVrGaJVnN6l1Wo3oh+fbee3veZ2b+e34zQ4mUSOqtz3POzPcD/BfZxJbeZ8o55/+fU/7sz4A9mNnBLr7h4t+7+K6LH7j4kYv/6uIXLn6ZxxoXF7m4Ko8bXDzp4o083nTRYgAAAADmoyUfS+8eVz+Zj7V3j7svysfiu8flv8jH6j/Kx+7fzcfyGtMfTIYDQIn+QS4OdfGXLv7WxT+6+KmL/+niZBfXunjUxQ4XY7TDAAAAgNfG8rH7o/lY/uR8bP/TfKz/t/nYXznAQWREQLG/6h/m4u9c/LOLf3OxxcUVLu528ZSLRheDtJsAAABAoQzmY/2n8rH/FXku8G95bvB3ea7AbAEg4KT/Oy7+i4ujXVyZVwJ3T8vvpx0EAAAASq3fPl9u8GieMxyd5xDfIaMC/E/6D3dxiosHXXzgos3FsIsK7RsAAACAA6jkuUNbnks8mOcWh5NpAfVN9L9p2eYe/9HFz13c4qLDRUy7BQAAAGAJxXmucUueexye5yLfJDMDlifh371hn142beJxuovH8godAAAAANRKt2VLBja5+L/zHIWNBYElSPy/7uJvXPyrZZt1PE/SDwAAAMADmhnQl+coV+Q5i3KXr5PJAfP72v89F/9i2fEdL7nopH0BAAAA4LHOPHe5Ns9llNMwKwA4QPL/fRfnuXjXRa+xeR8AAACAsFTyXObdPLf5PpkekCX833LxQ8umyzzrYtpFQpsBAAAAoACSPMd5Ns95fqAciEwQZUr6D7Zs18x/cnGxi09pFwAAAACUgGYFbM1zIeVEB5MhosiJ//dd/NKyIzTajK/9AAAAAMolyXOhW/Lc6PsUAlC05F9TXda7eMayYzNi3nsAAAAAJRbnudEzea70AzJHhJ74a33/ZhfvGMf3AQAAAMC+DOc5k3KnH5JJIqSk/1AXh7u42sWQMc0fAAAAAOYiyXOoq/Oc6lAyTPia+H/bxU9cnG3ZVBYAAAAAwMJ057mVcqxvk3HCl8T/ay7+wbLdLD9yUeVdBQAAAIBFq+Y51tY85/oaGSjqvbnfFsuOs6jwfgIAAADAkqvkOddZLr5HJop6rPP//1287mKC9xEAAAAAlp1yr9fyXIz9AbDsif9hLn7m4ikXM7x/AAAAAFBzM3lOptzsMDJVLHXif4iLH7u4zjjODwAAAAB8MJznaMrVDiFzxWIT/4Nd/LWLDS62u4h5xwAAAADAG3Geq23Ic7eDyWSxkOT/6y5+6uJhy86iBAAAAAD4aSjP3ZTDfZ2MFvNJ/r/p4kIXHS4i3iUAAAAA8F6U53DK5b5JZosDJf0HufiWZRtJvG9M9wcAAACAEMV5TvezPMc7iIwXeyb/f+7icBdbXfTxvgAAAABA8PryHE+53p+T+ULJ/1+4+H9cPO1ilncEAAAAAApjNs/1lPP9BRlwuZP/77g4ycUO3gsAAAAAKKwdee73HTLhcib//8nFAy5GeBcAAAAAoPBG8hzwP5ERlyfxP9TFL1w0uUh4BwAAAACgNJI8F1ROeCgZcrGT/79ysdnFNM89AAAAAJTWdJ4b/hWZcvES/6+5+LGLbZadDQkAAAAAKLcozxGVK36NzLkYyf8hLv7ZxXMuZnjGAQAAAAC5mTxXVM54CBl02Mn/N1yscdFsfPkHAAAAAHxZlOeMyh2/QSYdZvJ/mItLSfwBAAAAAHMsBCiHPIyMOpzE/2AXP3Jxu4uYZxgAAAAAMEfKIW9z8X8qtyTD9j/5/3sXfzDW+wMAAAAA5k8nBDyQ55YUATze6f+/uXjZRYVnFgAAAACwQJU8t1SOyQkBHhYAtGvjDmPaPwAAAABg8eI8x/xnMm6/jvn7pWXTNAAAAAAAWErTec7JMYF1Tv6/7WKVi16eSQAAAADAMunNc89vk4nXJ/n/9y7WuWjhWQQAAAAALDPlnqspAtTny/+5Ltp5BgEAAAAANSwCnEMRoLYFgItdjPHsAQAAAABqTLnoxWTmtfnyr+R/lmcOAAAAAFAns3luykyAZUz+zzG+/AMAAAAA6m/MWA6wbMm/Nltgwz8AAAAAgC/YGHCJk/9DLDtugeQfAAAAAOBjEUA56yFk8IsvAPzSsjMXAQAAAADwkXLWX5LBLzzx/5qLf3YxzbMEAAAAAPDcdJ7Dfo2Mfn7J/8Eu/puLHTxDAAAAAIBA7Mhz2YPJ7Oee/P+9i5ddxDw/AAAAAIBAxHku+/cUAeZWAPiRiz+4qPDsAAAAAAACU8lz2h+R4R84+T/Mxe0uZnhmAAAAAACBmslz28PI9Ped/H/DxWXGtH8AAAAAQPjiPMf9Bhn/3sn/IS7WuIh4RgAAAAAABRHlue4hZP57H/fXzLMBAAAAACiYZuN4wM8KAD928Zzx9R8AAAAAUDxRnvP+uOzJ/1+52GZs+gcAAAAAKK6ZPPf9q7Im/4e62Gx8+QcAAAAAFF+U58CHlrEA8AsX0zwDAAAAAICSUA78i7Il///ZRRP3HgAAAABQMsqF/3NZkv/vuHjARcJ9BwAAAACUTJLnxN8pevL/Fy5OcjHCPQcAAAAAlNRInhv/RVGT/z938f+62Mm9BgAAAACU3M48R/7zoiX/B7k43MXT3GMAAAAAAFJP57nyQUUqAHzLxVYXs9xfAAAAAABSs3mu/K0iFQB+5qKPewsAAAAAwF6UK/+sKMn/N128zz0FAAAAAGCflDN/M/Tk/+suLnQRcz8BAAAAANinOM+dvx5q8n+wi5+66OBeAgAAAABwQB15Dn1wiAWAv3bxsIuI+wgAAAAAwAFFeQ7916El/4e4ONHFEPcQAAAAAIA5Gcpz6UNCKgD82MV27h0AAAAAAPOiXPrHoST/h7m43tj4DwAAAACA+YrznPqwEAoAP3MxzD0DAAAAAGBBlFP/zPfk/1AXT3OvAAAAAABYFOXWh/pcAPi5ixnuEwAAAAAAi6Lc+ue+Jv8/cPE69wgAAAAAgCXxmovv+Zb8f83FFhcT3B8AAAAAAJaEcuyzlHP7VAD4Bxfvcm8AAAAAAFhSyrX/wZfk/9sutrqocF8AAAAAAFhSlTzn/rYPBYCfuPiIewIAAAAAwLJQzv0TH479O8dFlfsBAAAAAMCyqOa596H1LAAc7qKbewEAAAAAwLJS7n14PQsAV3MPAAAAAACoiavrlfz/0MUQ1x8AAAAAgJpQDv7DehQALnCRcP0BAAAAAKgJ5eBn1jr5/4GL97n2AAAAAADU1DvKyWuV/B/sYr2LYa47AAAAAAA1NZzn5AfXogDwfRfPcM0BAAAAAKgL5eTfr8XX/18aR/8BAAAAAFAv3XlufvByFgC+6+IWFzHXGwAAAACAuojz3Py7y1kA+CcXbVxrAAAAAADqSrn5Py1X8v9tF5cYR/8BAAAAAFBvys0vdvGt5SgA/NDFp1xjAAAAAAC88K4tx5GA7h/6r1xbAAAAAAC88q/LUQB4lusKAAAAAIBXHlvq5P/7Lqa5rgAAAAAAeGVCOftSJf8HuTjP2PwPAAAAAADfJHnOftBSFAC+Z9nGAgAAAAAAwD/K2b+3FAWAf3HRx/UEAAAAAMBLytn/ZbHJ/9ddXOtilusJAAAAAICXZvPc/euLKQD8jYuXuJYAAAAAAHhNufvfLGbzv3910cl1BAAAAADAa8rd/8dCCwCHuriCawgAAAAAQBAucvHvFlIAONzF81w/AAAAAACC8IQtZBmA+y/91MUw1w8AAAAAgCB0u/i/5pv8f9PFGVw7AAAAAACCEbs4XTn9fAoA33XxGNcOAAAAAICgPKqcfj4FgP9oTP8HAAAAACA0WgZw+HwKAD/nmgEAAAAAEKSfz6cAcCvXCwAAAACAIN06nwJAB9cLAAAAAIAgdcw1+T/csp0DAQAAAABAeJTTHz6XAsBGrhUAAAAAAEHbOJcCwINcJwAAAAAAgvbgVyX/33HxAdcJAAAAAICgKbf/zoEKAD9x0cZ1AgAAAAAgaMrtf3KgAsAaF8NcJwAAAAAAgqbcfs3+kv+DXVzposJ1AgAAAAAgaJU8xz94XwWA/8PFE1wjAAAAAAAK4TEXh+2rAPD3LrZzfQAAAAAAKIS3XPx4XwWA/+6ilesDAAAAAEAhKMf/7/sqAKxw0c/1AQAAAACgEJTjr/hi8n+Qiy1cGwAAAAAACkW5/kF7FgAOdXEF1wUAAAAAgEJRrn/ongWAv3TxO64LAAAAAACFolz/L/csAPyti6e4LgAAAAAAFIpy/b/dswDwjy4auS4AAAAAABSKcv1/3LMA8FMXg1wXAAAAAAAKRbn+T3cn/we7+J9cEwAAAAAACkk5/8EqAHzDxclcDwAAAAAACkk5/zdUAPgPLq7legAAAAAAUEjbXHxHBYDvuniM6wEAAAAAQCEp5/+uCgA/cLGT6wEAAAAAQCEp5/+BCgA/cjHG9QAAAAAAoJCU8/9IBYD/yrUAAAAAAKDQ/k4FgF9wHQAAAAAAKLT/TwWA/8V1AAAAAACg0P4XBQAAAAAAAEpSAFjLdQAAAAAAoNDWqgCwlesAAAAAAEChbVUB4GquAwAAAAAAhXY1BQAAAAAAAEpSALiB6wAAAAAAQKFtUwHgKa4DAAAAAACF9pIKAG9wHQAAAAAAKLQ3KAAAAAAAAFCSAsCbXAcAAAAAAArtbRUAWrgOAAAAAAAU2uSfcQ0AAAAAACg+CgAAAAAAAFAAAAAAAAAAFAAAAAAAAAAFAAAAAAAAQAEAAAAAAABQAAAAAAAAABQAAAAAAAAABQAAAAAAAEABAAAAAAAACgAAAAAAAIACAAAAAAAAoAAAAAAAAAAoAAAAAAAAAAoAAAAAAACAAgAAAAAAAKAAAAAAAAAAKAAAAAAAAEABAAAAAAAAUAAAAAAAAAAUAAAAAAAAAAUAAAAAAABAAQAAAAAAAFAAAAAAAAAAFAAAAAAAAAAFAAAAAAAAKABwCQAAAAAAoAAAAAAAAAAoAAAAAAAAAAoAAAAAAACAAgAA4HOzidlg1ay9kljDdGIfTCb2/kQW77p4bSy2l0b3Ha+Nff6fVXzk/rstM4m1uuh2/+CxyCxKuMYAvkxtg9oItRWtebuxc2rvNuUN18bsv/2J0zZq939WbZfasE7Xlg1Vs7YNAEABAABKq282S9DfHk/s+ZHY7h+I7fa+2K7siuyC9sjObI3spOaqbWjK4ngXR+2q2r/t3Hfo/7b7P6s42f13z22L7Dz3z7qkI7Lru2O7w/3z/zAY24tuwP7eRDbIV8GBsTlQDnrXR12i3z6TJelqC9QmqG1QG6G2Qm2G2o4zWqK92pQ1DQduf47f4z+rtktt2Fb3z7vKtWlq29TGqa1Tm6e2r4+qAABQAACAopqOzT6ZSuyhwSzJ1wB7sxsgn+gGy+sbq3bEAZL7pQwN1I9pVIEg+/ef5/6Oyzsju7U3smeG4/Sr30zM/QKKQDl203RiL7hE/+7+7F1XgfEs9+6f4toAtQVH1ajtURuntk5tntoetYFXu7bw0aE4bRunaXcAgAIAAIRG37Q0nbbiosP9P8+MZAn/hjzRX+UGwSt21mbAPd/B+dENWXFAf6u+2j3mBuY7XPKgL4ZKJPS7+GYH+Nnm6B2ddEm0pt4/7dqdq/J2R++0vt4fucu/dkdt4eqGrG3U36q28rmRxHpnszaUNgcAKAAAgJc0WB2oZtNqf9sX2ynN/g22FxpKHvTV8K7+2N4aT9LCxkhkVmVkDtSFEmO9g3oX9U7q3dQ7eqBp+iGFCpKntVTTtlRt6qBrbFgxAAAUAACgrjQe1SBcG+5pHe2lHZGt3FmcxH9/X+z0pe667sgeH4rT3z7AJl/AsptNi4xZe/PUcJy+g3oXVxS8zVGbelln1t5oqYBmJNHcAAAFAACoGX1966xYumb+2u44XU9/xK5iD8L3F5rp8OuuyO7pj+3N8TidustSXmBp6F3SO6V3S++Y3rUizS6a76yAU1siu861uWp71QZzsgkAUAAAgGUdjLfNJHZXX2xnt0W2rrGcA/H9Dc71NfIcd11u6ons1THt8s0zAyyE3h29Q3qX9E7p3SprkXFfobZXbbDaYrXJFB0BgAIAACxp4q9pp3e6waZ2sD6SgfhXFgPWNmSzA250CYzOBdcO3zFf64D9tjE6fePTqSR9Z/Tu6B0i6T9wqC1Wm3zfQGxjEbOPAIACAAAsgjb265lN7MnhJD3jmgH3wuPUlqo9PBhb43Riw1Wm7gIqiKmw2DyT2B+HkvRoPtqKhYfaaLXVarMrtC8AQAEAAOZKyWmLG5Rr0ykNyvkKt3Sh47509vezI1kxgIE6ymb3EaEvjsZ2Q085NvKr5ewjtdlqu9WGU2gEAAoAAHBAmkaqweO5bZEdReK/7AN1HV+2fTyx8YhnD8WmZ/y9icR+5575C9sjW0X7smyhtlttuE5LGKNtAQAKAACwLw3TiV3VVZyztEMpBJzUHNkVnZG9MBLbBIt4UcDE/8nh7JjQMp8YUq/NAtWmq20HAFAAAICUNqh7ziWfG5urtpLBeV1CU6BVeDm9JbJHh2IbjtgnAOHSszvinmE9y3qmj25gmn+9Qm36JncPXhrNNiMFAAoAAFBSGgu2ziTpmnR29vdvr4Db+2LbMZUwhRfBmIyzmUT39Mfp2n7eZb9ODPhNN8cGAgAFAAClpGm5b4wndiY7b3sdmhVwY0+cHiU4wjFf8JSKVHpG7yLx9z7U5r/BviMAKAAAQDkogeyqWPqF7thGBsOhxAkuqbq+O053TtfyAFYHoN70DOoYv9fHYrupJ06fUd7VMEJtv/oA9QUUFQFQAACAAg/Ydea2NuM6mo3+gtwnQAP3S9z9e3mUIwRRP3r29AyqLVHiv5L3M7hQH6D7pz6BpgQABQAAKGDy//FkYptaGKwXoRCw1g3eL2qPbPtEtrEXA3jUog3Rs6ZnTs/eWjb2C3+DQBdb2qr2yRRFAAAUAACgMKpuZPeBS/7X8tW/kMcIXuCSsdfHExuu8qxjeexe439xB8f4FTHUN6iPqFIFAEABAADCpl25Xx1L0vO3GegWe4fva7qiNEnj1AAslSnXfnzoEkNtRLmGAmKh4xTXR/zJ9RWTbAoAgAIAAISb/D85nNgJTST/ZdosUBuyvTWepMkbsBBa469p4Xf1xXYim/uVZmnRSc1R2mdQBABAAQAAAhzAPz4U2/EM3ku5rldJ27ae2JqmmdOL+WmvmN3SG9tpLVE6s4R3qlyhPkN9B5uMAqAAAACBiN3A7fY+dvpnWUA2I+BRN5gf5ehAHICejRH3jOhZ2dBE4s8JAdW0D2EiAAAKAADgOe3SrfOd2emf2HNGwBmtkT03EttAlUIA9k789Uw8PRyzTwixd7uxq2oPDsRpnwIAFAAAwEOzbjT/7EhixzQyeCX2fWLA5Z2RvTme2DgbBZae9oh4ZyJJnwl29if2FepL1KfMUjUEQAEAAPxL/pXYndrCVzziwHGsG9Tf1hvbjqmEKb4lpHvePJPY3f2a7s/7QBw41Kdsn0gsoggAgAIAAPhB47KG6cTObovSnZwZtBJzmQ2gZQGPDGb7A6ActLv7syOxndvGOn9i7qcDnOOel0bXx1ADAEABAAA8MFw1u6A9StdsMmAl5hOrG6p2XnvVPtVsAEb3haWv/i0zZpd0RLamoUqhkJj3fgDqY9TXAAAFAACoo4nI7NIOpv0Tix/g39kXW3uF9b5FonvZ6e7p/QMxBUJi0XFpZ5TuHQEAFAAAoA40ELuXHf+JJZzqe3pLlO4IP8hpAUHTvdM91MkPWhpE8k8s1YkiOhmAIgAACgAAUGMaf704GrPjP7Hksbahatd1R/bRJCWAUOne6R7qXvJME0t9MoD6HmoAACgAAEAN7ZxK7OxWNv0jlu9L36aWyJ4c5mtfSHSvdM9075gZRCzXTCH1PeqDAIACAADUwFDV7IaemLO7iZrMBvh1V7YDOHUAf+ne6B5d1hnZ0Xz1J2pwioj6oCE2BQRAAQAAllclMXt0KOYIL6Lm034fHIytf5Z30De6J7o3LAciahnqgx5zfRGbhgKgAAAAy+jDyYSBPlG3uLwzsk+mEpYFeED3QPdC94Rnk6hHnNBUZa8QABQAAGC5jEVm57ZFpZliqsHlWa2RXdYR2Y09sW3r/Txu74vt7v7P//83u7imK7Kt7Vmc1hLZsRRKliVOaa6mx8r1MhugLlR76apYeg90L3gml/7L9omu7VEborbkSteu3PyF9kenr/y2b+//3fXdcXokq9ostV1lWaKlPkl9EwBQAACAJaap/0Xd2OuoXdlAUon9syOxvTuR2KdTibXOJC7RTGzUDTDH94hJlwXNxJ///zUA1bFnXZUkDa2H/mQysTfHk3RTtDvdgF0DeR1zdxTLJxYdWmf+q87IPnbXOOIDYM3oWuuLK2v9l67dUZugtkFtxEujWduzYyprQ9SWDMxm7cue7Y+mvU/Fe//vhl370zObtVlqu/TPUVumNk1tW1HbHfVJ6psAgAIAACyhNjeo1EC1SIPGdIM5l8i8OJpYhxtoj1SzQfVSJpT6R1Xd/zOdD9a1aVW7u5avuH+nBuZntGRf/HROOicqzPMeumumWRZ/HI4tpgiw7HSNda11zVdSxJr3zvW6ZkrCz3PJuGYPvTGeWKdrd9QmqG1QG7HUz3GUFwrUtqmNU1unNk9tX5GKueqb1EcBAAUAAFgCE24AeWNPFPyUUv39xzVV7aL2KE1kxj35aDTkBv/bXTLwO5cUXOD+tpOaI1vD19V5JVdKapTgVMkBlpyuqa6trjFFqrk/k+saq+m7rHda77be8UlP2hy1fWoD1RYeV4DlAvr7t7k+aoaJAAAoAADA4mg8pS9VWpMa8mD8lOZsHf/b7rf4PEjUR6zmGTc4H4rT4++0nleJBInXV9/jze5aaWbFOOuBly5RdNdS11TXlmdwbkm/3tnruyN7biRO32WfP0yrLVSbqLZRbWTI91h91Fvut1ADBEABAAAWYaBqdo0bzIY6XfR4Nyi8pTdbVzsR2NchTd3VOuAXR2O7tTdbx8u666/aFTyyu/pj62GDwEXTNdS11DXl2Trwpn2a1q+v/HpX9c5WAstC1TaqjVRbeXxTuMu6VHjRkgoAoAAAAAugqb8vuAHt2oYwp4Re0hGl026LsEO0vsRq74A3xpJ0R/ATmki89her3POqadfaSA0L88FkYue7a7iKgtN+Q3sh3NAd22vunWyvJIWYfj6WL0dS2xnisgD1Va+OsTEoAAoAALAg2lU6xGP/NA33nv7Y+mezJQxFot+jdcTdLuF4YTSxs1rZQHB/cXJzZI8Nxd6suw6BrpWumdau8wzteyO/jc1Ve2o4Tnfon4iK2cao7VQbui7Ao0w1G2OYWQAAKAAAwPzdNxAH99Vf628/LtGXX/3S1hmzO/tiO7M1292bYsDez8SVnVE6LZuvgvuna6NrpGt1BDv875X0653a1BLZzT3ZrJIy1ZO0LEDtSmjPhPouAKAAAADzoC9bJzYHNO3bDVCv7oqsr8Rrv3vdb396OLZfuSTueJYI7BWbWqr2p7E4uLXZtaBromuja8Szsvf+IVe6NkXvVG+J2xW1qWpbVwVUBFDfNcFmoAAoAADA3D07Egez8Z+OzLulN0o3LER25vdrLqHb1hun05X5opvFMY1Ve2QoZpOwPeha6Joc08jzsfuL/0nundGu+K+6d2iCD8kpta2aAbE6kLZEfZf6MACgAAAAczAY0Np/rVG9fyBL6vi4+zldC20cuGsqsYcGY9vAjIDPikVK7jqZCpBeA12LNWz0l58gUU138v9oMrHRiPbki+2J+oX7AtoXQHsBjDELAAAFAAD4ai+PhvFFcLVLXB5wyf80H3oOSLuT98wm6aZeoZ/1vVTHtqnA9WnJ1nPvpt+s365rcOQuvvgr8b87PToySdsSEv/90/VRm7u6IYwZP6+M0TkAoAAAAAek3ZMv7YyCSOLu7WdwN1/6IvbkcGxbXPJ3dMm//B7lnqGnh5NSnRKg3/roUJz+9jLfez37egf0LvCVeP7U9oZQPFJfxokAACgAAMB+6MuXvv4f6/nXf21G9ZvuiOPdFkFreh8ZjNOvwGUuBOgLsE5Q0HT4Ij9O+m36jfqtK0qe+OuZ17PPniGLKySpDfa9CHBcUzXdy4FZHQAoAADAPmjdq9YE+76501Ul3+1/KQs+7S4p1LnvF7RHpf0qrCTm0o7I3p9IbLaAmYJ+k36bfmNZp/xrI0wdZ6fEX888CeHi6WSEKzojrzeL1d92s+vTRpnlAYACAAB8mdYF+3583Dltke0s6drt5UwQO1xS9HCJNwtUonB6S2TPjySFOipQv0W/Sb9tZUm/+uuZ1kaYzdPu3tJwLBldSrXF53i+Yaz6NPVtAEABAAD2oI3itK7T5+nB2qzrldHEIsZyy/YMaCM0TRNf11At3VTxFfmpErf3RYX4QqzfoN+i31TKe9mQLe/QMz1D4r8s1BarTT6hye9nQX0bzwAACgAAsIf+WbMzWiKvN2y73w3iZkn+l53GyS0zOiIuSgf2ZVwzfnFH5BJHC7LYpL+5q2Lpbyjrrv43uWdXzzA53/JTm3xXn98bS6pvG2TPBwAUAADgc6+PJ14P7C9sj1jHWWMuf7K33XNxWWf5NgrUdHnti6C18yF9OdTfqr9Z07LLVrhZ655RrUnf7n5/lUJhTaltVhvt8/PxzgQPBQAKAADwmau7/B28rXcD+09Yw1k3/bOJPToY2+bWcq0j/2xfgNE4iH0B0vX+7m8t23p//dbdR/qN8JW3btRGr/e4UKg+DgAoAACAo3OS13l89J+ml7Luv740zbdhOrE7tD9AY7m+LGtK+R8G/S4C6G/T33hCyTZxPM49i/cNxNY0zVf/eovypQC+Pitqt4YpEAGgAAAAZs+MJN5+MdzUElnrDCN7H+guTMXZl76t7eWaYq4lELf2Rjbu4XIA/U3628q0TGNFvk9Dk2sbpmPjWD9PNLv7cXJz5O1MEfV1AEABAECp6cuhr8c4rdpVtWdH+LLnI33t02D6tJbI682/ljrp3NqhzeX82BxQf4P+Fv1NZSnGqE3Y0hrZq6OJxbQL3qnm7YKvbYIKlxWeGwAUAACU2YeTfh7hpIRGG3r1se2/t3RnOtxo+q7+2DY2l2fd+dltkb01ntT1RAr9u/U3nN0WlWad/ynuGbvbPWv9tAle665kG4eu8HQ5j/o8AKAAAKC0tH7Wx681xzTq63/MMV4BUD72vhtU/7orsiNLMhtABY8/Dsd1mZ2if6f+3Ruby5H865nSs/XeRDbdH37TLVLbfYyHe4Wor1OfBwAUAACUkjZEutTDs8L15eiids5tDk3vbGIPD8Z2fEk2otOmYg+53ztWw83F9e/Sv7MsGzHqWdIz1ctX/6Co7b7I031C1OexGSAACgAASkmbuWmTPd8GaKsbqvbEUMzGXgHSfo0fTCZ2gRv8H1GC2QBr0s0Ba1ME0L9D/641JdjsT8+OniE9S+wBGh7dMrXhqz18VtXncawsAAoAAEo5QNM04lW7/BygjTNLM2g6LeARlwCc1FwtxQZ12ohPO6Avx2Orf6aOudvaEZVio8VTmyN72rVNfPQPm9pwHwvMKqA9M0KBGQAFAAAlM+kGZ7f1+nlm89MjZP9FoQ23Lu0sxxF1mlq8HBuM6Su4plMX/fqtbcg2/myeJjUrChWZfXzW1PdN0s0AoAAAoEw6K9k0bR/X/I5E3J8i6a+a/X5Am9YVfzbAaS1V+8gl7EtxTKD+Gfpn6Z9Z9K/+p7dE9thQbCOszS6UAXc/fdwTRH1fJ+cBAqAAAKBMlFis93AjsW099dlZHctLSwL0JfvyzuLvDXBGa9VeGI0XVQTQf1f/DP2zir7WX1/9d0wlnM9eQGrL1ab79typ7/uI4wABUAAAUKZB2TPDiXdfY3VEE5szFZdm3Gp2x4ODfu49sZRftE9srqbr2BdybJ3+O/rvnliCGRN6FkYjYz12Qem+6vhG346a1XulPpBiMwAKAABKQbuJ66ubb8nAJR2RDTAiK0VS0DCd2PltUaELATq//r7+2IbmMa1d/1n9d44s8HVRMniuu/f6AsvbXnxq0y/xcAPLX7s+cIzlZgAoAAAog57ZxI5p9G8q8KNDMdOAS6R/1uyuvtiObSx2EeD67rkVAfSf0X+2yMm/7vVv3T3vqPDVvyzUpqtt923pz4amqvXOcn8AUAAAUALvTCTeJQY6Lu5D1mSWzkScrXX38biwpYwbe+L0KL/90f/txp640NfgzNYovdcT7L5eOmrb1cb79kyqLwQACgAACu/2Xv+Srau7YhtmB/BSUj6oTeCKfM69vn7qmMBdLtGPv/Db9b/T/62omyMemW/01/iF347yUNuuNt63Z1N9IQBQAABQeKc2+7cm+MGBmCnBJaZ7r6UpOp+7qImwftfm1upna98V+p/1vyvqb17XULUH3Ls9wFTr0r/fauN92wxQfSEAUAAAUGha8+hbsnFKc2TvMxUTlh1/9+pYkp4Lv7KgswF0Lvq77nlX+HhG+lIVO85pi9Ip1hGvNhy18WrrfXtO2QcAAAUAAIWm5Mq3xEo7gvczCMMetCTg8s7IVu4qbhGgqMn/UfnGh+0zPMf4nNp4tfU+PavqC18fo0IFgAIAgAK7pz/26mxxJXg39MR8JcSXE4aqpTvGH1fgUwKKFrpXd7s2ZoSZ1fgCtfFq630q6qkv1BIVAKAAAKCwLvNso7WjG6r2zDADMOzbpHs0XhqN0yUBJNh+h+6R7tUkrzP2Q2292nyfnlv1iQBAAQBAIen4rdNbI+++GOpMcGB/qkl2TN4lHcXdFyDkWJEv49GyjSozeXAAaut9m9Gz2fWJszy3ACgAACii1pnETvZsE6YtrXx9wdxU3CD9/v7Y1jaQdPsSuhd39sXpvQHmYotnRWj1ieobAYACAIDCeWU0tmM8+/pybz/zhTF3elqeGo7T3cRXkIDX9av/qe4ePO3uBW8w5kNtvk/PsvrE18Z4igFQAABQQA8Pxrbas6+nn0zx5QXzo6/Nb44ndn5b5N2RlmWII901v7gjSo8xZOo05kttvm/70Dw6RAEAAAUAAAW0rdevNdRaCzrOCgAswO59AbSBF0WA2ib/13VnU6ZJmbAQavN9WsajPlF9IwBQAABQKMNVs0s9OwFAm7qxaRgWKsmf6xt7OCGgVnF7b2yjUXbtgYUW77Z61hf9qjOiGA2AAgCAYmmZSezsNr8GXff0x+nZ0MBiZPsCJOlaXvYFWJ71/huaqvb0MF/9sXhq83/b69c+AOob2QgQAAUAAIXyzoR/JwC8OpbwJRFLQmvRX3PPk470YknA0oWu5Vnumr49zhF/WBp6jNT2+/Scb3R94/sTPOAAKAAAKJDnRmJb49G6y1UusWiYZsCFpaME9aPJJF3qQhFgadb7a2q0Nm3jyz+W0i7X9vv0jqpvVB8JABQAABQmMbp/IPZqevRJzVXr5PBwLDEN4Tvcc3VTT0wSv9j1/n2xdVVI/rH09I5qWYlPy1weGuRISwAUAAAUhDY3usWzNZf6SjtY5d5geWijut+6BPYoZgLMO3TNtD8Hm6JhuQx6uCntra6PnKACAIACAIAi6JlN7LJO/wZbJBhYTppg8tKo9r5gc8C5fgXVtdI1m2VyDpaRj0Vp9ZE9PPgAKAAAKAJNtzy/3a8CwONDbCqG5acPetvHEzu3jX0BvmqzP10jXSs+gqIWxbk/DPpVALjQ9ZEsSwNAAQBAITROJ3Zaiz8FgNUu2Xh9jIEWakcbTl7i2ZRjn0LXhk05UUvqA1Z7VJQ7ozWyJt4BABQAABTBjqnETvLoCMBTmqv28SQDLdRW+0xiV3exOeAXQ9eknTPQUWMfuj7gxCafNqaN0r4SACgAAAjeOxNJeqSXLwOtc9oiayHhQB30zlp6QsCRLAdIr4Guha4JUGvN04md3ebRzLSGqr0/Qb8EgAIAgAJ4czzxKvG4tjuyETYARJ1Mxma/H4htfWM5NwfUb9Zv1zWYZME/6kR9gPoCn96Nt8YpAACgAAAgcNpo76lhvwoAN/bENkEBAHWkCShPD8denUVeq9Bv1m9nEg7qSX2A+gKf3o3nRxKLeC8AUAAAEDJtavywZ7st39Ufs9M46k7FsedHYtvYUp7kX7/15dGYEzhQd+oD1Bf49H6or+QgAAAUAAAETVN8fTpveaWL+wdI/+FPEeDtcZ2SUfzkX79Rv5X8Br5QX7DSo3dEfSXLYgBQAAAQtPHI7Jouf9ZZrm3Iph8DvtCU30+nkvQc8KIm//pt+o1Mb4ZP1BeoT/DlPVFfOc7yNAAUAACEbLhqdnarP4nNMY1Ve2GEAgD8014xu9olAEU6IUC/Rb9Jvw3wjfoC9Qk+FcpGqtwXABQAAARs0A1mfJrefHJzZO9y1BI81TCd2PEF2hhQv0W/CfCR+gL1Cb68L6e3RGmfCQAUAAAEq2828WqK5alugPXxFAkJ/NNVSez67siOKtAMAP0W/aYudjaDhz6cTGyjRwWAYxuraZ8JABQAAASru+LXEYBntUbWQTICz/TMZsn/6obirf/Xb9Jv6yGxgWfaZhI7s9WvvTe66Z8AUAAAELIPJv0qAJzbFlkviQg8MhKZXVuwL//7mgmgM9dH2eAMHlFfoD7Bp3dlJ0tmAFAAABCyV8f8KgBc2hEZ+T98MRWb3dkX24qdxT8GUL9Rv3WKPTjh0fu3tcOvAoD6TACgAACAAsASxRWdfIKEH8bco/jAQFz4xP+Lod88xmsIT1zeSQEAAAUAAChkAeCIXVW7pZfPj6g/Tfu/3yXCRVzzP5c9AfTbRygCwAM39cS2chcFAAAUAACgcAUArUO+t58CAOpL6+DvcwnwusbyJf+7Q7/99+4aTFAEQJ2pTziKAgAACgAAQAEAWGraf+L5kcTWlzj53x3HuGvwgrsW7MkBCgAUAABQAABQEPd5tMaZAgDqKXLj+mddwlvGaf8HWg6gaxKR84ACQBpPDtNHAaAAACBgd/RRAAD01G2fSAp91N9i3ktdG95MUACopn0mAFAAAEABgAIAAk7+33UJ7qYWkv39ha7NuxQBQAGAAgAACgAAKAAs5XTjRwYZXKG23p9MbHNr1VaQ6O83dG3Oao3so0nWAqC2tBnlKgoAACgAAEDxCgBrGqr28iiDK9RO20xiF7VHtpIk/ytDR7Ft7YjSawbUykuuT1jTQAEAAAUAAChcAWBtAzsso7bJ/7ltEV/+5zkTQNesvcJ7itpQn7CWAgAACgAAsDRu6I4oAKB0Bqtml3ZEJPULjF93Rek1BMpWALilN+KmAKAAACBc+ppHAQBl0j9rdnNPTCK/yNA11LUEylQAUOEQACgAAKAAQAEAAZiMzX7bF3Pc3xKd2qFrOcmMaJSoAKA+EwAoAACgAEABAJ6bconqQ4OxV8lE6KFrqWs6RREAFAAAgAIAAAoA84l1jVV7a5wCAJYn+ddxYnz5X56ZALq2FAFAAQAAKAAAoADADADUVdU9Us+NxHZMI8n6coWura5xldcXFAAAgAIAAAoAFABQL+9OJLae5H/ZQ9dY1xqgAAAAFAAAUACgAICa+2QqsS2tHPdXq9C11jUHKAAAAAUAABQAKACgZjorZpd0RLaSxLxmoWuta65rD1AAAAAKAAAoAFAAwLLSE9TlEtBfdUa2gqS85qFrrmuve8DbDAoAAEABAAAFAAoAWDYjVbObe2I7IuAd/09tidII9e/Xtdc90L0AilQAuKCdAgAACgAAAqbpuhQAUBQV9/jcNxB28n9ma2TvTyRpnNkadhFA96LCK40CFQCu66IAAIACAICAbeuhAIDieGI4tjUN4Sb/Z7mEXzvp6zg9xXb3P58RcBFA90L3BChKAeCOPp5nABQAAARMgxkKACiCP43FdkJTuMn/8e5vf3E0ThP/3Wbd//yC+98dH/Dv0j3RvQEoAAAABQAAFAA+i1W7qvbwIIMrzE/kkuT3JhI7LeA18xtckvySS/T39fTrf6f/24aAiwC6N7pHEfU9zNN9/bEdtYsCAAAKAABQuAKABnn39jO4wtzpadkxldiWtnCT/+NcYv/KHL6Q6z9zXMBFAN0j3SvecMzHvRQAAFAAAAAKAIC0z5hd3hn2l/9nRub+zOs/G/JMAN0r3TOAAgAAUAAAUAePDFIAQJim3KNyTXdkKwNNhtc3Vu3J4fntkq//7BND4W50qHulezbFa445urMvsiM9KgA8yaaWACgAAAjZy6OJNwOrFS6u5oglzNFtLjE4KtDj/o52CbzWNk8sIJeYiLKvokcHWgTQPdO9A+biKtcnrPDo+WWjWgAUAAAETYMZ36YIAweinfEfGQo3Adbf/cBAbDOLyCP0372/P+xroHs4Sy6Fr+DbEh8KAAAoAACgAEABADVM/l8JeEf8lbuqdnNPvCRT4Efdq3KT+2et3BXu/gevju197CFAAQAABQAAWEbvTfpVALjMDfZYYYl90RFyH7jndXNrmJv+HeES9eu6YxtbwhqX/lnXdsfBbgp4lruXH01yPCD2TX3BZZ4VAPS8AgAFAADB6qj4VQC4oD2yYSYBYB+6ZxO7pCPcTf8udX97d2Xpr0uX+2du7YiC3RRQ97SbtQDYB/UF6hN8ema7KzyrACgAAAg5qfKsAHBuW2S9JAP4Ak0Tv7LLr93A5xMXuiSmYTpZltkt+mfqn31he5hFAN1T3VuWAuCL1BeoT6AAAIACAAAskR43wFrp2ZTgthkGWPic6kG39/m1E/h8TrY43yXmTS5BX86nWv9s/Tv07wr1OukeU/vDntQXnOXRkh/tt9HDQwqAAgCAkPW7wcwJHm2otrE5sg9ZY4mcPrY9M5IEe+79mS55eW+ids+z/l1nBrpHgu6x7jUfWLGb+gL1Cb48o6c0V22AAgAACgAAQjZYNTu9JaIAAO9oY7g3xhM7qTnM5P/4pmq6aWGt6d95fKCnJOhe656zKSB2F7RO8agAoL5SfSYAUAAAEKxhN5jxaY2lEpfXOGap9PQE7JxO7Jy2MKe0r2+s2rMj9TvPQv9u/Q0hLgXQPd+5zEsmEIZXRhM7rtGvPWqGKQAAoAAAIGQ6RuyqLn8KAOvcYO+5EQ4CLDt9ZdP530cEuOnf+oaqPT0c20wdH2P9u/U3rA9w6YTuue49X1qhvmCdRwUA9ZVjnFIDgAIAgJCNu8HMdd3+FADW5skTymsyzopSKwJdx/7QYGzTHjzC+hv0t4S4f8KKPNmapCkotSeGYjvao+dXfeU4BQAAFAAAhExJwt39sVeD/3v6GfWXlTaAe2AgDnL9+qpdVburL/YqadXfor9pVaDHJ+pZYFPA8rrHs75JfeU03RMACgAAQk+4Hh70a5B1h0tY2ASsfDSufnE0CfaL9Y09sfXN+ndd9Tfpbwt1RoWeCXKu8lEfoL7Ap+dRfSUFKQAUAAAETScaPTbk1yDrBpesMM2yfLTj96ktYX6p3tIW2YDHa9b1t21pC/N4QD0TtTxKEX5QH6C+wKdn8cnh2Ko8igAoAAAImcYyr48lXg2ytPaXDcDKpW0msYvaI1sZYIK6qSWyXdP+ZwX6Gze1hFcE0DOhZ0PPCMpDfYBPG9QqdEQlTyEACgAAgrfdDWp8mh58XhuD/TIZcgP933SHN0Vdf+8pzdnX6RCmqOtvzM5VrwZ5rfWMDFEYLFVR8DyPZq2oELWdmSgAKAAAKIKPJhM7xqOjls5qjaxxmoFWGcwGvOnfiU1Ve20srPXp+lv1N+tvD3VTwFmahlJQH6C+wJdn73j3znwyycMHgAIAgALYNZXYxmZ/Blob3EDrfQZapaBk9OgAN/1b5/5mHVEW4o7g+pv1t68L8LrrWdEzg+JTH7DBo0LVaS2RNVCYBkABAEARaKrluR5NtdTO32+NM9Aquk+mknRQHeKO//cNxEGfUa+/Xb8hxJMB9Mzo2UGxqQ/w6USQ89sja+cIAAAUAAAUQVcl24DNpwTrlVEGWkXWWTG7uCPMTf+u6YpsogDn0uk3XNMV5qaAenb0DKG41Af4VKC6tDOyHtafAKAAAKAIxiKzmzw7bunxIY5bKqrhava8HbkrvMTzVy4JKNJGdPot+k2hFWL07OgZGmZTwEJS2/+4Z8fT6nkb43haABQAABSBpgPf1ufXYOt3/bFNxdybotH68z8Mxl5N7Z1LHLErO52itYCnU7Tmu60fEVhBRs+QnqVp2olC9kl39fvVJ6mPnORZA0ABAEARaEzz4KBfg60b+dpSyOdMG7id0BTemv8zW6P0tIy4oPflA/fbzmiJgtsT4IQAT2LAVxt1bf/13X71Seojec4AUAAAUBjaFdynKdkXtEfWz3rLQmmeTuzU5vDWnB/bmCWZRV6Sor3NXnW/8djG8PZk0DPVzO7shaK2/wKP9qVR36g+EgAoAAAojJdGY1vv0eB/U0tk3ey4XBjacE4bt4W44/9Tw4mV4VHUb9RvDfFkAD1bE+RnhaG2f5NHJ4Sob1QfCQAUAAAUho5c8unMZSUhjXzVK0zyv603Cm7TP62Jv7EnsqhEj6F+q35zaPsB6NnSM0YRoBjU9vtUiFLfyNG0ACgAACiUXW7AtbnVry+0b7gBF0OusM3E2W7e6xvDSyiv7IpKuQ+FfvOvO8MrAugZ07M2QxEgaGrz1fb79Gypb9xFQRoABQAARdJVMa/WXCoecYP5mDFXsPQ1+W03kD8lsHX/+vJ4UXu2438ZHz/95mb3289vD29TQD1reuYi2o1gqc1/xLMjANU3qo8EAAoAAApDxxtd0elXoqZzlxnIh6ujktg5beGt+z+tJbLtE8Xe9O+r6LfrGpzWEt79U7LWyf4hQRcO1fb79Eypb+QIQAAUAAAUiobL13X7NdjX2eQcBBAm3TdNoQ/tC/IxjVV7YTTmucvvoa7FMY3h7d3wm27ajpCfu/M8Kxyqb+RxAkABAEDhPDQY2+oGv45f40NeePQF76GB2FbuDG/dv6YeM+tk73v5iGdHhM4lVurYtmGWEIVIbb5Px1GqT3x4kM//ACgAACigZ9yAeV2DXwP50Yj7ElrC+OZ4Ymsbwkv+r+/mYdsffQENraCzziWR700kRuoWluGqebe55IscAQiAAgCAIvpwMrETmvwaxH86xSe8kOyYyk6TCGnqvxLbX3VGNljl/u3PgLs2l3aEVQTQM7jFPYva0BDh+GDSrxMA1CeqbwQACgAACqfdDZRP9mzH9udG+PISir5Zs2u6wjs+7uy2KC1c8KTtX5wXd84ObFPHI/P9AAYo7gRDbb5Pz5D6xHaKSAAoAAAoIq29PMOzXb9/109aFoIpd5seHPBrD4m5Hhv3+li5d/yfK10jXavQjnU82j2Tjw3FNkNTEgS1+T49P+oT2YsGAAUAAIV1Ybtfg3vtJA+/Ka/6k0sM1wSW/B+X7/ivjeKSPMHdV0zHXw4VPMajhcWYi5FqttZ5ITG6gH/nVLzv37G/ULI8+4XroGsU5ycDHBfYyQB6Nt+ZSNjJPQBq8316dtQnAgAFAACFdVtv7NX67RObq0zN9pymxx7fFFZCqGf8grbI3nVJodb3Kjl8aji2J4b2jsdd3NATfSmu7Y7S6fBntM4/NrVECy6WaA3+ie5az+ffp79Tf+++fsf+4lbXDjyyx3XQtXknv1a6Zrp2oR3xqJkLXXzK9b6YqDbfp3bit330QAAoAAAosEeH/CoAaAOmYdbvekv3Rhvo/VtgySBRzri6K0pnYMDf9sSnjWjVF/5xmAIAAAoAAApMx2b5tNP3MY1V28lJAF7Svlj3DcR21C4SSyKMWOWe1YcG4/S4SvjnY9fWr/doeYn6QvWJAEABAEBhdVbMVnqU0Ok8eW08Br8ogdLZ2Cc0kVQSYYWWULw5TpviI+0lstajvUTUF6pPBAAKAAAKS5Mdffqiq7/lPk4CWBa7N76bzTe6m8w3ttMmc5qK2zxj9rZLlJ4eie3+gTidPn1xR2Qbm7PCjO7NChJKYmd4+z9oJoCe4c2t1fSZ1rOtZ1zxmktC9dW3d9ZsJN9EcTLfHFHvSpRviIilp7bet/6H3gcABQAAhbfRo02YdKb8zT0s2l2o3bvV97tMv7uSWOtMYg3TiX00mdhb49r4LkmTnht7YrusM3IJUZRu6LeSRJEg0s0aN7VU7aL2bHNEvSvPjmSbRn4ylVize5c63HvVP5ukhTMVCigOLJza+iM8KgBsbmEDGgAUAACUwJWebeqmL3Sc4b1/ujb6Yt/mkvsdLil5wyX2z49kO7ff1RfbLb2xXeHu6QUuiTmtJQpux36C8DGOdInqyc2RbWmN0o0wlbxqx3htGvece/+0zODjycQap7PZBCoQ0IwduB1TW+/VMbSdFJ8BUAAAUAL39MdeDcI0wGYdZvZ1sWc2STfK0r4Ijw5mCf713bH92g1Uz2vPjn07trHKxnwEUefigAptKrhtaYvsEpfYXtWlIkFs97r29bGh2F4eje2DyWxWzlDVSr8xodp4tfU+3cd7WH4GgAIAgDJ4YdSvAoDO736/JDsx61fqmLKm6WyKvs6hv703Tr+M7T53Xl8dlVwc3VD1arosQRBzKw5oaYEKdSc1Z7NyznLv9Xlt2V4ESjqfHYntw8nEuirlmTWw3bXxJzX7da/UFwIABQAAhffpVOLVIGydGyw/MxL2QExf9yrJ52vytbmYBvdv5kn+tp7ILnNJvo491OZkSu61UZmSBZJ8gijPBoV63zWDZ3VDVijQsXhntVbt2rw4oE0KtUHn7g0K1aZUkvBnEDwxHKftnk/34lOOoAVAAQBAGfTOJung06eBsdbWVgMZi2mqvqb0atO95plss7DnRxK7byCbqn96C1P0CYJY/A71akvUpqhtURujtkazh7oq2bKCyUDqpmrb1cb7dH1VeOmbpQAAgAIAgBLQhnLntvm1FlOb2PV7OBjTtWqvZJt9vTYWpzMV7nAD2Wu643TTvZObs6/4JCwEQdRiecGJTdW0/VYbpLZIbZLaJrVRaquGPdzYXm37FZ5tPqtrOMwhAAAoAAAog4nY0mPhvNoI0A3G9GWrnrQBn3bZf3UssYcGY7u9b+/d9bVUgePzCILwKVbmy6jURqmtUpultkttmNoytWk9dS6uqm3f4lnRWX3gBFsAAKAAAKAMNBZ8ZNCvfQC06d17NdwIUOtqNTB+eiS2O/uyXby1AZ82JDyuMVufv4LkgiCIQPcaUBumtkxtmto2tXFq69Tmqe2bqmHyq7bdt+NJ1QeyAgAABQAApfH2eOLV12wNWF8cjW0pxmP6Z2jNqc6d1hceTfPcMZ0l+9qM7+zWqq1rzDbiO4pN+AiCKEns3oBQbd+6fPPB33TnRYHpbPmA2ky1nWpDl6o9Vtu+wrNZE+oDAYACAIDSaHCDvVNb/JqSeWdfvKBNrfQVRztma1O+Rve73p1I7LGhxG7qie2ctsi7DQ8JgiB8DLWVajPVdqoNVVuqNlVtq9rYhXwxV5t+p2cbAKrva5imAACAAgCAEumuWHr2vE+Dsl91RjY0h6MApmOdZJAdZ/jyaGwPD8Z2Q0+2/tW3aaYEQRAhh9pUta1qY9XWqs1V26s2eHoOBVu16b/ybANA9X3qAwGAAgCA0tDXnN94thHgppZqerzVF+mrU+tMYq+PJ/agG4Bq8yatZz29JUrP0WaQThAEUZtQm6u2V22w2mK1yWqb1Ubva4aA2nS17T79Bs1wGIsYBwCgAACgRCI3UHtgwK8CgI64anaDSE0C2DWd2DPDsd3cE9mF7ZEbQGZf99mcjyAIwq/NBtU2q41WW602W2232nC15WrTfTsq9UHX98WsAABAAQBA2bw4Ettaz76gn9JctfV7bNDHsXsEQRBhHUu4e6PB9Y1Zm+7T36c+T30fAFAAAFA6H0xqI0AGrARBEEQ5Qn2e+j4AoAAAoHQ6Komd1x4xKCQIgiBKEerzOioUAABQAABQQtrB+couCgAEQRBEOUJ93jQrAABQAABQVnf1Rd5t0EQQBEEQy7HRrPo8AKAAAKC0nhuJbV0jA0OCIAii2KG+7jk2AARAAQBAmX0yldiGJgaGBEEQRLFDfZ36PACgAACgtAarZqe1sA8AQRAEUexQXzfCCgAAFAAAlFmUmF3ASQAEQRBEwePCdrJ/ABQAAJSQJkAOVc3+NJbYjT2RrWcPAIIgCKLgob5OfZ76PvWBLAYAQAEAQCFV3ShnKjbrmTV7fiS2KzqjdDOk1Q1VW8kJAARBEERJQn2e+j71geoL1Seqb1QfWaUiAIACAIAQaQyTJfyJfTyZ2B8GEzu/PbKjGxj8EQRBEMSeob5RfaT6SvWZ6jvVh1IPAEABAIDXJtyApXE6sVdGE7u7P7aL3IDmKL7wEwRBEMScQn2m+k71oepL1adOcHIgAAoAAHxRScxaZxJ7cji267pj29Ia2Tq+9BMEQRDEokJ9qfpU9a3qY9XXVpgWAIACAIB66KuaPZOv5z+9JbK1JP0EQRAEsSyhPlZ9rfpc9b3qgwGAAgCAZaHZhzPu/+l3A47XxhK7PN/Eb9Wuqq1gYEYQBEEQNQn1uep71QerL1afrL5ZfTQrBQBQAACwqKR/LDJrm0nspdHEru7Kkn4GYASxNHGEG8Svaci+7O0Zx7r37MSmucXJzZGd0RLZ5tblCX1xnOvfotjQlB11trbhqyM9BYTngCAWv1TAvXPqo9VXq89W300xAAAFAABzMu5GDTunEnt2JLZtvbFtbGFwRRC7Q0nr8U1ZnNxctTNdkrwlj3PaIrukI7Jfd+0d13RHdot7l277QtzTH9sTQ7H9cXjveGk0tncnkjnFB5OJdVSyXcOXI9pnkjn/LYq3xxN7buTLv2lf8chgbHf2fX49tvXEdtUe101fN7fscX1VkNh97RUqlFBAIIi9Q322+m714erLx6kEAKAAAOCLoiT70r97Iz8NtFexez9R8J22NzZHn8UF7ZFd1pHFdS5h/61LTO9w8bv+LFl9Jo+XXXKuJFfxnkt4d01nu3QrmqezpHmoanvFeJS9YzgwnYE+En1+3Qaq9tm1VSiZ2X3tFW+MxWmxYfe9eXwoK6rckd87FV20Xnr3fb24I9rrnq9h3xKiwKE+fPMeGwiqj6cdAkABACg57Sb8lhtI/8YlPGe0spEfUdw1szpj+5WxxD6aTOwTl0jucKEdtXdHt3sZ+mezGHaJ54RLRCdjS8/i5gNaGHSfpuPsvilUeBmofn5fe2f3vue7prJnYftEYo8NxXZuW8SeJkRhNxBUH6++Xn0+JwkAFAAAlISq/xogt81Y+qVMa3aPZh0uUfDY1BJZw3RCIo99Ui6k2QcqCOhZ4Z0hihrq69Xnq+/XGEBjAY0JmBkAUAAAUCC7N/NrcgnQMyOJbW2P0unPDIaIMoQGu9olG5gLPSvMhCLKtBRKYwKNDTRGYPNAgAIAgIDpSCBNc31lNLZbe7Ov/Qx4iLLFTT2xzZL/Y470rGhDQt4domyhMYLGChozaOwwQyUAoAAAIAxa+/rmeJJuYqY1rToeiHWtRBlDO8d3V2gTMD/ds2bntbMUgCjnfikaM2jsoDGExhKTFAIACgAA/DRYtXQnbO10rbO4j2CaP7HItaIbm7Ppodt6I/vDYGxXdoWTFK1vqNrrY7HFfP3HPCnf0SkDxwc0a0qnWNzbH6cnWOh/1rvL3i7EYkJjCI0lNKbQaRs6oQMABQAA9Ryk5hv67ZxO7BaXoJ3UnB37w9d+Yr9JvXs+jtyVPSdaG6+1zusbswHejS5xeHQotj+NJelxURrsaRd17YKvqaA9s5YmFaH8Tp0vP8GXKyyQ2tbfD8bBHId6nHuPW2c+PwVB767eYb3L2vX9Cfdu390fp8chntqcfeXVMYirG7I2YSUFY+IAswL0nGiMcWdfZG2VbHkAzStAAQBADehjpgZ3na4DfmE0sUs7mKZK7HvApgRfXzB13vlZrZFtdc/Ktp7YHnFJzasuyf90Kjuvfi6DOD1zN/REQcwq0VdP/daOGT79Y3H6Zi2d9RLCc6+/Ue/oXKdrq7DXUTF7w7UFahPUNui9UVuhNuP4/IQYCsrEvuKaruw4wZ7ZhD1WAAoAAJbLaGT27kRid/XHttkN0o7kiw2R7+J8bGM1HbjrS/413ZHd3psl+q+7wb1miAxXF/61RsdDvTAap/+OUDay0rpVYCl8OJnYKYHMfNE7qnd1oUe6qY1QW6E24/W8MKC2RG3KxXlxQP8OTpEhFJodc357NnPsY/eeUHMFKAAAWCL6SvviaLa28+RmBh1lH3Cd5BJczfy4sSe2BwZie34ktjdcwqtz7jVNf3yJj3FqdqM6DfJC+BKor6D3DbDrP5aOkunHXIITwiwAvaN6V5uXMBNTW6I2RW2L2hi1NWpz1PaoDVJbpDZpFUWBUu8VcFpLZLf0ZkvIRtkrAKAAAGBhNODSxmvntUV2DDv5lzJOaY7SKchau/uKG1jtmEqs2Q3C+2azQVZlmRNdnQmtnaBDmW2iL5QMPrHUNK3+kkCWW+ld1Ts7tszvgdoevWtqi9QmqW1SG5XuM9AZpW0XbXj5No7V0hEtJdGsAH28AEABAMABKJfTxjpN0xpERenmbEy1LPZgSfd3db4Z3wlu4KSBs6bdbh9PrKvy+SZ8GmzXesMl/fted3+HNgoL4XrqGn4yxad/LA+di35CIKcC6J3Vl/p6tBlqq6byTQjVhqktU5umtk3Xb22+8aDaPk4pKO4eNLq/+nChsYzGNHouaJ0BCgAA9hg0Dcwm6bFTV7hB0uoGBhBFHBBpUK4jlTa1ROkZyzf3RPb4UGzvTMx9M75a6q4kwXzF0/Rj7dheYYSJZVLN98IIpSB2hmtnBmb96+vU1qnNU9unNlBtodpEtY1r2HSwkKH7qiWMuu+DzAoAKAAAZU/8tYOuBpWXkfgX7uv+cfnGfLq3t/XG6YB3+0R2xJ7va9S17vmmniiY4spVXZH1s/Afy2zEJS9a5xzKzKy7+ha+IWCt6LVVm7g9LwqorVSbqbZTbSizBIoTGuNoSZs2aR2scowgQAEAKFni31FJ0vX9Wld6NIl/IXbi1waNW9sju8MNuv84HLtBTpxumqXENLTUVLNR1gWy6782n/pgMmF6KWpC05nPbgujOKZ3+O3ATsTQX6s2U22n2lC1pWpT1baqjWVZXPihpQEq2j7l7m1/laUBAAUAoOA6XeJ//0B2jB9f/MMNbbR1qks8b+iOP5vG3zydnYmsDcNC/rKhs88vCmTXfxXPfj/A1H/UjpYCPDsSp0lMCLNj9C73zYZ7vdWWqk3tyTcb3L18QG2v2mCOww13WZwKVDq1QoUANm8FKAAAhaG8RFMc9cVfXzG0CRJfMMKOjc3ZVzVtcjUdZwlBUfJPnR6macNHBXLkmc4mH2fgiBpTm35jdxTE9HS9y9qZvyhFsiQvwkznGw2qLd7I8bhBFwJWNWgGXZQet6mlAVUKugAFACBU2gl513Rid7qE6thGOvrCrGN0A+pXRuPCTVuM3Q/SGc7HB7LT+UluwNg6w0gR9THu2vczW8NYCqDNPLXGPi7Y66Kfo7Z4NUX1woSWeTw4GFujGztNsUkAQAEACIW+TOhM5PsGYjuxiQ69iHFPf1y4wYmm2F7eGUZCo6+az46Q/KO+3gporwy92z0F2yhTbbDaYvqk4oXGThpDaSw1TSEAoAAA+ErT1j51nZWmUJ/eEtlKvkoUNs5P19UmhXp2Hx0KZ3fza7sjG2PqP+psxiUm97oE9IhdYRTN9GW1SDUAtcFqi+mTCnqajntmNZbSmEpjK5YGABQAAM8GItnxUNqUiDX+xQ+dO68vE0XROmPBTP3X+ea69owF4QPt7xJKEqqlaHrXi0LtwCr621KcsqOxlcZYIxR+AQoAQD1pPeVQ1dKNa7Qe+QgGIqUK3feoAFmofoOOZArhmq9pqNqTw8X6ionA+wEXrwW0d8alHVEhvqSq3XpwgOn/ZYojdn2+WaDGXjH9AEABAKjlwENrKV8YTeyMVqYflnkZQOg7a+vPf3okDuIrmo770hegSdaDwjPai/J3/WG8R/qaWoTipdpepv+XNzT20hhMY7GIQgBAAQBYTsNV7Tqc2IXtfPEveygh1ZFFIWtzmctZARSxdFTU2W3s+g9/dbqM9ALXL6wIoO3a7N75humw3yW1vUfSB5d+RoDGYhqTDVdpgwAKAMAS01dHHZGmzceO4Ui/umwG5OOZ2y+OhjuI1g7aOqLyqEC+Wr46SvIPv+moPS1TCaF4eWtvbOMBr6dW2+tdP5X3VfTZtQ2NyTQ20xiNGWIABQBg0ZRyfDyV2PWuc9Eaz5V0tjUNVfd1FNBLbrB3bpt/X6q1dj5EGiPpCLNQjqnU+1ch/4fntLb+1t4wpqUf55ImJUyh5ks+7luiJQnaD0J91oUsT6h58UVjNPUVH7NJLEABAFgIrSnrr5rd0BOn5zwz3X/5p3jrK68q+Vs7sk1+ul3GNxFlaz11P+7oi7yb8rnBDThC3JVYp1Zc0RnGdOVTm6uFOnIRxTbg+o0zA9kbRksWugKsrKnN3dDk36yKO10fpYKKLqn6LvVh6svUp6lvUx+3gv5+2ZcFaMymsZvGcOwPAFAAAOaU+HdXzP4wGAezq3PIFXsNik53g+VruiJ7buTA6/heG4vTY6x8+g1rG6rpl/SQ6Cvlw4Nh7J59nHsH350I9yslykfPqp7Z4wLpP+7pD+9UjVddX+DbUgv1Teqj9kd9m/o49XXq89T3MaNweUNjOI3lemY5MQCgAADsx7Tru7XO+CI2+Fv2TllfRLb1xvbiaN45z+H+9Lr/nM4C9u1rw+29YaWnjdOJd1/P9hXaUf3u/rDXKaOc9MzeHcipAEpEd0yFlR2pzfWtj1bfpD5qLgUi9Xnq+9QHqi/kY8Py9tGXdGRLM6apJAMUAIA9tcwkdnuff1+YizK9f72m9rdH6demN1xHrFkW8515qtkZPk5bP68tCmYHYn39/3VXGLv+qxDXzsJ/BNyn+Lhvyb7iMpcghZIcqa09z7PrqvZKfdN8p5tX8hmH6hPVN6qPVF/JMoHlmaGhMV4LJ8kAFACACTfoeWo4ti2tfPVfjjWR57kBzaODse2cSqynklXgF9P9aj2lb9MmT2rOpqmH4IWR2I5uCGPq/ytjMVP/ESwV255171sIp8aoTXhuJIy3TW2t2lzflrOpb1oo9R7qG9VHqq9Un6m+k2MOl342gMZ6GvNN0LmAAgBQzsGZpkKr4r66gYr7Uh3Vp2upDbB+P5BV2jUVdinXl3ZU/Dv7WdN8tc7Q9xKANvs6O4Avkhqk3dYb3rpk4Iv0DN/QHQWx1vss1263ef51VH+d2lrfllaoT1LftJTPjfpO9aHqS9Wnqm/liMGlma2ha3l5Z2RN7vpW6WdAAQAoR+KvHdDvDWR9Zghf+bV+cbMboGhd5seTybInbqc0+3cdrumKvT4NQF87bukN44uSnqVxvs6gIAarZhuboyDa8m2ujfB5zw1N/7+6y78NTNUnLXchSX2r+li1j+pzmR2wNMV7jQU1JqQQAAoAQAEl+eDh5dEkPZ+X6f6LC+3ArDOPtabuzfHEhqpWsy/gv+2LvUxad037OYLQulStMT0pgCREU5G1WRNQJHqmQ1h6c0JTtlmar0enabPCTS3+tWPqk2o1jlFfqz5Xfa/64DUNjEcWO+NMY8JX3HM/GpnR+4ACAFCg5L/BJWc39kRs8rfIjlKJrgY7L47E6QZt9dij7Z2JxMsvCc+P+LlmvX/W7LLOMDYju7knZqdmFM6Ue6Z/0x3IhoCureif9e8aqllQG+vjzL136rAHjPpe9cHqi9Unb2Yfo0WfTnSzGyNqrEgRABQAgMBp6txLo4md3kLnuNBY11C167tje3UsSdeITsb1rZJrcOrj12wNwnzbWEjTGv84nASx3OWMlmwWBYMvFLEIra/XZ7REQUyLVpvh25RoLU3QsXm+XS/1RfUsmOg2qU9W36w+Wn31UYx1FvyRQ2NFjRnZgwYUAIAAxUm26dn13ZGtZYrcvHc0XpV/7deGSz2uJ9QXrNiTDlGDHc3m8O26aXfhbs+OrdN50yHMetE01j8Os/Efil2MfnQojORMbUaPZ7MAOit+Tv9XXzTpSeFXfbT6avVD6rvVh6svX8m4Zl6xNv3oEaVjyJg+CRQAgDBoHddzI4md2hLRmc1jZ9x1btCnAdZtvZF9OuXv7rgaa+lLh48zOt4a9+cLthIOfQ0KoeB0dVeUrm0Fimwo3cQujFMB1Hb4UpDTn6G21ccvxuqLfF21pD5cfbn6dPXtazjxaF6hMaTGkj5v8AtQAAAsmwZ3a2+cHvNCBza35EtnKl/pBqVPDsfWVQnjPjdNJ3Zai3/Xc1tP7E3hZPtEEsR7oOdv+wSfWVAO2z08x35fobbDl/dSbaraVv+WLVWteTqMtqvT9e2PD8VpX6/nj1kBc38PNMujdYY+ChQAAO9o5vXrY7Fd1M5X/7l+uTijtWr3D8T2rhvkDVfD2v1Wf6+PX7dPaKp6cYyW1qRe2hF5/7VHz+FdfUz9R3noWdcz7/ueNGo71Ib4sCGg2lS1rb5doxt64nTGYSh2n4akPl99v8YA7I00t7jIvQsqiEX0VaAAAPhBHfBDg7Gd2MT0tq+Ko/Ijb54bia1lJrGZQHdcVyf8uKfrad+t81czXRut/wzh2LFNLVWm/qN09MxvavH//VQborak3knPux6e/KK+R31QqAmh+n6NATQW0JiAjQO/uiB2cnNkDw+GVfQBKACgcNTvaoO6q7qiIHY5r+dXVk1ju70vW9uvrylFqGJ/OOnnPg86Sqiedrp7fFZrFMRzqTPHgTJ6zdN9TL4YakvUptTTzR5u+qq+R31Q6DQW0JhAYwONETRWYFbAgU/J0JhTY096L1AAAGpMZ4Xr7N0NTXRI+1vbf1xj1c5vi9LZEUX8yjrhBi1az+jbtT/OPZP12jRozP17b+mNg/iaor9zOqYtQ3n7ML0DIcxa0985Vqc2TW3pcR728+p7Jgr4JVjXWzMbNHbQGIK9AvYdGntqDFqhCgAKAEBtDLhk9hGX1K5vpBP6UuK/K9tU7aae2P40lthIwadXax2jb7M/tNPyq3X4sq1c+s3xJIhj/3TWcuM0X1BQXnr29Q6cHsBpNWpT1LbUo16ntnRNg39fgdX3FJnGDhpDaCxxYjNjq33FMe690ObJnBIACgDAMg+YtGZN57OuYZf/L33x15TE3/XH6UY1Zdmw9j33W33bHEpFmBt6opovs9Ag5Lw2/5MJvbv6wsSXE5RdJd/LJIT+TBvs1nrts9pQtaUrPSvyqs95ryQnl2gsoTHFnX1xOsZgRsDeoeOT73DXprtCQRsUAIBlSf4/nkzsbJfgHMn6tL3XIjZnCZWOI5oq2ZRq/d5zPEx6tW62s8ZHKv5xOPZ+cKbpzld0RtY3S5sGiN4FvRO+LwVQv6sN42pJbaiP+5mozyljX6sxhsYapzIj4EtHBV7m3uEdUxQBQAEAWDL6CqANkzawy/9nSZQGY5vdwGj39LMyH6OmLxMrPZwy+/Jo7UaI2uPhhKYw1k1qKjGDJODz4rbeiQ2BvL+13E9GbahvS5r+N3vnwSVHkazR3/okAQIJIQkZrPDCey+c8LCwmAV28d57K4xmpsd7b3umqypfftU9IMGMNKZNZOW958Q577EgdVVlRkRGhpGteX403uYl8jXkc8j3kA+i6QH4ZdXMP+2Pb2cYFQgEAAA27Rgp5VBjiLaT8p/Lno7qbOZPvGM0RwO1HHUvtpgV8vBgc5rcLfq/40H/d201nhmjztLPjVAsCbASTw4n5ruvS8dI1yw2Qa9Jd0qHWsyE+G2eE97yN/rGH3hv60vc3g7KA5azAV6pjQpklQABAIB1Iv+ibzFzjwwlQcwzb/SNg+bP3tOfuC9n6Jz+d3QjccBgSuLV3Unes6LR++TrQG4PL+tK8gaeAPBPtDdCaAgoXfN1ExoCSndebbC8S7ZmiZPdPwIB6oivfg3yVWIPBMhnle/aXSYbAAgAAKwZ6cuOBedu7UvMdXhvdqq/nK1Hh9LcuM5z8F8VNeGx9v12tFXn3DfS/qt+WOOorDtcujX7YgZPqNVBVd1KDfvTy0qi/w0V01o+nU7N97jZWhuB18g+HtIU0p07DAb/ZWtgZeZrgQD5LLGXbMp3valX027IBAACAABr4ue5LK8t2xq58XjMG9Ff57N8/jIG5NR8750Oi99RzmKjSjUqflG8M5kF0UH8gQFKVpqBbpE1Wu5jf5DUqFTdQik9Vw2qVDp0bU+SNzBbSfS/6d/Rv6v/Rv+t/gz9Wfozyd5oPLN+j9zTn5rfz9I50j2VBhkm6QqLQV3JMdL/Txu8kc8i30U+TMyXOFtrDSP7F1kXQAAAYFXS2uFfKWSxGgs5Vvf2J67NO9xKq8PVWOPBZylz+w2mwV/RleTjgRpBVzlzl3bZ3ysH/X4+Tnfk+unJrFr2Uvb6QXriJX9IV7bUJZ3VHiGaTS09Isd7MzXl+m/1Z+jP0p+pP1t/h/4u/Z36u/Ub9FtSPm7dDk9/+L1yMAAbKN3T1aASJ+nMKwzqNtmYsQqLfa1reaGmo+TTSI9sjTSTU+MTf5nLyLACAgAAf0eG4v2pNIhO5o2aK3xkIMlv2jASG1s/Txm9Mfp4uv7fVDGFZ0fs3xSqIZLGE+Izby4wOptUD0VqPvbqePXAbyE9Wr9Bv0W/Sb9Nv3GWUoJNob2iPRNC41vpoHrHN7V2pDMtPq9sDD14NvZN5dvE3CNAz/3lTDVoCkAAAMBV68bk8OyJ8PC/2z/zHf2J+4rmfpt2MGRcLaYb3uW/b72bRh1fsJ/6LydP882H6Ji1IeQo6ob146lqKu2hALI99Bv1W/Wb9dtxdjeG9oz2ztYASgGki+qJ1IV0psWyvC9nCNBvNrilm3BddpzfEV+mpzJ73plM6ecEBAAAdOjVyJTYDv872yvuXm8E1fRpislodaHkHVGLXbR1SzpWx/ppOVE6HISQ1fI1jf/WjdbK59OZO+oP0td0J0H0eFjpYKjfrmfQs4zRP2DdaO+EkBEnXVTPDB+tFYvN/2RbSgvos3qgHg9feL1wd3+Y+m2zo5xfH0+ZDgAEACBeFOl/eiRxO9viqge7oTdx385mbrxCqmw9USDlwUGbafEfTtXP2utgYN1pUv3448MJN8BrRM5gZ9m5f42keTO+IpVC6Vn0THo2PSOO79rQ3tEe2nbcfrCnnoG+tydspv/LthCsrx9pLdjz8VRV58U0MUA9VV4cTRknCQQAID5086/D//ZIDv9ba46wIr8z1Mg2BNnSd4zWzsrBqYetV3fl6wJwlvb5tT6Bs3za9arD8NCSAleJO887hWcWuGO2nk3PqGfVM+vZ8X9PjfbQvg77QW3ppOmkPnvicLfNLK73J1PWa4OCn1o7L49Ve0DF0h/gbL+m5ANT+gkEACAaJr2yf2I4iWI8zNbjqvuqjoMbWeLbN5qexcxd02PPgTzXH3x0+7kZlGb70qj95mDa10rvhJWRv6ebxGNz1XnZ2yNLgV1uDqln1zuYIiB6SrSXrNtKfU/pps2WAkhHSldaez7ZlJ5FdFqjkY8kX+mCkv3Ml3rZSvnCkwTLgQAAFB3daDw9kubRzxjSvFTnr6Y3pL02B/loDw3aa56l288XRjd3zOlYyNyV3fZr/+8foKHlamhq2rczmX9HicmDTisCY3oXeidldOSKaC9pT1n/ltJNHZuskZeOtJYFI1sim8L5vznIV/p9PnMPD8UxFaqaCZDWJYMGgAAAmES3A/8eLf7hXw7M9T1JXvdNZLf5fDiVmjxcKU12coPN0NQ0SSO3zjB+K6J5x5pjjq/8T7r9Cfc5r//O7+Dg/3fRO9G76SYK8A/0RrSnLuy0HfyTbpKOmttg8E+68Tqj2VuyKdD8YOln05m7uTcpdGnUchDgVRoDAgEAKCpvTaSFb/i3v5S417wi713MXIoybwmqL77IoLO8v1Rx38+uf1Hov9CNiPWDo5w0NTbi9v+fwZt3J1N3VXccZU+bSYfVO9K7mmMNnYT21IsGb8dXCuT8vsEAoHSjdKS1Z7rY25Jxpli0BKmBfu9L/SfvD5AUPmNUPjIAAQAojhL33oBmn+4qcMqrbj/uG0j8wd/R2dWA0/DEUGquDOCMWhnAepfHfC0F2Hrjv8M9ST77HaroNuePheoNlm54tnDIX1NDOb0rvTO9O27E/kJ763BPYv77PTK4/iCgsgP/ZTDDSTZEtoRl2FpUftGx4Nw9/Yn5LLjNBgHkK3N5BAQAIHjkCPxvvLiHf93IHOpK3PukCJri1/nMpKNw3QaaSelmLATHhTTZKvq6E5XqjS03/pvLCFA2ld4l/nAV7bEQbOl6M52kEy2m/8uGyJaAHeRryecqalmA9remRTFCFwgAQLDoJvwDr6z3dBTzpkrjmR4fSvMUNVwEe2vvgMF0Uo1B+2pm7etlNnHuauON/3RLdnsfnYyFbjKPL2Tu7oLfVDXzAKZ3qXdaQcnme0x7zfqoNOms2TXqA31W6cTzDAY2ZEPI6LMXYJXPpWkBKhkpYmbVvo7EfTSVsfaAAACEh1KYvvZG/ZLOpJCH/9u8E/alf75ZDj1mUUqpxfWj37XWFNm3J+zX/apJ1m/ckuU3Nh9PVSc1bOPwXzfRu9Q71bvlVsy5n+cyt7Pdfmbc22usZ5YutKyrwSYqjZOPKV+siEEA+c56PsoBgAAABEXfoivk4V+3FJpkoEZzuAa2KS3YLAO4rCvJbzBOR7/fQ2qKZt25eXAwiX4v6BDzzHAcY6taJXq3esexN5nUraD2nPUguXSXdNjp9VyW60SL2SelBU5fpi+aXLXp7/PeJzunrZhBgL5FvjMQAIBAUAfnG3qKFZXdWktr/GE2o8t5IEwlzl1rsK50q3csP53OTnlolpP/zIj92//d7RXvgMXrJOvJh70DqluoM7n1b8rNst613nnMRzPtud0BZAFIh51KPUgHShduNbh3ZDumyPALJgD7VS3jdGvBsk3lS8/jcwIBALCOUuLvGUhMGvTN3Po/MZy6UUYBBYUcz9fGbHbPl3O5Wjqz/OWf5jKTowz/7uC/OZFGW5tdyTtTZ+5wd0KH/yY7xXrnHRH3BdBzvxlAeZB0mHTZap9JiVA39SYm15hsBzXYYSEfTX2ZitR0WiVQyvih3BQIAIBZFKV82RvNHQVKxVJqojov04AqTDST2mJattJLe1YZmadbp4cGU/N74wbvuCv9MtYDmDqdKytoK4fylmVk6RvEqpu1927otV9mJ1222k26dKDFMi3ZjN/paxIkygZ4fzI1WVayUZFPLd+aTAAgAAAmHeLPpzO3v1QMpatZ1Pf0pzQ3C5zxinP3Dtg8TD+7QoMp/ROlMlq/wVD6sboUx3j4Wu5afqgr4TDeYtE3+G42zikslXzKjn1dsas2+WSls4v66Vj8zbIZ42T8BY18N/lwZxfkQkq+tXxsLqOAAACYcohL5eJ0/D+/I3GvjKVuZIn506GT+A/4v3GbqbJKj537m1es///WPvtj/+4diLc+VqNNLY6YjFUu9PtI3yRGJiq1kjvj30g6bSVdZ9FnkK2QzUgw/sH7pWN+f7zqfbndBWnOqv0iX5ulCQQAwASzqbqVhz+PdUtNwX47m7lFNGxhUA3qhQYdTd1M6Bb9RJTSbH1+vGYvfx/hrWtWO/zvodO/OdE30beJcU1qL+43HpCSTtPvPJEvpjOTndsvrPUtgGIgX+6bmcwdKEB2anW6RiX3uQEIAEDLlWsI9cprifqrGRGN/goYoFJjyn57jdr0e27pS/4MNqm+71CX/YZETwzHd/WvtMuvcieSw7blTIDvIu0JoD25zXjgULptuYZZ3+jufnuZC9LJ9w8krsz5v3DItzvcU4xpLfK5uaQCAgDQMqojfMKvsVKNojrHTtJltbC8NWGzOeUFpcT9WrtteiuQrt6xBcmWG/5R8x9GT4AYGwNqTx4s2Z8aIh0n2hYyd7HBrCzZiOXfCMVDPl4RpgTI55bvzUoFAgDQEo57I355V7gjsPS75TS9Pp66GQ7/haZ30WYZwFneKX5hNHWDS85dE8A4uXcm43I5dI7UuDl1nOeAHYZcXRsRGNsF2RsTqXl7Kx037HWdeuxsN5r+38vVaqGRryefT75fyL7rVX4vdZGqAgQAoNmoAdjDg6n5euVTKdDLah2kFwijFh7dCN7WZ9PgX9eTuCMD9jNprve/M7YsGR1WDjPqL7gRgYdrB82Y0N7UHrU+zuzJ4dRko1PZBtkIuqwXH/l88v0uC/gC68y8HC/NSxwBCABAU0iyajOsHW3hHv5VC6ZbVzr9xsOHfs1arJNVEM16IE2ZCquN8iqyk2g1aISs7TAXU3B3eYToWcdtfxf9vjON6mE1JoR4/Fj5gIc6w21gLR9cvjh+LBAAgIYjPXN8PnMXBNoMS87Hg4P/HEkExUeZnee1czjayI2q6iZjKpMpe/3wzHBaiIZRsYq+nb5hOSJdP1OrcSZjZf2iUXFk/8eHRgWqSfBZgep6+eLyyVm6QAAAGoq6+N43EGY97M62int0KPEKH1UZK48NpTi76278V3HHIhqLJfWg8Yx7GfcXvOgb6lvGpPK1V7Vn+f7rk6eHuRWINwiQuYcHk2AbWssnn2f5AgEAaCTvT6bmxw2tePhvr7gXR1M3zpi/qPl9PnPbudVdV7fh5/2+iSWVOs9wWsjclTT9K4zoWx6PqCmg9uqzI2mwN5qtENkE2QaIl+GlzD3n983OALME5ZO/P0kEAAgAQAMVpMVO6mtRjq+O0ywFqimyN/ZyuFvP4akvorzYiUp1Pvk2Dk+FEX1LfdOJiIK/PX7PXsHYyjWLbAKTgEA+onzFEPW/fHP56AAEAKCuSK1oXFloXf91g/neZFx1oLA6SgV+ZzKjsdsa+2W8PRHPrGE1UnpxNNzJJsipG7y9Nh5PsyztWe1dsgDW1phQNoHKQBDyFTUmMLRygDNqI4VZxkAAAOrKz3OZO1BKgjLq53dU3JfTGR1S4SS6y9yOrXXsX0xNsf5YyDgwFTygpW8cC9q71scCWhDZgm7mqcPfgsHyHeVDhnRZIB/95znWMhAAgDqhjvlHh8JJi5XCPugV4cdTGV194R/M1jplkwVw6vFCP0bkSEjH3UxpSOFF3zimCTDaw6GO622WryBbQHkgrBRAkw8pXzIUX0E+uhod0xAQCADAptER4NvZzO0PaOyfxvnkh3+UIKyC5j3vZiTgqvKodyJiCp69O5kG2wEaWV9J2LsRNctSOvNDg0w+WdVX8DZAtgBgxSCA3z9vTqTu3IB8BQUsvp9lLCAQAIBNMpVUHYiQIqD/HU+5+YdTMlrhxnf1ZkIV90dEc4W7ypm7qjshIySSG199665IUr71lL/NZ/me5vuvnBEyymQgOAV5Y8CxNKgMWPnsU2S1AAEA2Izz8MtcFsxYlK1eXhql4R+sbW2/7I36dm59/9FI6JWxeAJoOgdq9NOZ1P5HI/rW+uaxlH1rL2tP09zyb6P/vO6XDeCuAE5rJ7xPKd9ya0Bjr+W7s7aBAABsCI3FuSaQJkIy5jEdXGDzlMphjrVspFzn93tPJCcjxQm/nak2euLbxyX65vr2scSKtafVEJAsl5PHppVo/gfrDKSFcmkg353RlkAAADbEN7NZMIf/o0NpVHOeYfNo7NM9/TjFy3JOW1yj0pQief8AAaBYRd8+ljRZ7em3AqtlbnSatHQ/o/9gPcjHlK8ZShBAPjwAAQBY9+EohBpp1WXd3pe4Pq7+YSNBrpmM1NiaQ3xtT+JGKvHURh+byzgQRSz69sciSpMd94eX68gC+LPUSbofYL3I15TPGUJPgFv6SAEAAgCwTjoWwnCOL+1MXPsCtU6wMVTbd0EJh1gz0t+bjGcX6UZUkw44CDPtIonIeGiPn0XAM9f59AqCjQaP1Vjz4gDKB3d5H76TMhcgAADr4alh+xFOpWH9Me8cdhw2gxqCxe4QX9IZl0M8tORoAInka0BrIaaA51VdfPf/jOE1wOYCyD/NZe6sNvsZsvLlAQgAwJrQiKRLjEc3t3vF9gnze6EO9C+6qGfAqyv6r/Nx3f4/OEjtP1IVrYWYsgC012OeeiFdL50PsFleCmC6xqGuhPUOBADg9MgPen0idTsMH4ikcB/xTtsCQXyoA3N+HR2JuBncnf1x7aVS2bnzqP1HaqK10F2OZ/1rr2vPx/q9pevn8B2gDswmzt3Wl5geDyhfXj4912VAAABOiRoF3WHcOchHlS1S9w/1IfUL6dPpOGfBq8/Ht7NZVGU0z46kUd+AIv/MgPn3aDw7IB9/ORtnA0x9a+n6FOcB6rSXjs1n7tIu2z6zfPpxpmQBAQA4Fd95x2Cv4bnY53ck3oBnjO+ButK7mOVzc2NziB8YTN1kRCWCo94JuraH9H/kZNGaGI3IQZ72e/6RCJtgSsf3MjEI6shibcTmLsMBNfn03zESEAgAwGoonemp4dTsmCB1L352OHHYb6g3Sot9NrJmgAdKFff9bFyZNJ9P2w5wIq1zkD+PqKeMnvQHv/cPRDYBRZkeS/gPUG/fuVZGaLUUQD79i37tM/kCCADAigz4k/XV3YlZBabU/0nSmKBB/Ogd4gtKcdwOqzvwY8PeIYjIGZbzc5TRf8gqorURk4Osvf+41wHbIimHkW7/kVtQaBAjS5k77H1Uqxdo8u0HuD0DAgDwd6QWjs1lZkdjqXMvKUzQSBRcurvfrgGvp1zUmUTV+V+U/Innqm7S/5HVHeSuyGZmH18IY555PS4QpNu5QIBGIh/V6kQh+fby8fGigQAAnIRq6l8bt3s7du9ASt0/NJy3jE/AqNcUDZU7xDT6TBe7H06l5uc2I62Tc/za+HgqroaY0gHSBWcUPAtAOl26HaDRfvStfXYDavLx8aOBAACchGqgb+i1qbg0pqmzjNaCxjOw5PLb8SI7w3s6Km4gsrnA6m/yGOn/yGlEa2Q2iUzneV2wp6P4GU/S7QCN5qe5zGxATcEJxmcDAQA4iZGKM6u01LiH0iVoBrKNDw6mpuf6blaeHo5vJrBqHw91kf6PnFq0RmKrk9XTSicU9ZtKlz8+lDrOPdCsYPOdRrMA1Eh7hDIYIAAAJ/LBZGZSYV3mHbJubv+hifw2n+WGspg3YRU3l8b5TTngImuR3+bjszfSCdINRfye0uUxflNoHW0LmTvfaFaNfH0AAgDwJ3f124tYnukN90tjjC6B5nNFAW+LleHz9kQWVe2/SP3zvjJG+j+yNtFaSSPbI9IJ0g1F7AUgXQ7QTJZHalucsCFfH4AAAPyprPYbjFZe0pkQuYeW8N5k8W6Mr+1J3GCEtTRLxhszIfbqZGOcFW95DPBm5D1uPKEFqBeAxbHC8vVniQEAAQAQv/tD9jnGumMrcvrIYOLmuf2HFjC05PLmk0Vxgne2yxGOswOwMoh20P0fWUfH+BizzhT0eMfriJ0F0nv7/GFnmOZ/0ALku8qHtZYFIP3WsUBQDAgAgOeTqSyfEWpJSe31hvvbWZQUtAZ1yj1aoK7xt/Ql3hGOcz9p1jkHW2Q9cjxSB1k64pYCZcs86nU4Xc+hVciH3Wssu1a+/qfT+NZAAAA86pBrKUq5xcv1PXGmYYINtPR+8Ma7CDfHymT4aCrezfTiKPX/yPpEayZWPpxK3a72YmRySIfjRkCrUHPNa4yV1cjXl88PQAAA3B19SX7ottSs7H/jKChoLboNuy3w2zCNwLqzP4m65o/6f2QjfQBiZTKp7pktgX/D2yLOegI7PDOcmLtgu6OPJgBAACB6ZrwesNb4RylKvYt8G2gt6oz91kTqzg44C0C9PdSMKGYu6eRAi6y3AW3cw7K/m82C1nv67dLdCed/aDG/zNkbKyyff4YYAAEAXkHcdJYzd3GnrQDAYa+cMNxgATXLuTLgztixdjRfZtSf4/Z0cKBF1t+DZipiBzn0yRk64HSVcSKg9agHxT5jNkg+fyf7gwAAryBuvpnJ3Pkdtgz9f0n/ByOoa/4Tw0mQ87F16xD7GM22hawQ9cxIc0Vrpj3yTtnSHSF+O+nqJ4e5RAA7PDRoqw/N/lLifqTJNgEAXkHcqNbeUqqf6pM6y3wXsEOpnLkLO8O6DdM+enI4jb6R5sdTqbkRp0gYpTNaOzEj3SEdElovAOnqErebYIivZzJT+0g+P322gABA5DxlzMCrY/lkhe8CdlAWwH0DYTXFUsqhRpnF7ga/Opaaq79Ewsie0dqJGekO6ZB9AZXQqOnpA15XVzj/gyHUWNNSKZp8Gfn+QAAAIuZxY7POb+qNu2M52OTnucydeTycFNhnRlL2keeRIVsdmJEwRGtGayd2pEN0UNgayHc7k7InMIjGAVrrqcEoQCAAQADAlFJ6xjsbi+glMIbSYa/vDaMM4LKuxP0xz+2/uI0RgMgmxsjFjnTIsTl7jYJXE+loJv+BNea9T3tkgAAAEAAAQ1HJ+wZsBQA+nMpo3gMm+WgqDeL2/9mRlBTYGrcQAEA2KLcQAPgz+KmMohAaoX40xaEGbO6h/4zZ8h8eHEwdrTIIAECkjFecu6PfloP88xwaCWyisWCHOu3f/nfTRDNHR4GbewkAIBsTrR2Ok1WkU6RbrI/+myZmAwZRQP6NCVsBAPn+4/TbIgAABACsNPD5hQAAGEXzfI8OpaZv/58b4ciyjBovXdtDAADZmGjtTHKg/JNnjWcBPOZ18wLqDwwir/bLmYwAABAAABuMVmzVyGr28h808AGjjPn9cqnhWtjt+egy9s8yQ0uZu6qbAACyMdHaGaKg/E/en0pzHWP1e13eleQ6GsAiym611uNklP1CAADipLucucOGHOSDpcR1LOBwgU3enbTdDVu/7e7+hFswAgAIAYC6Ip0i3WJd/0lHA1hEIzV3t9vZL/L9u2kCQAAA4kSH7SsJAACcFtnJCzvtH1ou8HvoV8poCAAgBADqyDezmdvXYf+bSUdzpgGr/rZ8XCt7Rb4//jYBACAAQAAAYBW0Iv83ngYxT163YEephSUAgBAAqBMaYfbIkO3sp2WRjpau5quBRX/7QKlCAAAIAEDroQQA4PQMLzl3RVc4B0l1625jHxEAQAgA1AE15r2gFM4+kq6WzgawxO/zmdtpqARATU57SJchAABxYq0JoJTj7zQBBEPoIv2/46k7py2cg4s6des3x352IQCAEADYHGWvAF8YDeP2f1mkq6X/SIICS1hrAsgUACAAEDHWxgBKfqZ+GQzRt5i5G3oStyWww8t1/jcPRn54YQwgwhjAzdFbztwlnWHtIenqW/sSN0IWABi6SPhkigAAEAAAAgAEACAIPplK3c628A4vygL4wP/2JOLtJKfr5l4CAMjGRGsn5ltk6Y43J8K6/V+Wc9sr7tNpcgDABhW/l173e4kAABAAABOo/OfBQVtK6c2JLFeWAK1GdaSWSmTWKxd1Jm4ycgN/Sx8BAGRjorUTM9IdF3WGu3+ku+kFABZY9D7t8yO2fG35/rQAIAAAEfP4kC2l9CgdzMEAqTeMn01nbvvxsA8xb0/EvZluIwCAbOIAGTPKIAr5+0l3S4enHHKgxWiSxpEBW7ZIvj8QAAACAKZql2cTvgu0lhm/Bm8sQPr4oa6465gfGUqCGN+I2Bsnp7UTK7oZLEL/DOnwGfwJaDHyaW/qJQAABADAEP8asTXffEdbxU1QlwQt5uuZzJ1ZgIPjWccreR1vrLw6lubvgEMtst59o7UTK194/Xd2W/jfUTpcuhyglagUZUebrQCnfH8gAAAR87rBEWe/z/NdoLUUZXycOmLf0Ju4uUht/cdTYY1wROyMktPaiREND7mrPwmy+d9KIv0H0Eo+MjYBQI2NYy8PBAIA0fPTXOYOlGwddp4fRTFB6/h1vhi3/8uyq73i3ptMXYz3YG0LWf78HGqR9e6Z9oX4doye+MvpzO3tKM63lC6XTgdoFXcbm7Yln/8nJm4RAOAVxE3/osvrhG11L6+4JXQTtABNoHhgoDi3Xyc2NBuNsLRGz7yngwMtsj7RAXgqwotjPfP9BdN/ehbpdKYLQSuY9nvKWhBaPr98fyAAABGj7qTXGEt33t5WyW/uAJrNHwv2MmLqdaP58VQW5VzzSzo50CLrE62Z2JDF/WYmc/sKGDA76HV6Oz4FtIAvpu1lFMrnnyfRlgAArwDuNVbvpwYlz41QtwfNJcmqTTGL2jTuTr/PxyLMAriVUYDIOuXWCEcA6vb/4cE07xtSxKaOKi1MiAFAkzk6ZMu/1m+Rzw9AAAD8YTt1Z1iLUPbE27gMWkPvYlaI0VencoK/nc2i6wXw4mjKoRZZl7wYWR8a6QTVyZ9b4H4Z0u3S8QDNYrLi3JXGMmzPyC/YcK6BAAB4Pp3O8rR7S0pqd0fFfTadOcw1NAPdDL0xUfyRcXKCZyML/h9fyDjUIuuS45Gliysd+K7+YmfKSLdLx5MFAM0Kqn04Za8JrXz9z6fZBEAAADxd5czUjNLl8WX3DiR5AxWARjO45NxNvXGkiv8QWfffcurM6TfErmitlCO7ICva5JPVRDpeuh6g0aik5p7+xFxJzc72iusnEwYIAIBY8M7O/pI9Y33A/6YfZlFU0FjSrNqoZ2ck4+LUCyCmjtiaKEIfAGQ99f8xTaGRLrizP479IR2vRockQEMjycdpztgcp3mh96sX2ABAAACW0egfa4pKzQCfGk6jS1mG5qJeExbXfyOd4F8iygJQgOeVMfoAIGsTrZU0ogCAJp+c2x7P931wkA7o0FhU+//AYGKyoabWPwABAPiTL2Zs1sleUKq4EuN7oIGUys6dHVGK+NZaeU1Mt5y/zdMHAFmbaK3EhLqUbzsez/eVrpfOB2gE0h4/zdkNqsnXByAAAH8ykzizKdCPDKZE7KFhxvrRofhuh5Wa+GVETTYHFjN3qIsyAOTUojUyEFF9rDKBDpbi2xfS+QCNQH2rbjdaciYff4YEACAAACeimqA7jCotjS35aY6oJdSf4SXndkbYIE5ZAPdH1GRTZUSPDVEGgJxatEZiKTmTzdfzxnT7f+JBSGnaAPXm8xm72Wby8an/BwIAcBLVMWh2FdeNvSguqD8vj8XpAEv2dVQbYsUQWpPq+Hgqc+cwDQBZRbQ2tEZiMTPH5jJ3UWecWTHS+dL9APUOql3VbXdPvTOZMQYTCADAyUgnaBSQ1dtQZQF8OIXBhvoxUXHuyu5408LVoChvshnJttK406u7KQNAVhatDa2RGFDj02dH4g1+SqT7J8gCgDryzmSa+6oms168b//HPKd/IAAAKzC0lLnrexLTBpv5pVAv3vXGemd73IceZQF0RnLo0Wz3o5QBIKuI1kY5kmCY9vy+jri/9y6v+z/iUgHqRNtC5i413GdGvv3QEv4zEACAVRzkl0bTvD7Yat3ykYEkmhtLaBxThhv1tKLuOZa42ufTNmczI61viqm1EQPa6/TDqIpswBRN0WCTjCw5d4thf2JrreSljO8MBABgNX6azdyBku2o/VsT8RxYoP5o6Xwxnbo9HARz2dFWcT2RZAGMVpy7tofAD3KyaE2MRpIOrr2+g14YucgGyBbgTsBGUd3/f/zh2vIo4Qs7k3ziBwABAFgVdQVXd/Atho220qyOzcfTrAnqv8Y1BmorDvBJ6c+xoNrnM4/zzZGqaC38ezSe9U8ZzMlZhU8MxzP5AeqLtMZ3s5nbb3iU5pbIJv4AAQDYBO9Npu7cdttG+7Y+SgFgY6hWz3KWSytkt9/v3eU4vn/JP+d57XxzpCrnRbT29Zy7WfsnyQXeFrQvcDsK62esYrvr/7J+o9cFEACANaFUyCuMKzV1Wn2JMT6wTlQ68uIot/8rjcV6dCiOKwKNQXpwkDIApCpaC7GMxnpmJIm68/9qFwqyCZQVwnpRL40txte3fPkxpl0AAQBYK6+M2U+TPcv/vk+mmGsKa2d4Kcvr4XB8V7oJS/JRoDEwtOTcduqgoxetAa2FGCiVM3cxum/VGulhOqTDGqn4pSLf07qPrN/3ChdlQAAA1kPfYhZEkzTVXv00RxAA1sabE9S/nuowpFroGPxg6YtHqYWOXh4fTqOwHWpUpttKbv9XF9kGgLUc/r+dzdz5AfjH8uH7SG0BAgCwXu7pt39boPSra3qSvK4bNQenc4Iv7+IG7FSi99MWQT2snvDYXGa61wnSWNG3/yOS2m+t9Yu4/T+t7lsgBgCnsRt/zGd53f+WANa0xmYDEACA9TsNXtGdEcCNgX7jXf2k8MGp+X42jPXc6r30r5HUzUXgCE/VJp7w3eMUffsYZsBrL2vyBbf/p9d9shEAqyEfU75mKH7x7/OsZyAAABtg3jsOd/SF4SCr1umBwST/zQB/R7Gh2/vCiNq3vKymo5LXCxcdqYpvZ8JI5UTqK/rm+vYxmAvt5f2s8TVlE8pGcI8Aq/nD8jFDGSEr3x1/GAgAwIaQHfxtPhwHWQZc0VmUHvwd9Yk4v4Pb3rWK6oXLEewjxTmeG0mDceqQ+gSL9c0jiHHlne0fp9fFOgJD1Z5CACcym7jct9wSUICzg9GWQAAANoPSB5/xztLWQBxkpTkq3XGW0idYPuT5NfzwIOOv1ntIimUiQFc5nJpOZPNBYn3rrnIca7vTP+cOpl2sy394xNsK+qbBMtNJ1X8IZXSwfPVnIinjAwIA0GB0EAhpfNDO9or7z1iaK24A1cFdSgOsdcudfUne8TgG3p1M3dkclAov+sb61jGgvXsvPS7WLZd1Je44t6dQO/y/OJoGFUS71K9fav+BAADUBd2gKmXyrIBuUHfVggBkAsSNnODXxknx3lAgzTs9v0SSDqvbkpt7OSwVXfSNY7kZ097dSVBrQ9lPshkVzlBRI99RPuSugCbFyEd/fjQlgwUIAED9UCOhiwO7RVXUVoYcZRgv/f7jX9+TmE3V22u4v8bWWk+NWA5MGgl3FoGiwoq+bSxj/9TITmN8LactS/dZLS2UzejHcYiWxdrFQWjlM/LRS2XWLRAAgDoilfLfAG9S5QDREyBOUr9oP57KzNZ2Hygl7tvZzHQQQLcf70+mLgaXIqk5fYyKLO6tbpLFYau/mrGtV/TbpPukA62ul8+m45gSAScjX/Gx4TSYmv8TA5xvR2KrgQAANBndBF7ZHV6arBT5g4OJGyWnLzpDfke/3fX66ng1MPWkcWfjtj7tnTjWzIR/zrv7aRhZtMZu9w8kbjKSILDqlvW8Ww3bY+m85RRrq+tG/RNmiQBEhXzEBwNq+HeiyDen8R8QAICG8cNsmF2Ft/vf/JBX7H2LGRHSSFCn751G6/fO879raKn6OzV26mApMZ0FoMZpS5HcnqoBWIiBTmR1x1jfNAa9r2f8ZiZz+wzf/kvXLY/akz0+z6iOlu3oIp06CrKav6DA2fYA/Vv55PLNAQgAQMPQIeDp4TDnCkux6zazu0wQIAb+PWp3nT44+NeBej6AMYXX9SRucCmOXaNEoY+mbKdQI2tPNde3jCX5SxksRwZSs2VP0nHSdfPpX/6EdKHV9SMbAsU//MsnVIPQUMu/5JMv4dQCAQBoNL2LmTvckwSbDqrDzEiF71hk1MTnQMnmGjyn1l3/RHv946xu7ezuKTlG70/FUUMtNPnkmWGmR4Re969vWI7kDKetqbp6y+MspeN+POGmUv+XdOE5Rn+zbAi9AItNx4LLfcJQy77ki/eySIEAADTN0ZjJ3PmB3pDpdmR3e8X9Nu+ImhaUL6YzkwZda++BwX/WI2sZPjBgu/bwks7EjUUUOFvwB0dlDG3hMB2kjte3W4joAnfG65TrDQfm8148Xsf93eQu993YYvTC4MsZnIQiIt9PPqBKUELV8fLB5YuzQoEAADQNpfCpu37IY7Ok+N+eSN0UEwIKhdJ9rR7cNJf701W6S/86b/cmbFmeG4krJXZ4ybnD3WE2hYpV9K30zYaXIgt6+oOA9Trl9hXGMEqjSCfubLMZSFJwgv7BxUI+n3w/q/0n1tr1Xz74PFUqQAAAms1AbcZ6yDdk57ZX66dGlhxR1ILQsWB3vNSNvUm+b1YLXKgO0fqNQ0wHq6y2nq6mKWAwom/VsRDXrZgONFd02V6j0m2rHaSlE280qvtkSzoW8A6Kos+HlzL3xHCS+34hZzjJ9x4g9R8IAECrUPrROW1hO4yqmbyrP3E9i3zPIvDCqM3MFO2T080i/3EuM92ISL8ttiwAHVq+n83coS6CANZF30jfKrYb27cmbPerkN74cW71jyKd+PJYarIDu2zJCzQDLAQ9Zedu6UuCzlxdzl79aY7DPxAAgBY7x/8aSYN3HFXrpxuU3+dRqiGj0XpWb5J0ODndWCnN8b1nwPZB86LO+PaJ9NxXM5nZxpJIxV3o1+V3ER7+Bxadu6rbdiaedNrpZpR3et14aZfdzK2hJexryMhmXdxZjJ4uz4/G05AXCACAYRZqh5Yi1Mnu7qi4dyaqdVXo17DQ9/pkKsvn1lsMMD06lKxpTR33jsoeww02t/pnOTqURtVgbXl9fTCVmv42sYq+ib5NbDo7qQXgLd/+69scX0PAUP+GdKTF5q16hs+nabYWos6WL/e/8bDr/U/sb3LfQBKd7QUCAGBYyfaUM3dtTzGiqyoJ0AFHt7UpFj8YZhM5kDazUTR1orOcrfk5nhxOTQfULigleUpvjNtDB00yAWzd/OubxGh3//AH68u6bHf+ly6bXWOjXdXaWz2oybbM0jA4GOS7yYeTL3d2W/h6brnuf4jRVUAAACyhmwjVJF3aWYw6Wd1CKKDx2XRGB+BAKHnn8RKj6089JtbDr7V0RcuO/dGhxE1H6BBLHagcgJ4ANspqlPYfo4rWYVQNbC33DJEO+3Ud5UKytdKVVseglmgGGARaR/Ld5MNtO14MXSff+tgcWShAAACMKt2PppS+XBzHeG9Htd5qosL3tb72NNbHqjP82zpr5tXc1/qYTXVRjjULYLkx4NWMCGxZAErvPsaGf8tBKN3+7zecibI8pmy9jcp1kWC1kaFsDBcCtpGvJp9tb4FKteRTy7dm7QEBADBLObVfk7gRR0Zz5RkFZBfdRN9ktPnf4Z6N1expZvaFxjNqYq5HlDMmnXC4uxilTyGlwh6ujfqL1SGWnVVqs+V1J93VvgGbqWaB0pkWn0k2ZpoyAJOktaDYbQXo8n+iyJeWT12m7h8IAIB1kloa35aCOZ2KKL8xkeIAGOQXb/i3GL2pfG8ydRux3XKdNXLPcgqjnu/b2XgDY9W50i53OosU9LTsDOtd653HHI5VRpHlzBPpLN3CbuQbSVdKZ2416ge0cRFgjknvk8k3k4+2pWCZTnd7X5qO/0AAAIJhyivkIqbHKg3wyEC1FnARpWyGh4ds3hgdLFVc7yYWitIZrWcBXOn3+XzktxPKgnhmuFhppxbLsfSOY++ArZtAzTK33phxdhPfSTrzoNHyBtkasIEygLrLmbuzv3j9WLbWmv5x4QQEACAolmsUdTgoYgrqxZ3VbICRCuMCW42i/7sMd46e2aQBf2syNb0flG6p8Yuxo4OZ6jSl87aRDVDX22S9U71b0mCd+2I6M5/iLJ21GWYMT3SRrZnkUNZyxr3v9bZfZ1d0FbME6xqv85RtgmUFAgAQZHT2mxm7ndk3Kzu9I3BHf3UcGilarUMjwCweuDTOSs76Zs8sY97RuaTTdkDsht7EjdIoM9d5x73TprTNMwgC1CXl//6BJH+nNMCqBjtVh275wCNdNbZJXZDWAh0WRwLK1sQ4dtIKyxOnVGa6s72Yek8+s6ab4FcCAQAIFo0s/XomcwdKxQwCKE3r/I5KXqtNSUBr1tf1RhtG3egd9YE6LAo5AR9O2R73dU5bxf1vHKdY6IurdOO18bRQzahakVmid6hDL6q1yjuTqelDj3SUdFU9Di7SnTcabewqm8M49uYjc/rEUJr7XEWdviJfWT4z6wsIAEAhHOJf5oobBMgDAd7xuawrcT/OZnk9NLq7OShKvsdg3fV2vx5eHUvrtg5Glpy73Xjdrzp3qx4T/grc/LGQuZv9IebstgqTAtaYTaJ3pXemd8cN2F9ob1ntjr8s0lHSVfXyG6RDtxsMop3fkeQ+DTTHf5RP9fl0mpdeFnnsqnzkX+ZI+wcCAFAwlCq/q73YDuwO77w+PJjmXZrJCGgsSgl+YthmqvVFnUm+BuqF7tY/nsrcue2207V1Y8vNxclorNm7k6m7qptJAadbP3pHeldzJJOchGzJK2O2x+tKN0lH1fPTSYdeZLCEUDZHtoeylMavewUC5VPJtyqy/lNWw08ElYAAABQR3ea87g8IeyLolH2xd1pe8g5bH1GAhqEbsasNNpnUDcW9A0ndA0CqsVdtueUbkENdieskC2BFuvx7UanQ+UwKWNH51bvpYu2sSIc/BF1suJfO8riyevcBkQ6VLrWo82R7yHhqHENLzr3q/UVlVhZd/8kn1uhLMp6AAAAUFqVyqXt+DEEA3RLc0FO90Zqha3BdWZ4VbfFWQCnMHzeoK/6X05npvSNH/V/0w1gVnRe+ncnyxnbntnPw1zvQu9A74Sy1+iFYe2qr8QOMdFMjkC49u81mtp9sEMkq9UW+0qd+Ld3al5gs/2jE3pFPPM9CAgIAUHQ0x1kNw3ZF4ABvWZ4W4I3Z7/MZzkKdUGOwBwZTk3XVml/dKGOuMWhyjCzXk8sx7l1kjZ4qeDXl1++xuSwfdba9Lb6Dv55Zz653oHeBXlwd7SXL6c/SRdJJjRrRKF0qnWrxuWWDGAlYP70oH0m+kqY/bI1AD8oHli+8gAIEAgAQjbLPqh2Nd0VyC7alVuMqp3dwyVEnvUmOeUdht9Gb8BdHG2vNf/aHJuvjj9S9m/rYU6PXo5RPpbo+OFh1eovcI0DPpmfUs+qZ9ewskVOjPWS1E/6JWRzH5xv7JaVTLT77vlI1sA8bRxkuA14fHBmo9riIpVmqfF/5wCnLBwgAQIy8PRFPEODEelf1QugpM+plow7DK+M2HUKlLPY14fb76FBqeo1rhNuXMyzutaLDcKns3LMjqbu2J3F7C1QipWfRM/3bH+K6y44613WgPWR9lKR0UaORTrWaDi5bRMnT+pHvIx9IwZ09kfVFOVhK3NuTXPsDAQCI3PFVEOCSziQqA6D+AFd2J3ln59IC3sN60Iz1Q0YbA93W15z50Gq0ZzlwtqU2FnCUNIB1o0Zqn09n+cFKjcbOCbBEQL9Zv13PoGepd3O4ONZBdezfFuO3mM1o+imdepvRMaiyRROs73Ux6D+o6t7lA50R2WQU+bpfz1AOCgQAAHLj/pVXiLEFAU4cfSVjiBOxNrRWthp0Grb53/TZdHMMu+ptHzOeBaBDoMYCcuO78W+srvhqgqZvfSiAbtj6jfqt+s367WW83A0HxrV3rAd/nh5uzu23lpF06zaDel+26CuyndYcvFdT5Bt6k8KP9VupQa4CHt/MkPkJBAAATgoCKCp6oBRfEGC5cdp1PYn7YIoZ2KfjdqM3QZd1VZo29lF/S9uCgma217VugUu0d9/04Wc2cW7Ary3NRVfWkJquWXCg9Rv0W/Sb9Nv0G2dp6rdpSkZHnJ58k1lx7V4HNWt3S7dKx1p8F/f20wnwVMinkW8jH2dnhNNPttQO/8f9fiEpDggAAKzg6OrW6IquJIoOsCsZCaXD6RZNxnI6oV727wwvOZON0vTtXvaHoGbeeCrW8B//d247bntNa4QZXY7rqCezasBUa00OpWpodQjXgUz19krL1s2xasc3szb03+rP0J+lP1N/tv4O/V36O/V36zfot9DIqn5or2jPWE7919qQ7mlm7bvWmnSsxfeifSLbBH8h30U+jHwZ+TRnRNTg7+97RcE8NX9GTQIBAIBTMLDo3C29SaE7Yq9F1DjrI288h5aIGi/z8qjNedg6HP0w2/yP1FG7KbTsWKnBkyYXsIQbj0bq6Vb2Y683XvWHpUeGkrx2+hYvN3udKp2ikqOVRP+b/h39u/pv9N/qz9CfpT9zikvOhqM9or1iuSnallpmT0cLMnukYy02yJRNenmUKKeo5JNNstx3kU6J2YeTD3uX16Uz6E4gAACwNkaWnHvUO6DntscdBNC8bDnlapQ4GHnhmOZBHzaaFntXf+LGW9DDYalWK2y9nvLegST/ftA69Po1s1zO+UoySeq+CR2nvWK9XE06pxXmSDpWutbie5Ftil3HyUeRryKfZXtb3L6bfNeHBxMyQ4AAAMB6kUOqlL9dkQcBlp0uNc5R2uXAYpzrwertj77Nm97paVV4RjPVrzReL6ybkK9plAVwWh1nPfNNumaoRYcaaRDpWosBz1ZlgVlAPokO/jE291tJdndUg2QKWGH1gAAAwAZQ85j3J7MgR2E1KiPg8q4krxHtX4wrrVodpy2ODLrMf4/uFja609/8P+9sWD84aN0yLxtgZbQ3QgjkSde0chu3L9icGCTbJBsVC1oDytTUpYR0+058tD9L3hTspu8NEAAA2CTSo20Lzu0vVUw3PGv26CF1033MOxyd5WrjqCKfrRTssFhPqPX4yGDS8nev1FPrYzR1ePhviw8PAFYPU+9M2A/iXWUgzV3vSjrXoi8gG9Vf4Cinnky+hnwO+R5Kc8cn+ysAdFVXxfUucusPBAAA6orSzO7uT8gGWCErQA27lH44WileHa+M6WfTaZ5WZ+3dKwjzo5G0T80XPsO4M3ZxZ+IdJNwjgBPRnrjYeABPuuUbI2U80rkWx8nJRslWFU3DyaeQbyEfQ77Gdnywf/gBR4eo9wcCAAANQ0bo+dHUZC24BSOkBknvT6Ytq9FsBCoDeXw4NTvn3kqqn27mrjfedVnjsp5lLCDAn2gvaE+cZTx4J91ipcmd3tnVRsslZKvmCqTf5Euovl++xU76Mf1Dzve+6Kvjad6zCoAAAEADmfWK9qOpzF1Ywvis1pTupt7EvTSauo6F8EcI9pQzd41RZ08NqaygX/LldGa+CdNFnRV3bI4sAAChvaA9YXnPnucPfl/NZKayy6R7Lb4r2aqectj6TT5Dl38G1ffLlziLNP+VbZn3Qb/w+4IJN0AAAKBJaATRH/5we03kc2ZPd9t6QSlxDw4m7odAD1yyq5/5Q61FB+Rcf9Buxei/UzHpf88R42PEVDP62FDqprkxgcjRreHDRuvZT5QH/G+0dsMp3WvRLug3yWaFeiaUryCf4cJOUv1PGejxvudx74MmxLKBAABAc8lqTsDTtWY0WzBKKzcMrDVgu7Kr4t6eTN3gknPlQJoGKpVSzqfF93pkMDWXXaGf891s5vaXbAcB5Fh+OZMxdx6iRWtft4fWD1nSJdIp1uyFdO+RgdRswCSEMgB9U/kCKq181/sG8hHkK2zFb1pR5GPK11QZ6iQj/oAAAEBrUU+xT6ZSd0VXknfHx1CdWg6UKu6ZkTRvpDRuvGngwFKWp59aPMD+PGdzDKP2w9Mj9juKK1V2rIL+gjgZ9rpN49OsT+6QLrHYt1M/STrYYgBFNku2y3LwSbZfPoB8gQOUU64pc01TMORr0scWCAAAGELpWEp/ZizN2kTTFO7z70uRf82xt9gr4N3JzGxDrBHDjRZL/nte2mW/PObVMXIAIE50i2h9f0qHlAzXs0sHW218KttlDdl42XrZfNl+Jiqt/fB/ZNDvhQVO/kAAAMAkExXnXvaHin1MCViznN1WrWd7ajjNUz0tXVxYbP63tTbP3vAFT37DowZO1scCKr24p4zegrjQmrc+yUa649+jqekMMelg6WKLmX+yXZbek2y7bLxs/dkc/Ncs8iXlU06QrQYEAABso5q2b72x05ggatnW5/DJKb3OOwj/807V4GJrv6PqEi2mdx4sVdwvATRVnPH+5wXGUzu1P+8fSEwHUwDqfRjTmrdum6Q7QmjUKV18sGSzTGy0xYdG2XDZctl02fYzyI5cl226sTfJy0zKJKoBAQCAMNB5Ql2LnxtJ83o8GgSuPxiw0zswN3sDqPFPepfKBG3mOe2F0dTcd9Pv0TzkUGrXdetj3enb7R3TT6YzGipBFHZJa313h/2U58+nw9iR0sXSyVsMHiBfG0+burZko2WrZbNlu2XDOfSv38YrWPLKWJo3csQuAQEAgED53h+Cru1hpE09GgdqRNDQkmv4ja3m6l5pMP1fNZOaPx0Kurm4b8B+L4AbvLM6sIiugmKjNa61bn0/3taXuIWAbj2lky3Ws6s/QaNtpf582WTZZhr6bb4cUt+sjVp/IAAAED5S5Rp99y9vHA+WErIBNiHLWQGqLz82nzVsNvQPs5nJGtlLOsNyDvRLf523PxZQzrsaApJqCUVFa1tr3HrjNWUn/DAbVkaOdLJ0s7n68VJ1VnwjkO2VDX5xNP3zth8fZeO3/hf69fOSf5fj1PoDAQCAYqFbZTk2t/clpMXVIUX0Ym8w7+lP3BvjqessO5fU0c9Rh2xrY+zkJNzp185iGt66f3YkNT8i86LOqrPM3QsUMQittX1Rp+1AnHTEk8Opm03Cer/SydLN1oL7Z/n3qVK2eqHbfgV01fhQtvfizgR/pA7ljvIJf6LWHwgAABTbEVPN4OvegJ5LxLwuh+IdbdXo+a3eiH4wmW26W66+z80G02SVHvj2RBrkmtcN2RXdifm1dHQoDSr1GGAtaE1rbVvPPtOB8thcmEE4NbuzWOYnW7bZnjF9i1nus6iZ34FSdXwfmYybF/mAeq/6PgSegQAAQATotrqznOXNgzCm9TvA6dZ+V3vF3eKdno+nsnxOs26g03VYVzWu22+wjlHjgCaTMNd7VnOQracfK7NE3x+gSGhNbzOegbPd/z5lXoU6kWPC62aL439ly9aj0yr+X1XzuQH/IaSzD/tD/w6a+dXVT5EdPDKQuG7vAyaYGyAAABAfupn5dDrLG7+ciYFtSM+A+wdS95l/xwq4TCXulHOl5fyoDs9iurpGd4WMahs11sh6sOuKriSI8WMAa0FrWWva+qFIc+v7Am/Eeb/BhqeyZbJplVMcNBUg1y10+0Lm3p5M85R0/JH6i96pfL0vZzJGzwIBAF4BQLU7s24/LqSmrmE3uxeWEvfQYOremUjdH6s0EBzyVvmWPpvfoAg303J8tgeQBfDyWMrNDASP1vBrfi1bv71Vrfr7k+HX3khHW3y/smlDK5w4lxv5KQ1d2YjKYNiKv9AQkW8nH49pMwAEAABOQvZZTQLvHUjcznYMZiOdzUNdSe7w6GZEYxpnasEANTiyOCNbjlkRbqUX/Rq/u99+kGu5ISBAyJTKmbusK4wxnDMF0G/S0ecZtN2yabJtQu9ZNk+2765aI79t3PY3LgvRr4cHBlL34xy3/gAEAABWQXcgamKnsoArveNGNL6xaacKBuzrSPIU2YcHk7wuz2KK+uPDp07hDAmlmVpPL5VD/MhQmtfCAoSI1u6jQ/Zv/6ULfp8vhnKTjn7Mv3OLtk62TTZOtk42T7aP3kMNLL3wIh9OvpxKDzn7AxAAAFhTIEC3CUrNUxMfGvA0x2BbvAnRb/plrjjj6ZQFoFRI68GtPR2VvHcEMQAI0X5o7e7psB+EfWQwLcz4M+lo6WqrdoQLheaM9ZPPJt9t+jQ9hwAIAADAqqiT/RPDqTtYIlUvRtHopeGC5Q5qrNTlXZUgUpP7F7m7gbDo9WtW3dut769LOiuup1ys/SVdfV0PvXxi7DN0gffRnvS+mnw2ACAAALBpdAb5aS7Lm9jtoj9AVFkJ/x4t3mx6rec3JsIYC6iGgNRuQihorWrNmh/75/e+xswVLb4mXf3cSIr9ikj2dlTc0aE0b6hYwVYAEAAAqDeqJftqJnN39ifmu6kjm5fzO6rd/4voUwwuOXdTbxKEc9dGQ0AIBK3VvR2hZNcU7/1LU3w7a7/8AqlPEEu+2HfeJ5tldCwAAQCARqOZvV/PVFMNqesrrtzsneTBgqagK6nh46nM7W4P4zsAhMDNAQTVtOe194taHy2dHcJ3QDaemadmiuqzIV8MAAgAADQNHQsVdZYjpVFPikbT1bdYzYReGE0L3T1Y6bL3D9gPYqlT+buTKZ2cwbQ90Bq1PmFDe117fiEt9reQ7qZ5b7GmBsnHkq8ln2uGBn8ABAAALByk3pxI88ZPmjtLICB8OVCquB9mi3/k7FjI8lIH69/jos7E9Syia8AmWptaoyGUNXVEUFIj3S0dji0L/+Avn0q+lXysBU79AAQAACwhl0rdZ9/yRuqW3sSdTY+AoJ0OfcOZSDLPnxu13zRLN6ua8T1DNQAYQ2tSa/PMAG6cXxxNo/km0uEE48MV+VD6hvKp5FuRAQZAAADALHKvVIP4wVSa9whgdGCY6f/PDsdz1TC4pLGAYTQE/GI6I/UTTOl7rckQGv9p7F9MI9KkwykDCHOk31XdSe5DyZdC3wMQAAAIxzHMqger9yezvGENzQLDygDY5x36u/oT95+xNB8BWeTUQ61V1VVad5bzzIy+xA0xFxCMoLWoNbklgKDmh/5AlRR460hHS1dLZ0t3S4eTARBecz/5TP3+4J+g5gEIAACEfLiaoVlgsIEAOc76Zue2V9w13Yl7ZiRxn0yneXBHTSDldGr2cOi+ymTFuQcHU/OBqq3+e7ziHXxiANBqtAZ12NwaQODs3oHEjQfeMV1bXrpWOle6VzpYulg6WbpZOlq6WjobGxuOjVWq/7U9JzT3Q7cDEAAAKBJlb9h0C6O6No1iIisgbFFA58hA6v43nuVNp9Rca9g7pXNpmAGBX+czd3EAjcx2R9LIDGzT7tfgjgB6vRwsVfKb8RAP/NKl0qna79Kx0rXSuZd1MeYv9Nt++UDyhT6fzqjvByAAAFB8FOX+ZCpzDw0m7kAJR6YodYvqsH1rX+KeHE7d2xOp+2omyw8JE4HcvJW9s/3v0TS/RbP+vm/377mM1wgtDObeEsCs+bP8Xn52JHXzgZQwSVdKZ0p3SodKl0qnSrfST6coE3aS3Pf5pHbjDwAEAACiYrZWs/joUOouYGRR4QICuuG4ojtxd/Qn7qlhZQqkecOwbn96WDR6eO1fdHk6pvUUWgUpPpgiAgCt4YMAemZIpH96jSob/SzpQulE6UbpSOlK/WbpTg78xRL5OPJ15PPM0tkPgAAAQOwoCq5bD41o0uxi6heLmfJ4jj+07umo5Gn2qlldbjKo1Na+RRtlA/oNcshDGGN5pX+Hg4voD2guWnNae+Zv//0B+u3J1IxeGam4XNctN+mTDpQulE6UbqQkrpg1/jr465vLx+HGH4AAAAD8zUFSg6NJbyDfn0rzkU1n4xRF02RQDvB57dXJAy+PVTMF1ORKDpPSd3Vb1qyuyPp77u5PgsiyODqUFnpCA9hCa01rLoTb6Zt7k9ymNEtnSEdJV83UGvRJh71cO+zrRl86jiZ98QS75cN85teAfJoiNMoFIAAAAA1H9dhqjqOD2MFSwjzjSEUNvFTv/sxImqcd/ziXuc5y5gYWq70Fyg1qODi45PJme9bfj4ImHxV8vBnYQIeYDybTfM1Z3xe7/G/sLjcmUC2dI90jHSRdJJ0k3SQdJV11kHK2KEU+inwV+SzfzGRMagEgAAAAG0W3Kr94B+tf3rlSbeSZBAIICngn63BP4u4bSNzzo6l7YyJ1X3uHS138+/yCmUo2ny2gw87r42kQ6+3G3iR/bvxNaBRaWz3+sHtdj/3MGI0lVDnZZm//lVij23ztLekW6RjpGukc6R7poIM0sY1eZCPkm8hHka+yiCIGIAAAAPVBzpxq6NQZ+Y6+JE+xw/lAThyNp3paHVCUcvvwYJrXXep2/DfvvA8tuXUfCEaWsrwDdwg3T89557NMKQA0CK0trbEQMrGu6Vl/4z/pBukI6QrpDDXle2QodfcMVHWKdEsIGUFI82RneyW/7ZdPIt+kwsEfgAAAADQG3eyOVVyedvm4d9DObccRQVbvlK90Zd3SHepK8oPBPf3Vm5r3Jqu3NV3lbNVsgTSrlqHsCcDx1z74ZQ4PFBqD1ta5gaT+fzi1+mFM/3g6qR70P52u3uY/OFjVDdIR0hXn1er10aHIarpWNkRraLziKL8CIAAAAM1CNnepFgx4Yzx1V3VXswIYnYScrvGg1ojSNs+uNR+UQ6cbPmUOnNhrYCqp9gI4MpAE0YxSTaem6TINdUZrSmsrhP2tGvzeRZfvXY1bUwDvxbHUPeAP+WoKqMP9zrbq3teUAGU00GgWOV2zVdkJjYf9YCrND/1LNPUDIAAAAK1H3al1aHvEO3oX+cPc2dzgIHXo5qzbf0kIhwTVPj87ktJ8CuqGMukVFNt6PJz9SlYYUg/Z0VYNDMunkG/BtBUAAgAAYJi2hcy9Np7WJghww4PEI/v8AehHSgGgTnw3m7m91L4jEQV95TPId3ijVtsPAAQAACAQZLaX00D/O566q7uTvCYcJwcperrqnd55HSYNADaJ1pDWEmVVSAz9YuQjyFf4qVb+hQYFIAAAAAGjhlCa2azbrKNDKd2ckcI7s6+OpW6RlFXYIFo7WkMETZGiT4+RTyDfQD4CnfwBCAAAQMGQbVdN60Sl2t39qq5qnZ8aQW3BGUIKVgqgm6y5tNofQ2PclBSQnCAQN4oPaR3o0CO9qDWi9TKbVjOn9hEoRQrWAFa2XjZftl8+gHyBRRr6ARAAAIC4HOBS2eUjfa7vSdz+UhLEnGsEWevtlkabafShRp1p5NmbE1V5fzJ1v85nf0pnuToSUdLvPeKRpaqMegd5JqkeDCUEDmzpr4X0r2+j76SpKMvfbshLz+Jf31Xf+LcTvvknU1m+Fl4ZS93RoeoaURr0pV3MvEeKI7Lpsu2y8bL1svkkRwEQAAAAyJ3nH2Yz95x3EG7pS/Ju0mQFILGIHOQLaqJD4K19VbmjP3GPDafuqZqoueY7E1X5YDJ1X85k7puafO/3zx/+YNmxcLJ0l6uBhIm/iQ6vMccTdPOuWuPl96FDuw7py+9NzUz1Tr854R2/M/nX+1eTMk19WP42jw6lec3+8re7sbc62375uxLgRGK67ZcNly2XTZdtn2FEKgAQAACAldDNwPCSc996Z/v5WmbAmTjNCLLizZrmqi+PStxXyzi4svtkOez30G21YMKJcmQwdY8N/VNeHqsebtciH05VnftGyruTa/89khdGV36uv8vDQ9VJJcvvQ4eVq094b5f7d7mv46/3u4dbeQQ5pchWy2bLdsuGy5Zz2w8ABAAAYM3ohlJptD/PZfkN28WdlSDmYSNIyHJWrU53LbKrXdkLjRXNlV/r75EQMESQJo7u8/tNtlk2WrZaNnuBUz8AEAAAgM2gNGU1UFOd7a/ewXh6uHozd3ZbhRFZCIIgCNLEUaeyvbLBssW/1pqdLtHMDwAIAABAI1HnYKUYPj5UTdvdR30tgiAIgjSskZ/KiWRzZXsXOe0DAAEAAGgVk4nLm3Wp2ZBqnS8oVQgGIAiCIMgmDv2ypbed0MhvlkZ+AEAAAAAsobLD0SWX1yFqvNbDg6m7qDPBmUMQBEGQNYhspmynbKhs6SiN/ACAAAAAhIDmpU8nzv04m+WNwXDsEARBEGR1ka2UzZTtTEjxBwACAAAQIsfms3wmMc4dgiAIgqwuspWymQAABAAAIFhUu4hjhyAIgiCnl3+PkvAPAAQAACBgLuuiBwCCIAiCrEU0VQcAgAAAAATJlPdjzmQaAIIgCIKsSWQzp4gBAAABAAAIkW9nM7cVhw5BEARB1iSymbKdAAAEAAAgOJ4aTmkAiCAIgiDraAQo2wkAQAAAAIJiMXPukk7q/xEEQRBkPXJld5LbUAAAAgAAEAx/zGduXweOHIIgCIKsR2Q7/2AcIAAQAACAkHh7InU72mw5VXu9U3VkIM27LJ/dhpOJIAgSq8gGyBbIJuw1FqyW7ZQNBQAgAAAAQVDJnHtwMDXXAPDBwcRNVpzrX8zy25VPpjJ3dCjJRxUSEEAQBCn2gV+6Xjpful82QLZANkG2wVojwEcGCQAAAAEAAAiEgUXnru2xV///7czJKZWp/3/L3seaTZwbXnLu+9nM/XtUGQIVt7O94rZ7h/GM4xUaGSIIggTSQE86W7pbOly6XDpdul06XrpeOj/9W3a9bIO1Z5ENlS0FACAAAADm+c47W/tLtgIAcghn1jFbed47iT/NZe61sdTd1Z/kTZku7Ezc7vbqnGacbQRBkNaKdLF0snSzdLR0tXS2dPf8Oi7QZRu2G8sCkw39jnGAAEAAAACsI3fljYnUnWXskHxbX5KXJmyUae8gti1UywZeGE3zEoebeqtBgXMoH0AQBGm4SNdquox0r3SwdLF0snTzdLJx/S7bcHOvraC1bKhsKSEAACAAAACm0a3LE8OpOcfxjYnM1bOisuy9ssEl536ZqwYFXh5L3UPeIVXa5h6mHyAIgmxapEulU6VbpWOla3+bz9zQUlUH1wvZhv+O2ysDkC2dpxUAABAAAADLDC1l7tY+Wzcpqglt9Egl/9huKlH/g8y1L2Tu65nM/Wcsc/cNpO7SzoSyAQRBkNOk80tXSmdKd0qHSpdKp0q3LjX4KlyBBWvvRLZ0aIkcAAAgAAAAhvndO1EHjNX/K01fTmQzyWpBgYVak8HRStXBfGsidQ8MJO6qrorb2VbtTK1Uz20ECBAEKbBIx0nXSedJ90kHShdKJ0o3SkdKV0pnSnc2+9iriQCyFZbemWxpo4PXAEAAAABgU4fez6ft3aLc553MqcTe+5KjK+fuo6nMPTuSuut6End5V+Iu8E7fee0VRhMiCBLsyD3pMOky6TTpNum4j2rj9xYMprXLRshWWMte+3Imow8AABAAAACbaLySRi5Zc0ZfG09dCFmU+onjlWoWxSdTad7N+tGh1N3ZX+0tcFFn4vZ2MJYQQRA7Y/ekk6SbpKOkq6SzXsvr9dNcl0mnhXCAlY2QrbD2jmVTy/QBAAACAABgEXVhvqPf1g3KjraK+2Ym3PsT/fJJ70D3LmZ5w0E9i1Jm5RQ+MJj8GRjYymEEQZAGinTM8kFfukc6SLpIOkm6STpqMpDD/mroWXYYy7ySTZ1O8C8AgAAAABhkZClz+0u2nCeln6qRVNFQB2w52+pt0FWuOuBKr31uJHX3eIfxqu5qGQEHFwRBNpLCLx0iXfJcLXVfOka6ZqB20C8XMC9dtkI2w9K3kE0doREgABAAAACLHJvPzKWn3zuQuIlKHO8/9T7i4gmNB1XTqnFZP3nH/f3J1L04mrpbehN3qLOaGaGZ2tvbqt231aCLLAIEKfYN/hm1Rnzba/tfzfhu8DpBzfj+N566r2b+6rq/3JBPOiWN5PypRoR3Gstik00tYhAbAAgAAEABsFY/KYf3XyOpS/Cd/oGc+oEll9/qfTCZ5u9JDbCu6U7coVojQtX2ntteDRDQdwBB7B/wdXOvPau9qz2svaybfB3yHx5M3Stjqft0KnO/1mrzKS0/GdkK6UJrwVDZVgAAAgAAYI47+mzdnOzyjvCHkzhO63WAdQt2fKE6h/u9yWq/gceGUne7/77X9yTuMn+o0HgqvV8CAwjSXNndrrTwand91eNrVvyD/nD/5HDqXvUHfO1Z7V3t4eGlYqbqNxLZjF3GyqdkWwEACAAAgDn2dNhymi7pTNxxZijXDZVSaFa23ukPs5n7fDp1b0+k+e3UE/7w8ZA/hNzWVz2UHKwFCDiwIcj6b/J3e116sddfN/cmeRmT9tfLY9WmexoL973ff20L1cZ7YxXnKBGvH9Jvsh2W1oRsKwAAAQAAMMWA90CtpU0q7XWWi5OGo6yB2bTac2BkqdqYsFSu3kCqxEAHltf9wUXNxI74w8wNPdXU5LPbOOwh8R7yLyhV3NXdibu7P8lv71+vHe6PzVUP92q4N7RUTdXX/qpwyG8KshmyHdbWywBRHgAgAAAAlvh0OjWVDq5mV48PJQ6XqfXoG1ROaFA452XGO9mTXnR7qQZX385mefaAmhFyQESKJFrTar75xXR1netgr2ya6VqjvXm/H8q1Az76yoa+emjQli6SbZWNBQAgAAAAZnjYO0yWAgDqcP0+9f9BodtOa6m3CFKPUqQhbm+DQrbjnDZbAYCjg6SzAQABAAAwgnxba7OTVUPbWebbhMan01k+poyDI1IE0VrWmoawkO3YbaynjSa0EEcCAAIAAGCCnkWXd4W35Cxd2pnkKecQFioReGQwDeqQp9u563qqDdvUAPGizmoTxBPlvPaKuR4Z1mqc9Y5OfGcaX6d3uiy39yfBTZ14YDDJU/whLGQ7LjWWjSQbK1sLAEAAAABajmpbzzPW8f1h0iWDpbuc5c3RQgoAPDqU5mneaoDY6X9/aeFkUWdxNUT8+W+imvD/jaf/kP+MVRsmbkQ0Fu7Sro2Lghjr/TufH0lXfI7V5O3J1H0z89d70LvROzrxnfUtVpvgLctTw2lQQRSNy+zwz0EcMkzu67elg2RjvyCbBAAIAACABZ4fTc2lbb9H/X+wpHlQKTUXVDqV7Ouo5Afa9brnyw0S/y5LtYaJG5HlJosbFTWmW+/fuZit/Bynkmwd70jvdl9HOOtBa/ejqZTO/QHz7mRqrpxEthYAgAAAALQUObh39dsbmdRPqmTQKG36mZE0qH4Ah3sS17tIJ/d6onfZGVhGiNas1i6p/2EjG2It40S2lqASABAAAICWMrjk8pRhS07S/o4KzZIKgOZe39SbBJP2rdGTR4cSN1nh29ULvUu90zOOh9PLQGuWme3ho0+431jWiWytbC4AAAEAAGgZv89ned2wJSfp7v7EJfjfhUC14bsDSv3e2V5xb06kBKDqdADTu9wZUCmI1qrWLISPbMjdxrLbZGtlcwEACAAAQMtQU6I9xg5o/x1PHdm3xUDfUd8zpM7ve/1++GOeb7dZ9A73doTV9R/dg+5ppMjW0ggQAAgAAEBLeWUsNTWaS7+FG7hioaZ2dwU2Au7SzkreUA82ht6d3mFIkyC0Ruc4/RcK2RJr9k02FwCAAAAAtAQ1uXpi2N4NSe8iAYCi0VXO3OVdYY0GfGCAA+FGAz56dyEFfLQ2tUahWMiWWMtwk82lwSQAEAAAgJYwsuTcHX2JuSZJIxRgFw51vv54Kqx+ADvaKu718dQRj1o7eld6Z3p3IdX9a23Snb2INi4z1+RWNneERoAAQAAAAFpBx0LmDhm7lT06lJJ6XVD0XZ8aDms04IWdifthNqMufA3oHeld6Z2FNPJPaxKdU0ym/Xd9aNBWlptsrmwvAAABAABoOj/PZW6XsQ7db0yk3MQVmKHa2MlQ0sM1Fu7WPo3uYlGejv7FsMY+bqllHA1xG1tYlJGimntL604292f63AAAAQAAaDa6rft02laDpDOPV9zndEguNPq6+WjAgEbDbfPr8pmRlH4Ap0DvRu9oW0DZHVqDWotonGLzmbcpZx63FXiS7UWdAAABAABoKgve+3huxNbNyMFS4o5xMxIFb02kppzytQSn3p3EaV8JvRO9m9C+p9YgFB/ZFNkWS+tPtneB5QcABAAAoJlMJc7dbqwB4I29SZ5GDMVHN8b39IdTKy7RTPvj1O7+A72TvQE1d5Tcw8i/aJBNkW2xtP5ke6foOwEABAAAoJmMVdQA0JZT/sAgzbhiQcfodn9wvCyw0YC3eMd9mJrxP9G70DsJaeSf1pzWHqGcOJBNecBcI8BKboMBAAgAAEDTUFMzS93Yt9bSIrmUiwf5vx9MpeYaUZ6ua/zTw/QDEHoHjw+HVcqhtaY1x9krHrRVZVu2GtMjNBYFAAIAANBU1GzPkmO+0zvm701yqooN1cE+6Q+RZwR0iNRafXMidTH773p2vYOdbeF8N60xrTVqr+NDtmWnsUAjDW8BgAAAADSVF0dtpURe1Jm43+ZxiGJEY9huDmh8nGRPR8V96R34JMIlq2fWs+8JqO5fa0trjJF/cSLbIhtjaU3KBgMAEAAAgKZxh7EGgNd0U1sdMxrHdqAUViO5Q11JlE0B9cyHusJq4Ki19QsTRqJl0NuWq7ttrVnZYAAAAgAA0DQs3d5tqXVFpiQyXnSr/MZ4WKUA/1e7VZ6OyI/Xs97cG9bhX2tKaytBv0RLOXXuJmPrVjYYAIAAAAA0hRnvDG0x5qA/NUw6ZOzM+sPlkYE0qMPlNr92nxuNox+AnlHPui2wII3W1CyXrdHzhLFeI7LBTL0FAAIAANAUSuXMVADgnDY1AMQTAud6vUesVN2Qxsqd115x70wUe4KFnk3PeF5AExu0hrSWejllgXO5jTmnzdb67CyzNgGAAAAANIGPp1JTBywdKn6nASDUDpo/zGbuwlIlqCDAwVLivpopZlNAPZOeTc8Y0uFfa0hridwiELIxlgJYWqNfzmD3AIAAAAA0gZfHbAUA9nXEVUcNp0b1uq+Pp+7c9rBSzdXIsmMhc0Vy6XV4VtO/a7rDqvvX2tEaKnP6hxqyMbI1lgIAssUAAAQAAKDh3Ddgy5m/qpvTP5zMpF8SDw8mQTUF1Kg57a2JAvX2GvfPcnd/WCMatWa0diZRK/A3rjIWyJK+AAAgAAAADcfaOKS7+nGC4J/0L2buiq6wsgDOqjUFLAp6lrMCa/qnNdNP3T+sgGyNpbV6NcFvACAAAACNRhMALuq05QS9ShokrICOcMfmbDXuWots97/3C7/RssDfvZ5he2DvXmtFa4bjP6yEbI2l9SpbPIP5AwACAADQSLrKmdtfsuW0f0UjJFiF1C+NtyYyd3ZgB9G9HRX3S6AHUZ1Hfva/Xc8Q0jvXGtFaSVEnsAqfTNsKAMgWdzEJAAAIAABAI/l6JjM3yqsbBwhOwVTi3CNDiTszoFR0Nfi6vidx3YthBQH0WzUm9HBPWKMYtTa0RqbIqIZToLVtad3u9rb421nsHwAQAACABvLGRGoupXqeFEg4zaFU87KvD/BQ+sBg4kYr4Tj4+q36zSEGW7RGOErBqdAkAEtrd4e3xW9PYAABgAAAADSQp4dTU53VNVu8gtcOp0Gz6JW9cqCUBFeT/txIGkSQS79RvzW0ngtaE1obCXoEToNszUFDOkQNNp8fJQAAAAQAAKBByD+2NgLwuh4CALB25/3V8TS4fgBqpPfGhO3baf02/cbQmv5pLWhNoENgrTpENsdS9sr93iazfAGAAAAANATNJ7+p11YA4MnhlKZdsGY03e2hwbBKAZaDAD8ZbQqo3/TjbHiHf60BrQUm/sFaka15fMhWI0DZZNlmAAACAABQd3q9p6y5w5acn7cmUkcCJKyH4SXnruoOqxRAcmlnxR1fsHda1W+6oFQJ7n1e49fAyBL7AdYRAPDy33FbAQDZ5F6iWABAAAAAGoHGkmnusCXn54dZGnfB+tB6+W7W3jjL08nW4xV3S1/i+gw5+/ot+k1bj4f1Li8oJfmoQnQHrFd3yOZYWsuyybLNAAAEAACg7nwxnbk9hmZ7qxkhM5BhI+gMbXGixVqafj06ZCPlV79Bv+WswA7/+ubKHOLSFDaCbI6lRriyybLNAAAEAACg7mjckKU6X93iDeDFwwaZSXSATd224+EFAV4cTd1CC2tf9HfrN4R2+N+WB1DS/NsDbATZnAsMTQLYzihAACAAAACNQO7FC6O2ah9v7k3cOM2PYBOoH8CtSmEPrH79TH+QfWcya0n/izQPBmb5bwiqhMKLvvUwdf+wCUYrmbu+x1YpnGwzIQAAIAAAAHVlNnHuqLHuxw8Opm6amzzYJGpid6grvKaASv1tRe2v/s6dbeE1/dM3tthEEcJCNke2x9Lalm2exRYCAAEAAKgnumm/d8CW06MU5DLXHlAHvprJ8pnwoR1qr+xOXFsTD7X6u64McIKCvq2+McBmKdfKXyytb9lmsuEAgAAAANQV1T1q3rAlp+f9FqVAQ/FYyqolLmcEWNN+V39z0tr1d+jvCq1ngr6pvu0S53+oA7I5sj2W1rhsM/1wAIAAAADUle5yls8btnSj9zU3elBHdIN2ZCB1W/4I74D7xHBjy2H0Z+vvCC1Aom95hNtRqDNfG8sYkm3uZiIOABAAAIB68tu85qbbCQBohjuzj6He9C5meXPJrQHecj83krq5BqTE6M98diS8w7++ob5lLzejUGdke2SD7NjDJLfRAAAEAACgbvzsHZ5d7XYcnsu7EtdOQy9okHN/cWeYde6ab5/UcVvoz3pzIrzDv0TfkCAhNALZnssNNQ6Vbf6ZtQ4ABAAAoJ4o5dGSc39dDzd70Bh06P1wKnPnBNgU8Nz2+ja70591bnt470HfTt8wQUVAA5Dtuc7YKEBK4gCAAAAA1PVA9I6xpkdqRjZGXS80iMVaU8DQDr6SSzoT98Ps5g8D+jMuCTATYnkuOvFBaBSyPbJBlta8bDQBLwAgAAAAdTsMvTxm6zB0/0Dipph7DA1Ete+qIQ+tKaB+7/U9iespO7eR84D+m1I5c4d7wnx2fbM5xoNAA5HtkQ2ytPZlowl6AQABAACo20Ho6JCtAIAangE0mqGlzF3ZFd5BWHKDPwh3+YP8es4E+nf139zQG97Nv76RvtUQ8/6gCcgGWVr/stEEvgCAAAAA1AWNALvHULqj5pDrtgOg0Sil9rvZzF1QCu9ArH3y4GC6rlKZ4SWX/zfbAmz6p2+kb0UaNDQD2SBL+0Q2epqsOAAgAAAA9WDSHyBuNHQjuKOt4t6ZIAAAzaHsl5q6658XYDM8HVCeHE5dZQ2HYv07jw6FefjXt9E3KqMWoEnIBu0w1Cj01j7K4gCAAAAA1InRinOXGmoGdn5HUtdO5wCnY9Y71k/7g/SZAR6ONR7wP2vImNG/c3aAkw/0TfRtZjn8QBP5bDp1ezrs7IPLumiMCwAEAACgXgGAJWdqLrpSfZl5DM1m0h8wb+wJsyv+bn9Q+XgqXbEfgP6Z/rfdHZUgn03fZJLDPzSZn+ZslQbJRo8SAAAAAgAAUA8GFjNTN59ydH6fJwAAzUc3bBcHOhrvgD+sfDmdnVQOoP/7U//PlFUT4jPpW8yS9g8t4Ddvgy7qtFUaN0gDTAAgAAAA9aB/MTPl9F/TnbhhHB1oAVp1v86H2RRQcnlX4o7NZS7Nqg0OdYupfxbis+gb6FugCaBVdvGqblt7p585gABAAAAA6oFu2wkAAFSRj/3+ZOb2Bpoyf31v4rrLGvfn3OFASxr07vUNOO9Aq5ANusZYAKB9gQ0BAAQAAKAOfDZtKwBwsz/AlPFzoIVo3vZLo7a6gK9Vtnq51h/8JVsDPPzrnevdM/McWq0DLE3HkXxJc1wAIAAAAPXg4ylbAYDb++j4Ba1HM7cfGkzcGQFOBthSk9B+t9613jnzzqHV6Kh9W5+tAIBsNQAAAQAA2DQvj6WmDi739OP9gw3UgO7m3jDT6EMUzTqn6R9Y4W5viywF0l4eY3MAAAEAAKgDjw/ZCQBoGsHzIzg5YAc13rq0iyBAo0XveGSJ9QZ2eGbYVgaQbDUAAAEAACAAANBAlHT73Wzm9pc4pDdK9G71jklwBkvIFp1JAAAACAAAQNG4b8DO7ebZbRX35gRODthC3ejf9utyVzuH9XqL3qneLR3/wRqyRWcbagT60CC2EQAIAABAHbA06kgdwD+d5iQA9pj3vvcLo7YOBKGL3qXe6TznGjCIbJGlSSAa6wkAQAAAADbNVYYCADu9s/UZAQAwSnUyQBrkZACLHf8f9u+Sjv9gFdminYYCALLVAAAEAACgWAGA9or7kgAAGGZoickA9ZBb+hI3VmE9AQEAAgAAQAAAAJrKAUPNzc5rr7jf5wkAgG06y5m7qJND/EZF707vEMAyx+ay3CZZ2jcAAAQAAGDTbDOUzryno+J66AYGxtEK/WYmc3s7OMyvV/TO9O7Y5WAd2aI9hvb4WccJAAAAAQAAqANb/iAAALBelvwyfX+SyQDr7fivd7bEFgcCAOsW2WoAAAIAAFCoAIBuB/sJAEAgJH6pvjGRmqoTtip6R3pXCdsbAqGXAAAAEAAAAAIAjZX9pYSRYBAUc369/mskzdNzOeivnrqsdzTH3oaAmEqc29eREAAAAAIAAFAcNILLUgDgYIkuxxAe494vf2Qw5bC/iujdjHN2gQCRTSIAAAAEAACgMHSVMwIAAHVAI+2u7WE84N9F74Rxf0AAoD4BgEEaaAAAAQAA2AwdBAAA6oZG213ZTRBgWfQuGPcHBADqFwDoYD8BAAEAACAAAGADlbj/PJe5SzorbmvEB389u96B3gVl/0AAgAAAABAAAAACAAQAoLBBgK9mMr+W4w0A6Nn1Djj8AwEAAgAAQAAAAAgAEACAQrPgT77vTmZuR4TjAfXMevYFTv9AAIAAAAAQAAAAAgAEACAGyv4A/MJofJMB9MxlDv9AAIAAAAAQAAAAAgAEACAm5v1B+JGheJoC6lnnOfwDAQACAABAAAAACACsRe4dIAAAxWKy4tw9/Yk743hxD/56Nj3jJOP+oGBc30MAAAAIAAAAAYCGye19BACgePQtZu6W3sRtK2AQQM+kZ9MzAhSNW/oIAAAAAQAAIADQMDnURQAAioey4n+fz9x1PUmhxgPqWfRMejYy/6GIXNRJAAAACAAAAAEAegAAbCAI0L6QuUs6ixMA0LPomTj8Q1GhBwAAEAAAAAIABAAANoRc95/nssIEAPQsHEeAAAABAAAgAAAAgdC7SAAAoFnMJMWaCqBnmWHLAgGApgUApthvAEAAAAA2CwEAgMYzVsnc48OJO6tAjQD1LHomPRsAAYDGBwAAAAgAAAABAIAADv9P+IPyOW3FmwKgZ3qCIAAQACAAAAAEAACAAMB6Zb93tubpKAYFQinyjxf08H9iEEDPSDkAFAml2+/rIAAAAAQAAIAAQMNkb0eFeeJQGNKsWvNfpLT/U5UD6FlTti8UBPXI2dNRIQAAAAQAAIAAQKNEzlYPAQAoALoNf7hADf/WKg/TGBAKQg8BAAAgAAAAReSM4wQAAOqFVu+oGv5FcvO/YmNA/+x6B+xkIABQ31IbAAACAACwaQ6UCAAA1Ovwr/V7ZLDYNf9rOajoHehdsJuBAEB95FAXAQAAIAAAAHXgqu6EAABAHRhaytxtfYk783i8h/9l0TvQu9A7ASAAsHmRrQYAIAAAAIUKAOxur7j2BQ4MEB5zqXPX9yZuG4f/P0XvQu9kjskeECC/zmfuvHYCAABAAAAACAA0THa2Vdxn0wQAIBwSv1yPL2heOAf+VVOXOyv5O0rY2hAQskU72wgAAAABAAAgANDQ2uH3J7kuhDCo+APtsbnMXd6VmJqmYU30bvSO9K4qBAEgEN71tugcAgAAQAAAAIrGrX2JqQ7iL40SAAD7qLT9u9nMXd3N4X+tQQC9qx8JAkAgPD+SmurncWc/AQAAIAAAAHXg6FBqxsHRSMKnR3BywDY6vyo9+MJODv/rDQJc7N/Z59NMBwD7aJylpTG5jw8RHAcAAgAAUAf+NZKaOiDcxS0HGOfH2cztaudAv1HRu9M7BLCMbtwt7ZuXxwgAwP+3d/cxlpblwcAPKxigYFL4B1MTS2zUN6SJKXkbkyZNTNo/iG/StEmbNJraAoLg8mFF5BsRPxAslBZExBbwq1oVkSJaBSkCIi0CoqJddndmP2d2Z3dnZndmd2bPec793tc5z7YrLvsxc87Mc57z+yVXosvO7DnPx30/1/XcH6AAAPTAEzvblXrIiSkJFgujinbn5+8np9tppeR/8Qt+5mMYx3K3nIYKij6oStPjIp6wQC6gAAD0wvMz1SoAfHxDK21vOi9URzx2T7dS5w3cBZL/nkUcyzimuwz6oWKiD4q+qEr3y/NGzQAKAEAvbJ6vVgEgVjoem/egQ7WSgS9sbVVqT/C6RBzTL0+00g5FPyok+qAq7ZATsVm/CCgAAL0wvrddqa2OrhptpVW7PehQDfHm/zPjrc4OFRL2/u3+Ecd42kgAKiL6oOiLqrRFbvTVAAoAwKJN5IeKy0eq86ATn+Xnsx50WH7xVvrvNlZrJfC6RhzjONZGAlAF0QdVrV+cUAAAFACAXojhzR9a16rUkOAnpq0MxvKJfep/kROAD6+3zd9S7wISxzyOfVOuwzKKPqhKU36ij7Y2DqAAAPTEzlZKn9pcraGO35tUAGB5xDTb/9rVrlRRbNgijn2cA1OeWS7RB1Vpalz00TtNkQEUAIBemMkPFZ8dLyr1FvCrE0VSAmCpxTX36FSRPjgi+V/uiHMQ50I7wHK0A9EHVWn0zz25j551MwAKAEAvzOWHiq9tKyr18P9P+WFnxsMOSyim1z6wvUjvWyv5rkrEuYhzYuozSyn6nn8ar1afeF/uo+f0iYACANALMcw29uKu0sNOLAY25qmfJbI7P1jHA/ZK2/xVLuKcRPtkTQCWysbcKX5iQ7VGAT20o60QBigAAL0T822r9LBz5WjTVoD0XbxQG5tP6dNjRTq7Riv9x9zl81bX5/vEuYlzFOfKS1D67b9z33PFaLXugeijARQAgJ55bqadzqlQAnTBmmbnM0G/xNX1y/ygH6NN6pT8XzrSSt/eUXSGzl8yUq8iQJyrOGdaBvrpmZxsV2kBwOib9YeAAgDQU/FQ/YGKzX1+eLKdWp556IO4rl7ID9TXra/XYn+Xj7bSD3d2hwrH1J7Hp4vOn9XpO8Y5i3OnbaBfbUP0PVW65qNv/qURcYACANBL6+fa6SMVS4b+daLozM2GXoq55LG6/JWj9Vs1P5L//RcKi/8df1a3XQ3i3D2Sz+GcnIgeiz4n+p4qXe/RN693sQMKAEAvbW+mdPvmaiUJse/xVNO5obcP97Gg3EVrmpXa4muxEd/nRzsPvEhY/Fn8t4tqtMBhnLsL8/e5f5siIb0Vfc6nKtYX3jmmLwQUAIAei+HCX6nYW4+rR1tp3LLH9EBcRZvyRf6pzUWtEv+/KRPhn80e+j6Jv3NhzXY5OLNTKCw651ZLQS+M5WvpsoqNmIm+ed4FDigAAL0WC4e9u0KLocUq5oY9sljxgnjNnnb62IZ6DYPft+Df0zsP/x6Jv3vpSP2OQ5zbOMcGA7BYo7nPqdIOGufmPvm7k65sQAEA6IPYZuj9a6uVHDw/480eCxcDSGJF7+vW1S/p3X/BvyM5HvEzdVsYsLM4YD7H0YbtkSuxQHErPVOxLXGjT7YFIKAAAPRF7H18dcUSpS9uLVLh2YcF2NXqjmq5bKRe8/3PLKfHPP2yBf8OV/xM/Gz8jrodlw/mc/1QPudx7uFIRV8TfU6Vrutrc5+8eo9OEFAAAPpgy952uqFiw6SvWdfsrNoOR2I6J4Cfzw/y713drN2b7ity4r5qd3tR90X8bPyOK2o4EiDOeZz7aUUAFnBfRJ9Tpes5+uSte50bQAEA6JNYbbhqbwUnrH7MYYo9vNfN1e/t9r433JePtNKWHiYD8bvid9bxWMU1ENdCSwGRw7RxPlXuOv7MmEoWoAAA9FHsf3zOS9V6mH9kyhM8hzZbpPRUZ8/7+r31j3vyhs5Cd70/bvE743dX7b7vRcS1ENfErHUBOAzR11Tp+o0FAO/b5uIFFACAPnpsqkgrK7ZV2B3egHAQUR7auredvpEflC9eU8/k/7bNrbSxT1vdxe+M3x3/Rh2LAHFNxLUR14hSIgfzj5urNSUm+uLokwEUAIC+icWG3r+2Yqudj7TM5+UVk9f1OXm9PT+4n1/D+f5n54T8Hzb1L/l/eREg/q2za1gEiGsjrpH184oAHFj0MVXbIjP6YgsAAgoAQF9N5oegqm0RduGaZvrprIcgft0v8nVx1Wg9k9aIu7d0FwBbiqu/O5IipU+PtWp5LOMaiWvlF9oSDiD6mAsrNoIo+uJJxW9AAQDot6rtBGAeJC9PVGObt+9O1nOV/33X/L05+W8v0/GNf/vcmhZVYjTAg9uLNNNKRgPwP75cwfVvPrFB9g8oAABLIBYCrNqq4H+3sbWgPc+pl1jRfe2eductdV0T1Jj3G3uRzyzj9R7/dnyGlWvqeYzPW91Mnx0vOteSXQLYk6/3T26sVuE7+uBvKHwDCgDAUvj5bLtyBYCr18UK6J7Uh9l8Pv1PTBfpo+tb6axV9UxM37e2mb65vUhTFdj6Mj5DfJb3ra3nsY5rKK6l2CVgXtMy1Fbt7k4lqloB4OemqwAKAMBS2F2kyr1dXbm6mb5vNeShFQt0fX1bfZPRfcn/dyertWVdfJb4THU+7pesbXWmGFlodHjFdKKqLSJ6Qf48u3V5gAIAsFSqOBzyM2OtSrwZZWmNzrXTLZta6T2r65uExnd7YbZdyWku8Znis9X9+Mc1FtcawyX6lDtz31K1UW83b1SRAhQAgCUUb/2q9pB+xWgz/WK3B/RhEfPQH5su0qUj9U08Yxj6h9c1B2Jl+viM8VnrOv0iIq612Hd9Ru41NKJPuXy0etdi9MEACgDAklk/167cNIDYxuvbO4q013NR7cWe9J/fWnQWa6trsnlu/m4x0ibWthiESzo+Y3zW+Mzn1vi8vDu3M5/bUnSuQeot+pJv5T6liruArDcaBVAAAJbSjmZK162r3n7gsRvAdtMAaitW435upp1u3NiqbYIZEduNxU4GG3KSOUjTfOOzxmeOz37OS81an6O4BuNa3GMedm1FX/J3FWxrou/doZ8DFACApbS73Aasint4/9I0gFqaaHa3oPzASLNy83F7vZ7FV/P3HB/goSzx2b+0taj9eYprMa7JCclYLUVfcn4FR7NE32sBQEABAFhSkZrE9lhVfDCP4bn27q7XtRbbXX18Q70X+tsXX6rJw32s0fClChYJ+7FAYFybcY1qduoj+pDPjrcqOQXl6Z2uNUABAFgGMd+3ansj73sg37LX+Rl0kQPH1mtf3Vaks2o+nDzeJl+8ppl+MN2u1RoW8V3iO8V3O7PmhYC4RuNancrXbCE7G3jRh1Sx4Bh9bvS9AAoAwJLb1kzpts3VnIv9L1uNjxxksb/8T2fb6aaNrdon/2d1Huqb6cnpam7zt1jxneK7xXc8awiKADdsaKUf72p3rmEG1xcrOnrlU2PWuQEUAIBlEm/37ttWdFbfr+KWgBNGAQyceK8Vq1t/bVt3e7+6vzWO+Mj6Vno2J4x1nrYS3y2+Y3zXvxmCc/r+tc3ONbx5PhmqPYCi76ji9qLR135zuylugAIAsIx+tLNIF6+t4BZq5YMSg1VQ+tHObpJ47hDM9d+3a8XInsFa6X+h4jvGd4035MNwbs8t1wZ4dka2Nmii7zi3goXt6GujzwVQAACWTbytvb6ib/U+lh++rQUwGMbzebprvNWZKz4MyWEs5PWZsSKNDeFe8pvyd75jrBiK87xvNMAXtxq2PTjXZ6rsSJXoa6PPBVAAAJZNPIrEqvtVnAYQb3C+sa1ITc9Llb12Yi/r70wWnSRpGIb7x3f82/xdH9pRDPUc8fju8Zb1gjXDc94/ONJMj00VnYUtNUnVFOtVxBac51SwP4vP9OWthWsHUAAAlt/zM+1KTgOIuHK01dnL2UNTtcQ2dy/m8xJD4N/9UnNo3gZfs67V2T7THN6cbOVj8P2cEMd6HcNy/uNa/4fNrfSLfO3bx716BcnoK64crebb/+hjnzedBFAAAKog3uZ9uKJDJmPV8VjNecbDdiXEaYgh4LF45CUjw5P4Rdy4sbtXPP8rCiHP5aQmCiPDdC3Etf/1fA9smBuO9R8GQfQR0VdUdaeK6GPtLAEoAACV8bWJorJDeS9c00w/mzUKYLnFG8/HptrpExtaldxfu58rd981Xpi7exAv5vvzkxuHqwgQU5RikcC4J4wGWF5xZ0YfceGa6k4hsagtoAAAVEosnFTlPb7jQdtaAMtnzZ5u4j8sc773xXmrm+lfthadBeBcfq8sUpvYMi8WRjx7iKaExL0Q98Ttm1tp7R5XyHKJvuHjFd6dIvrWMQvaAgoAQNV8eF21H7RjQUBzr5dGHOZYUGtkTzepG6Y3/vvistFmeny6SPOuucMWgyQe2F4MzW4Q+7dPUSyKBVU3zCfXzBIn/9E3VLkwGX0rgAIAUDlPTLcrPQog3rS9MGPO7VI8UK/NmdxXt3VX9x+2xD/ugQ+t6y4+ycI8tbNIV422Kt2e9HPbwBjuPZrvIaOW+iv6gh/vaqeVa6rdnkTfCqAAAFTOtmZKV4y2Kv2WLYZ5bvB6rW9iX/tv7SjSdetbQ5e4RbwnVnnf1EqrDedetFgp/9Z8LM95afiuo5gGEYu+fXeySBOGfvdN9AXRJ1T57f/VuU/dbgAAoAAAVFEM+Y7V3au+8NYXtnb34qZ3pvID6iM5WblpY6tzjIcx+Y+3iDHff2w+GWXSA/vWBYhh8eevHs5rKr73zfme+sF0YQX4Hos+IPqCqrdX9283jQhQAAAqKp5RYjXvD4xU/6H62zuKTsGCRSZp+aTH3tQ3b2qllauHa4G/lyf/MfJhpmWxv163KbvyMX0wH9uVa4bz2tq3UODf53ss7rXCBbZo0fZHH1D1wlL0pS/awQZQAACqLB7W791SVD4RjEXpHplqWxRwAeKYxduzH+7sruwfw5WHNfGP7x7TXl6YtbZEXwtNOeIYXz7aGqpdAl5eCIjvfuVos3PvxT2o/Tpysa5CtP1VX5g0znf0pbuMVgMUAICqiwW8BmEV75hbLHE7sgfnTfPt9IPpdvrY+uFNxPZ/6/+pzS3bcy2hdXMp/WM+5sM6JWD/wlPcg3Evjs97Q3wkhaRnZtoDsa5E9KHRlwIoAACVN9nsPqQPwgrel48203MzRgIcTByb9eXifjdsGN45/vu/mbt0pJX+bXuRprydW1Jxm040u2uNXDLSGtqRJ/uvafLJja306JTFAg+nHYu2Ptr8QdhJJPrQSYv/AQoAwKB4crqdLlwzGMncVfmBMD6vNQF+/YE5tiKLPbI/tmE4V2M/0PXy4XWt9OOcSOx2vSybWBDvRzvbne0Wh70IsG9dkygEPLi96Kxsr6D5q6JtjzY+2vpBuF6i73zS1n+AAgAwSPbkB654WzwoSd3frm2mx6baaa9nro5N87FCdit9cKRV+bmySxl3jrXSlr0SrCqIKSkb5tqdxNe12Y3z8r162Wirc++unXORhmjTo22PNn5QikXRd+5RYAQUAIBB8/h0O5310mA9PMfb7p1DuJJ7vCHb1kzpv3Z1V/SPpP8sCdX/DMeN5OHhqcJDeQXFaID783170Zqm0QD7XbMxPSD2uI97OvaRH7biZnzdaMu/PFF02vZBOXfvjrVpZhRvAAUAYADF3sVXjQ7e27k7xoq0ek/9RwPEW+wdOTH4+Ww7/Wt+SI7hsWcb5v9rC0XetLGVfmaxyMq3NTFk+rp1rU4C5dr91QUDY6rEQzuK9FJu13YOwboV0Xav2t1Od2wuBu58xRQjAAUAYGDF0MtBWzQu3p7FA/P3p7pbbdUxWVqTE4F/nyzSHWOtgVirYbnmVX9ha5E2znsbNygFrUhw/3m8sF7FK0RM6bk7H58npou0bq6eRc5os6PtjuLzoI0Iib7S3H9AAQAYaLGK8d9vGsw5upEYfzonyL/cXY9ttuLB+Kmd7XTPllanwHGeuf0HSZSaOYmwB/cgmsptzoM7is60Ddfygdc8iS0sP7K+le7NbUG0CXUodMYInRip8+kBLmretrmlzQEUAIDBfyh7dqad3jegD+OxhsEHcjL4pa1FGh/A12UxPzoe8P95vNUZHh3zpA3zP3jEvOmYFmFByMEV69/9JLc7H15vgcBDTQ+INiHahmgjoq2YHcC5LtE2Rxv9/rXNgVp3Zv+IPvL5GVONAAUAoAbijcbn88PZICeeMS0gHpS/mL9HbI0X36lqK8HHSPX4XFv2pvTEdLszvH9lmfBbHO3QccGabqEnRq3I/QdfnMM4l3FOTXM5vJEB0VZEmxGjtqINibYk2pSqzYJplW1dtMXRJkfbfNaAF2L+JX8PW4sCCgBAbaza092zuy5bbcUDcuxysK4sBiz1c1s8j8eK9BM5wRnJx/a5mXa6b1vR+VwXSXaOuLhzbb42/2Oq6GwtR73EOf3hzqJzju1scWRxUVkMiLYl2pi1ua3Zurfb9iz1rVKUxeRoc6Ptjc9Vl2lMMQIjFp4FUAAAaiOGU8cWe3Wadx5DTSOpuGdLkb6zo0g/3tVOm+a7w4/7kcTEPN2R/MtjaPOjOVmN7a3+YXMrXTkqsVnMW/+7xludxIZ6i4UvPzXWSu+19sWCC2VX5Lbmlpx4R9sTbVC0RdEmRdvUj+JZtKXRpkbbGm1stLWdQk6NpjFFn/jN7UXlRpQBCgAAi7Ztb0o3bKjnnNzYeuyStd3547EIVWyr9/Bk0dmDO4apxluzQxUGYnuusfl2J14q3+rH1l3/OtFKd+bfGW+8Yk5zLFBnAb/FD3e+JicSkcRMWXRrKMTtt72ZOonk5aOmxfQicY22KNqkaJvu7LR73e0Go+2KNmxfe3aorQdnipjH3x3SH21mtJ3RhkZbGm1qtK113d4x+sToGwEUAIBaenG2Xfu31WeW+8fHXNpY2Omyke5b+pgCEQ/LrxSRkMYbtohL88/EKubxkG1f896P3Ijt/TbMW+hvGM3lZDOGW9+6qaUI0IdCaLRZ0XZFG7avPbvmMNu+aCujzYy285whWLsk+sLoEwEUAIDaikedr04UtRrCKQYjIqG4arTZ2ZXCcFvtUAxZ/85k0Xm7bGcMsRyFyOgLNUWAAgBQe7FP9yc22J5LLN2IjHirGG/9x/Za4Z//FQvLxWiA2zd3d8wwIkAsVUQfGH0hgAIAUP+H7nZ3Uad48+ZBUPQ7+b9xYys9OV0M5P7mLI0dORH798kiXb3OtADR/4i+L/rAQjUSUAAAhkXsdxy7ApxvMTvRx0XKvljO9Zf7cyixHsSq3e1093hh3Q3Rt1iZ26UHthedPhBAAQAYKpPNlO4Ya5l/K3oesajYD3e2O/uGw5GILe0eny7SFaPuI9HbiL4udjaw8wigAAAMrYm9qbMKtIdD0Yvh/hevaabPb2mlrXu99Wfh4tqJayiupbim3F+iFxF93YQt/wAFAGDYvbi7nS7ykC0WEe9d3Uw3b2qln8y0O6u7Q6+8kK+p2Kv9PNOVxCIitkaMvg5AAQAg+9Z26wGIhW3t95H1rfTtHUWaNKyWPolFAu/f1l0k0JQlcaQRfVssMgmgAABQmsnJ29ctCiiOIGJrv6/la2bdnLf+9N98zt9+ubvdWVhypXZKHEHyH33bjAIloAAA8KviLdtnxwtv2MQh47bNrbRmT9tK2iypdlms/NlsO31onbVLxKEX/Ys+Lfo2AAUAgAOInQHusg2XOECcm6+J69e30tM722lO4s8yFwJm8zX46FSRLhtpaq/Er0VcE9GXTUr+AQUAgIMbn0/plk2tzqruHiRFvEW7dl0rPbjdwzTVs2m+nb6wtVsI0GaJfTuSRB8WfRmAAgDAYdiYH5w+scEQ22GPS3JS9bktRWe4P1TVXL48X5htd4Z7X2hHk6GP6Ls2Sv4BBQCAI7M2J303bVQEGMZ4z0vNdOumVnpmVzvNGO7PgIhr9Yc72501KixoOpwRfdZaBUtAAQDgyEXeNzLX7iSCFgYcnqGz14y20g+m22lHs50Kz9EMWrvV7q5l8ni+huNaNi1geKYq3TlWdN78q1kCCgAACxT5377dAd7jjVp93/jnc3v1aDM9NtVO820P0NSjgBnXclzTcW1rv+rdfn3Wgn+AAgBA70y3UrpvW2FYbQ0fnK9b10oP7SjSLvtkU1Nxbcc1Hte6QkC9Ivqk6JumtV+AAgBAbzXb3SLA+9d66KzDcNnY0u+B7UVaP9f2xp/ai2s8rvW45uPaN61p8CP6ouiTmqYqAQoAAP2xp4i5tUW6YtTigIMY57zUfeP/bzkJioWyWh6cGTJxzce1H/dA3AvnKAQMZEQfFH3RHtVLQAEAoL/25gfoX+xup49vsMDWQC3ut667uN/4fHeePwyzuAfiXoh7Iu4NbdngjF66ZWMrrcp90F7tGKAAALA04rkrttz62kSR3mtObSXjrHJ+7PXrmp0kZ66wuB+8XNwTcW/EPRL3StwzZ2k/KlnEjL4m+pzoe+T+gAIAwDJ5YmeRrhptpXcbSluZB+VLR5rpHze30tO72obIwmGKeyXumbh34h4yKqAa8e5y6tKTOzVmgAIAwLIryjm1d4+30sVrPDQv5/z+D+WH5M9vKdJPZtpp1rMyLEjcO3EPxb30IesELGsxM/qU6Fuijym89gcUAACqY6qV0lM72+mmjebTLmWcm5OTGze00nd2FGnNHvP7oVfiXop7Ku6tuMfOVQhY0uQ/+pLoU6Zs8QcoAABUU6ywPbG3nR7cYW2ApXjjf/vmIr0w287HPFkQC/pkb6ddS517Le45IwL6G9F3RB8SfYmdSgAFAIABKQRsmGunT4+10kVrmuksD8yLX9QvH8OVa7pzYWMv8w3z3TeUno9hacS9Fvdc3HsPlNsIrtS+9ax9i74i+ozoOyT+gAIAwIAWAn65u53uGm+lD4xYXXshw2AvWNOd2//ZfAx/PttOu83th0qIezHuybg34x69wBooC9qtJPqG6COir5D4AwoAADXQzA91z+5qp38aLzoPex6SD29Bv0gsHp0q0uZ5W/hBVcW9Gfdo3Kv7igGmCRy6uBl9QfQJ0Tc0Jf6AAgBAvcTz3a5WSs/PtNMXtxbpilGFgJcn/dfkxOHeLUV6fLq7oN8ui1/BQIl7Nu7duIfvGivSZSOmCLw88b8yt/1fmSg6fUEcL7k/oAAAUPNCwEyR0sb5dnp0qp1u2NDq7PM8rA/El+cE4b7tRfrZbDttnvdADHVp56Zb3Xbuyenu6KcoBgxrO3fe6u6q/j/c2U6b5rtTmbRzgAIAwJCJfZ3niu6CgV+fKNLlo610/up6rhVw9kvdh+AL1zTT9eu7C/mtn+/OI25azA/q286l7k4Cca+v3pPSQ7GtYE6G37e22yac/VI95/ZHWx5terTt0cbPF6YyASgAAOwnVth+emeRPjPWSh/JSfJlI62B3U4w9gx/f37Av3pdqzPKIYb2PzHdThvnpPpASpPN1BkdcE9uGz6a27tIlqNAOKgFgWiro82Otjva8GjL5zV3AAoAAIdSlA/HscL29yZjYa0ifTwn0ZFQV/XhOKYxfDA//H4if87P5M/7ze1F+q9dRVqXE/45r72AVxA58lQrpf/e3U4/mC7SVyeKThsSQ+ajKPCe1dUd1RRtcrTNUcSItjra7Gi7NXkACgAAC7a7nCbwk5l2ejg/ZH5pa5Fu2dRKV5dvzJZ6EauLy635bs4P6J/LD77f2NZ9ux8PvzG/dcb8VmARBYFoQ2JNkBdzm/LUznZ6cEeR/nm86BQYrxztjoxa6kVUo629bn0r/X1ue6MNjrY42uTO8H4NHoACAEA/xD7Rs/nheFszdZLtkfzw+eLudnpsuujsLnD75la6NifnscvAQrfiirf5V4x2f08Mzb1zrJvk/yAn+fGWbnSuu2Dftr35Qb2VOnNbAfol1hDYmduarfl/xMKCa/e0yxED7c56IvEGPt7Ex04iK1cvbjeSaDuj7Yu2NEYjRNsabWy0tWPR7jW7bXBL0g+gAACwXPYttBVvovYU3Zh9WUTi/tPZX49Vu7vbd+3/d/f9jhi+H78zFuqT5wNVa/ciEd9bLqgabdbul7V70bYdqN2LiDbx5e3kvrZPuwegAAAAAAAoAAAAAAAKAAAAADDEBYAJhwEAAABqbTYKAM84DgAAAFBrP44CwH86DgAAAFBr/6kAAAAAAENSAPie4wAAAAC19ngUAO5yHAAAAKDW7o4CwO2OAwAAANTa7QoAAAAAMCQFgFscBwAAAKi1G6MAcLHjAAAAALX23igA/LXjAAAAALX21woAAAAAMCQFgHc6DgAAAFBrfx4FgLc5DgAAAFBrvxcFgDfl2OVYAAAAQC1Fzv+mKACcmmOV4wEAAAC1FDn/qVEAOCXHQ44HAAAA1FLk/KdEAeA3c9zheAAAAEAt3Z3j5CgAHJvjUscDAAAAaily/mOjALAix185HgAAAFBLkfOvaIT8P87Isd0xAQAAgFqJXP+Mxj75//xhjjWOCwAAANRK5Pp/uH8B4M05vue4AAAAQK1Erv/m/QsAv5XjK44LAAAA1Erk+r+1fwHghBy3Oi4AAABQK5Hrn7B/AeCoHNc5LgAAAFArkesf1dhf/oMzc0w4NgAAAFALkeP/TePl8h/+WY51jg8AAADUwuoc/+9ABYDTczzj+AAAAEAtRI5/+oEKACfleMjxAQAAgFqIHP+kAxUAVuS4Lce8YwQAAAADbb7M8Vc0DiT/h/NzTDpOAAAAMNAitz+/8Uryf3xrjvWOEwAAAAy0yO3ferACwMk5fuo4AQAAwECL3P7kxsHkv3C/4wQAAAAD7f7GoeS/dJnjBAAAAAPtssMpAJyWo3CsAAAAYCBFTn9a43Dkv7jJ8QIAAICBtKlxuPJfvtfxAgAAgIF075EUAN7heAEAAMBAeseRFAB+N8eUYwYAAAADZTwd7vz/sgBwSo5vO24AAAAwUL4VOf2RFACOz3G14wYAAAADI1b/vypy+saRyD9wRo5Jxw8AAAAGwliOP2ocqfxDp+X4D8cPAAAABsJ3crxxIQWAE3Lc6vgBAADAQLglx28spABwVI6/zLHJMQQAAIBK21Tm8Ec1FiL/4BtzPO44AgAAQKVF7v7GxkLlHz4mxx059jqWAAAAUEl7y9z9mMZi5F/wFzm2Op4AAABQSZGz/0VjsfIveW2O5x1PAAAAqKRnc/xmLwoAsRjgR3O0HVMAAAColMjVP9rolfzLXp9jznEFAACASpmNnL3RS/kXft9xBQAAgEp5qNFrqbufIAAAAFAdf9mPAsCpyWKAAAAAUBWRo5/ajwLAiTluShYDBAAAgOXWLnP0Exv9kH/x23Ksd5wBAABgWUVu/rZGv+RffkqOe3IUjjUAAAAsi6LMzU/pZwFgRY535RhzvAEAAGBZjJW5+YpGP+V/4PU5HnG8AQAAYFlETv76Rr+l7iiAC3JMOuYAAACwpCbLnHxFYymk7paAzznuAAAAsKQiFz+1sZTyP3htsiUgAAAALJXIwa9tLLX8j74hmQYAAAAASyVy8Dc0lkP+h293/AEAAGBJ3N5YLvkfPy3HuHMAAAAAfRW592nLWQA4Icf1OZrOBQAAAPRFs8y9T2gsp/wB3prjRecDAAAA+iJy7rc2llv+EK/JcWOOeecEAAAAemq+zLlf06iC/EH+IMdPnBcAAADoqR/n+L+Nqsgf5ugc1+WYcW4AAACgJyLH/lDk3I0qyR/o1BxPOz8AAADQE0/leG2jivIHe0eOOecIAAAAFiVy63c0qip1twV82HkCAACARYnc+oRGleUP+PYcU84VAAAALEjk1G9vVF3+kCfluDNH4ZwBAADAESnKnPqkxiDIH/T0HM85bwAAAHBEIpc+vTEo8oc9LsclOXY4dwAAAHBYdpS59HGNQZI/8G/neCBHyzkEAACAg2qVOfRvNwZN/tArcpyRY5PzCAAAAAe1qcyhVzQGUf7gx+S4IVkQEAAAAF5JUebOxzQGWf4Cx+d4wfkEAACAA4qc+fhGHeQv8vYcE84pAAAA/IrIld/eqIv8ZU7McVOOpnMLAAAAHc0yVz6xTgWAo3KcluNh5xcAAAA6Hi5z5aMadZK/0Kty/EmOVc4xAAAAQ25VmSO/qlFH+Yu9OselOaacawAAAIbUVJkbv7pRZ/kLnpzjvhxt5xwAAIAh0y5z4pMbwyB/0bfkGHHeAQAAGDKRC7+lMUzyF35njjnnHgAAgCEROfA7G8Mmf+kTclyTo+UaAAAAoOZaZQ58QmMY5S/+uhx3JyMBAAAAqK+5Mvd9XWOY5QNweo5Hk5EAAAAA1E+rzHlPbwy7fBCOzvGnyaKAAAAA1M9ImfMe3aBTBDgux/nJKAAAAADqo1XmusfJ/H+1CHBsjptzFK4RAAAABlxR5rjHyvgPXAQ4Kcfnk0UBAQAAGFx7cnwuclyZ/sGLAG/K8WCOedcMAAAAAyZy2fty/I4M/9AFgBU5fj/HE8l0AAAAAAZHUeaykdOukOEffhHgj3Oscv0AAAAwIFaVuazkf4HbA+5xDQEAAFBxe5Lt/hZdCHhXji2uJQAAACoqctZ3yeAXXwA4Lse5OUZdUwAAAFTMaJmzHieD700R4DU53qMIAAAAQMWS/8hVXyNz730R4PocO11jAAAALLOpHFdJ/vtbBPhkjr2uNQAAAJZJ5KQ35ThRpt7/QkAUAYwEAAAAYKnFm/+bZOZLPx3AmgAAAAAslchBY9i/N/8WBgQAAKDGyb8F/5a5CBDbLWxxLQIAANAnW8rcU/K/zEWA43K8K8ce1yQAAAA9tqfMOY+TgVenEPCnOVblKFyfAAAALFJR5ph/KuOuXgHg6Bx/nOOJHPOuVQAAABZovswtI8c8WsZdzSLAihy/n+PBHHOuWQAAAI5QDPm/r8wtV8i0q18EeFOOzyfTAQAAADh8kUN+LsfvSP4HqxBwUo6bc7RcwwAAABxCq8whT5JRD2YR4Ngc5+cYUQgAAADgFRL/kTJ3PFYmPfjbBMYOAY8m6wIAAADwv+bKXDFyRtv81WiHgNNz3J2MBAAAAKCbG95d5opW+q9hIeB1Oa5JRgIAAAAMs7kyN3ydTLneRYATcrwzded4tF33AAAAQ6Nd5oKRE54gQx6eQsBbUndvxyn3AAAAQO1NlTngW2TEw1kEODnHpTlWuRcAAABqa1WZ+50sEx7uIsCrc/xJjodzNN0XAAAAtdEsc73I+V4tAyaKAK/KcVqOm3JMuEcAAAAG3kSZ40Wu9yqZL/sXAY7KcWKOt+d4IUfhfgEAABg4RZnTvb3M8Y6S8XKwYsDxOW7IsSl194YEAACg2lplDhe53PEyW46kCHBMjjNyPJBjh3sJAACgsnaUuVvkcMfIaFlIEWBFjt/OcUmO55JpAQAAAFVSlLnaJWXutkImy2ILAcflOD3Hnam7dyQAAADLa6rM0SJXO07mSq8LASel7kISsY3EnPsNAABgyc2VOVnkZifJVOl3IeCEHO/I8VSOGfcfAABA382UOVjkYifITFnqQsBrc1yX4yc55t2PAAAAPTdf5lyRe71WJspyFgGOzvEHOW7M8WKOpvsTAABg0ZpljnVjmXMdLQOlKoWA1+R4a47rc4y7VwEAABZsvMytIsd6jYyTKq8PcFqO23NM5mi7dwEAAA6pXeZQt5c5lXn+DFQx4A05rk3dfSkn3c8AAAC/ZrLMmSJ3eoNMkkEvBJya44Icj+QYy1G4xwEAgCFWlLnRI2WudKrMkToVAVbkeH2Od+W4J8f6ZHoAAAAwXNplLnRPmRtFjrRCxkidCwGn5HhbjptyPK8NAAAAhsDzZQ70tjInkvgzVMWAE1N3esBf5ngox2wyKgAAAKiHdpnjPFTmPJH7nCgThG5B4PU5PlpWxrbm2KvNAAAABsjeMpd5vsxtXi/Tg1cuAhyV47U5/iLHHTkez7FJOwIAAFTYpjJ3uaPMZSKnOUqGB4dfDDgmxxtTd7jMrckuAgAAQDXsW8X/OzluKXOWyF2OkcnB4kcFnJDj/+T4oxxX5fhWjnHtDgAAsITGy1zkqjI3iaT/N5K3/dC3gsDxqbtq5mk53pHj3tQdcmNkAAAA0EtFmWvcW+Yep5W5yPEyM1jewkDcjJfluD/HT1N3f83JHPPaLQAA4CDmy9xhfZlL3F/mFqfJtKD6xYCTc7w1x/k5bkvdrTeeybEux4T2DQAAhtpEmRs8U+YKt5W5Q+QQJ8uoYHCLAStynJTj9Bx/luPMHNel7sKCX8nxvRxrcmzXDgIAQK1sL5/1v1c++99a5gJnlrnB6WWusELmBPUtCuxbWPC3crw5xx/mOCPHX+W4NMfdZSVwVY5d2k0AAKi0XeWz+0Pls/yl5bP9GeWz/pvLZ//IASzYB/zPaIFjU3cKQSzucWqON+X4vRx/nuOvy3hvjhtz3F5GNDKx7+d/lvGsNhgAABbk2f2eqx8vn7X3PXffWD6L73su//PyWf1N5bP7KeWzfDzTe6vPr/j/uHstdRb2PaUAAAAldEVYdGRhdGU6Y3JlYXRlADIwMjEtMDYtMDJUMDE6MzA6MDkrMDA6MDDQJNYVAAAAJXRFWHRkYXRlOm1vZGlmeQAyMDIxLTA2LTAyVDAxOjMwOjA5KzAwOjAwoXluqQAAAABJRU5ErkJggg==;" vertex="1" parent="1">
          <mxGeometry x="-12.879999999999972" y="970" width="24" height="24" as="geometry" />
        </mxCell>
        <mxCell id="sMOUUsySO7USkykY8Pia-26" value="App" style="html=1;verticalLabelPosition=bottom;labelBackgroundColor=none;verticalAlign=top;shadow=0;dashed=0;strokeWidth=1;shape=mxgraph.ios7.misc.iphone;strokeColor=#c0c0c0;movable=1;resizable=1;rotatable=1;deletable=1;editable=1;locked=0;connectable=1;" vertex="1" parent="1">
          <mxGeometry x="-3.08" y="981.5" width="50" height="98.5" as="geometry" />
        </mxCell>
        <mxCell id="sMOUUsySO7USkykY8Pia-31" value="" style="dashed=0;outlineConnect=0;html=1;align=center;labelPosition=center;verticalLabelPosition=bottom;verticalAlign=top;shape=mxgraph.webicons.apple;fillColor=#807E7E;gradientColor=#1B1C1C;movable=1;resizable=1;rotatable=1;deletable=1;editable=1;locked=0;connectable=1;" vertex="1" parent="1">
          <mxGeometry x="11.119999999999989" y="1006.5" width="20" height="22.4" as="geometry" />
        </mxCell>
        <mxCell id="sMOUUsySO7USkykY8Pia-32" value="" style="dashed=0;outlineConnect=0;html=1;align=center;labelPosition=center;verticalLabelPosition=bottom;verticalAlign=top;shape=mxgraph.weblogos.android;fillColor=#A4CA39;strokeColor=none;movable=1;resizable=1;rotatable=1;deletable=1;editable=1;locked=0;connectable=1;" vertex="1" parent="1">
          <mxGeometry x="6.720000000000011" y="1033.25" width="28.4" height="26" as="geometry" />
        </mxCell>
        <mxCell id="sMOUUsySO7USkykY8Pia-36" value="" style="html=1;verticalLabelPosition=bottom;align=center;labelBackgroundColor=#ffffff;verticalAlign=top;strokeWidth=2;strokeColor=#0080F0;shadow=0;dashed=0;shape=mxgraph.ios7.icons.wifi;pointerEvents=1;movable=1;resizable=1;rotatable=1;deletable=1;editable=1;locked=0;connectable=1;" vertex="1" parent="1">
          <mxGeometry x="46.92" y="981.5" width="29.7" height="21" as="geometry" />
        </mxCell>
      </root>
    </mxGraphModel>
  </diagram>
</mxfile>
